%FSLAX34Y34*%
%MOMM*%
%LNCOPPER_BOTTOM*%
G71*
G01*
%ADD10C,1.200*%
%ADD11C,3.200*%
%ADD12C,3.200*%
%ADD13C,3.200*%
%ADD14C,3.100*%
%ADD15C,2.000*%
%ADD16C,2.550*%
%ADD17C,6.200*%
%ADD18C,3.350*%
%ADD19C,3.800*%
%ADD20C,3.000*%
%ADD21C,4.650*%
%ADD22C,2.100*%
%ADD23C,2.600*%
%ADD24C,2.000*%
%ADD25C,3.500*%
%ADD26C,2.800*%
%ADD27C,3.000*%
%ADD28C,4.300*%
%ADD29C,3.700*%
%ADD30C,2.300*%
%ADD31C,2.200*%
%ADD32C,2.700*%
%ADD33C,2.400*%
%ADD34C,1.800*%
%ADD35C,3.600*%
%ADD36C,2.500*%
%ADD37C,2.950*%
%ADD38C,2.900*%
%ADD39C,4.700*%
%ADD40C,2.350*%
%ADD41C,2.250*%
%ADD42C,2.800*%
%ADD43C,3.900*%
%ADD44C,3.550*%
%ADD45C,3.800*%
%ADD46C,1.300*%
%ADD47C,1.086*%
%ADD48C,0.800*%
%ADD49C,0.100*%
%ADD50C,1.000*%
%ADD51C,1.133*%
%ADD52C,1.353*%
%ADD53C,1.178*%
%ADD54C,1.229*%
%ADD55C,1.039*%
%ADD56C,1.161*%
%ADD57C,1.051*%
%ADD58C,1.067*%
%ADD59C,1.305*%
%ADD60C,1.001*%
%ADD61C,1.242*%
%ADD62C,1.137*%
%ADD63C,1.117*%
%ADD64C,1.248*%
%ADD65C,1.012*%
%ADD66C,0.925*%
%ADD67C,0.987*%
%ADD68C,1.027*%
%ADD69C,1.563*%
%ADD70C,1.267*%
%ADD71C,0.000*%
%ADD72C,2.000*%
%ADD73C,1.900*%
%ADD74C,1.350*%
%ADD75C,5.000*%
%ADD76C,2.150*%
%ADD77C,2.400*%
%ADD78C,1.800*%
%ADD79C,3.250*%
%ADD80C,0.900*%
%ADD81C,3.600*%
%ADD82C,3.100*%
%ADD83C,2.500*%
%ADD84C,2.300*%
%ADD85C,1.100*%
%ADD86C,7.000*%
%ADD87C,3.300*%
%ADD88C,0.600*%
%ADD89C,3.500*%
%ADD90C,1.150*%
%ADD91C,1.050*%
%ADD92C,2.100*%
%ADD93C,4.200*%
%ADD94C,2.150*%
%ADD95C,2.200*%
%ADD96C,0.500*%
%ADD97C,0.286*%
%LPD*%
G36*
X0Y1000000D02*
X1138000Y1000000D01*
X1138000Y245000D01*
X0Y245000D01*
X0Y1000000D01*
G37*
%LPC*%
G54D10*
X191334Y627078D02*
X191284Y628018D01*
X191334Y628958D01*
X191487Y629898D01*
X191741Y630812D01*
X192071Y631701D01*
X192503Y632539D01*
X193036Y633327D01*
X193646Y634038D01*
X194332Y634698D01*
X195068Y635282D01*
X195856Y635790D01*
X196719Y636197D01*
X197608Y636527D01*
X198523Y636756D01*
X199462Y636882D01*
X200402Y636908D01*
X201342Y636832D01*
X202282Y636654D01*
X203196Y636375D01*
X204060Y636019D01*
X204898Y635562D01*
X205660Y635003D01*
X206371Y634393D01*
X207006Y633682D01*
X207590Y632920D01*
X208073Y632107D01*
X208454Y631244D01*
X208759Y630355D01*
X208962Y629440D01*
X209064Y628501D01*
X209064Y627535D01*
X208962Y626596D01*
X208759Y625681D01*
X208454Y624792D01*
X208073Y623929D01*
X207590Y623116D01*
X207006Y622354D01*
X206371Y621642D01*
X205660Y621033D01*
X204898Y620474D01*
X204060Y620017D01*
X203196Y619661D01*
X202282Y619382D01*
X201342Y619204D01*
X200402Y619128D01*
X199462Y619153D01*
X198523Y619280D01*
X197608Y619509D01*
X196719Y619839D01*
X195856Y620246D01*
X195068Y620754D01*
X194332Y621338D01*
X193646Y621998D01*
X193036Y622710D01*
X192503Y623497D01*
X192071Y624335D01*
X191741Y625224D01*
X191487Y626138D01*
X191334Y627078D01*
G54D10*
X191334Y779478D02*
X191284Y780418D01*
X191334Y781358D01*
X191487Y782298D01*
X191741Y783212D01*
X192071Y784101D01*
X192503Y784939D01*
X193036Y785727D01*
X193646Y786438D01*
X194332Y787098D01*
X195068Y787682D01*
X195856Y788190D01*
X196719Y788597D01*
X197608Y788927D01*
X198523Y789156D01*
X199462Y789283D01*
X200402Y789308D01*
X201342Y789232D01*
X202282Y789054D01*
X203196Y788775D01*
X204060Y788419D01*
X204898Y787962D01*
X205660Y787403D01*
X206371Y786793D01*
X207006Y786082D01*
X207590Y785320D01*
X208073Y784507D01*
X208454Y783644D01*
X208759Y782755D01*
X208962Y781840D01*
X209064Y780901D01*
X209064Y779935D01*
X208962Y778996D01*
X208759Y778081D01*
X208454Y777192D01*
X208073Y776329D01*
X207590Y775516D01*
X207006Y774754D01*
X206371Y774043D01*
X205660Y773433D01*
X204898Y772874D01*
X204060Y772417D01*
X203196Y772061D01*
X202282Y771782D01*
X201342Y771604D01*
X200402Y771528D01*
X199462Y771553D01*
X198523Y771680D01*
X197608Y771909D01*
X196719Y772239D01*
X195856Y772646D01*
X195068Y773153D01*
X194332Y773738D01*
X193646Y774398D01*
X193036Y775109D01*
X192503Y775897D01*
X192071Y776735D01*
X191741Y777624D01*
X191487Y778538D01*
X191334Y779478D01*
G54D10*
X597734Y627078D02*
X597684Y628018D01*
X597734Y628958D01*
X597887Y629898D01*
X598141Y630812D01*
X598471Y631701D01*
X598903Y632539D01*
X599436Y633327D01*
X600046Y634038D01*
X600732Y634698D01*
X601468Y635282D01*
X602256Y635790D01*
X603119Y636197D01*
X604008Y636527D01*
X604923Y636756D01*
X605862Y636883D01*
X606802Y636908D01*
X607742Y636832D01*
X608682Y636654D01*
X609596Y636375D01*
X610460Y636019D01*
X611298Y635562D01*
X612060Y635003D01*
X612772Y634394D01*
X613406Y633682D01*
X613990Y632920D01*
X614474Y632108D01*
X614854Y631244D01*
X615159Y630355D01*
X615362Y629440D01*
X615464Y628501D01*
X615464Y627535D01*
X615362Y626596D01*
X615159Y625681D01*
X614854Y624792D01*
X614474Y623929D01*
X613990Y623116D01*
X613406Y622354D01*
X612772Y621643D01*
X612060Y621033D01*
X611298Y620474D01*
X610460Y620017D01*
X609596Y619661D01*
X608682Y619382D01*
X607742Y619204D01*
X606802Y619128D01*
X605862Y619154D01*
X604923Y619280D01*
X604008Y619509D01*
X603120Y619839D01*
X602256Y620246D01*
X601468Y620754D01*
X600732Y621338D01*
X600046Y621998D01*
X599436Y622709D01*
X598903Y623497D01*
X598471Y624335D01*
X598141Y625224D01*
X597887Y626138D01*
X597734Y627078D01*
G54D10*
X597734Y779478D02*
X597684Y780418D01*
X597734Y781358D01*
X597887Y782298D01*
X598141Y783212D01*
X598471Y784101D01*
X598903Y784939D01*
X599436Y785727D01*
X600046Y786438D01*
X600732Y787098D01*
X601468Y787682D01*
X602256Y788190D01*
X603120Y788597D01*
X604008Y788927D01*
X604923Y789156D01*
X605862Y789283D01*
X606802Y789308D01*
X607742Y789232D01*
X608682Y789054D01*
X609596Y788775D01*
X610460Y788419D01*
X611298Y787962D01*
X612060Y787403D01*
X612772Y786793D01*
X613406Y786082D01*
X613990Y785320D01*
X614474Y784507D01*
X614854Y783644D01*
X615159Y782755D01*
X615362Y781840D01*
X615464Y780901D01*
X615464Y779935D01*
X615362Y778996D01*
X615159Y778081D01*
X614854Y777192D01*
X614474Y776329D01*
X613990Y775516D01*
X613406Y774754D01*
X612771Y774043D01*
X612060Y773433D01*
X611298Y772874D01*
X610460Y772417D01*
X609596Y772061D01*
X608682Y771782D01*
X607742Y771604D01*
X606802Y771528D01*
X605862Y771553D01*
X604923Y771680D01*
X604008Y771909D01*
X603120Y772239D01*
X602256Y772646D01*
X601468Y773154D01*
X600732Y773738D01*
X600046Y774398D01*
X599436Y775109D01*
X598903Y775897D01*
X598471Y776735D01*
X598141Y777624D01*
X597887Y778538D01*
X597734Y779478D01*
X581174Y780418D02*
G54D11*
D03*
X555774Y780418D02*
G54D11*
D03*
X530374Y780418D02*
G54D11*
D03*
X504974Y780418D02*
G54D11*
D03*
X479574Y780418D02*
G54D11*
D03*
X454174Y780418D02*
G54D11*
D03*
X428774Y780418D02*
G54D11*
D03*
X403374Y780418D02*
G54D11*
D03*
X377974Y780418D02*
G54D11*
D03*
X352574Y780418D02*
G54D11*
D03*
X327174Y780418D02*
G54D11*
D03*
X301774Y780418D02*
G54D11*
D03*
X276374Y780418D02*
G54D11*
D03*
X250974Y780418D02*
G54D11*
D03*
X225574Y780418D02*
G54D11*
D03*
X200174Y780418D02*
G54D12*
D03*
X200174Y628018D02*
G54D13*
D03*
X225574Y628018D02*
G54D11*
D03*
X250974Y628018D02*
G54D11*
D03*
X276374Y628018D02*
G54D11*
D03*
X301774Y628018D02*
G54D11*
D03*
X327174Y628018D02*
G54D11*
D03*
X352574Y628018D02*
G54D11*
D03*
X377974Y628018D02*
G54D11*
D03*
X403374Y628018D02*
G54D11*
D03*
X428774Y628018D02*
G54D11*
D03*
X454174Y628018D02*
G54D11*
D03*
X479574Y628018D02*
G54D11*
D03*
X504974Y628018D02*
G54D11*
D03*
X530374Y628018D02*
G54D11*
D03*
X555773Y628018D02*
G54D11*
D03*
X581174Y628018D02*
G54D11*
D03*
X606574Y780418D02*
G54D13*
D03*
X200174Y628018D02*
G54D12*
D03*
X606574Y780418D02*
G54D12*
D03*
G36*
X159510Y923151D02*
X190510Y923151D01*
X190510Y892151D01*
X159510Y892151D01*
X159510Y923151D01*
G37*
X200411Y907651D02*
G54D14*
D03*
X225811Y907651D02*
G54D14*
D03*
X251211Y907651D02*
G54D14*
D03*
X276611Y907651D02*
G54D14*
D03*
X302011Y907651D02*
G54D14*
D03*
X327411Y907651D02*
G54D15*
D03*
X352811Y907651D02*
G54D15*
D03*
X378211Y907651D02*
G54D15*
D03*
X403611Y907651D02*
G54D15*
D03*
X429011Y907651D02*
G54D14*
D03*
G54D16*
X454411Y914401D02*
X454411Y900901D01*
G54D16*
X479811Y914401D02*
X479811Y900901D01*
X505211Y907651D02*
G54D14*
D03*
X530611Y907651D02*
G54D14*
D03*
X556011Y907651D02*
G54D14*
D03*
X100012Y358051D02*
G54D17*
D03*
X100012Y908050D02*
G54D17*
D03*
X103585Y844947D02*
G54D18*
D03*
X103584Y794146D02*
G54D18*
D03*
X154384Y819547D02*
G54D18*
D03*
X606574Y628018D02*
G54D12*
D03*
G36*
X203174Y892971D02*
X203215Y894111D01*
X203345Y895121D01*
X203535Y896041D01*
X203805Y896851D01*
X204125Y897581D01*
X204505Y898231D01*
X204925Y898821D01*
X205384Y899351D01*
X205875Y899831D01*
X206395Y900271D01*
X200405Y912401D01*
X194445Y900261D01*
X194965Y899821D01*
X195455Y899341D01*
X195915Y898811D01*
X196335Y898231D01*
X196715Y897581D01*
X197045Y896851D01*
X197305Y896031D01*
X197504Y895121D01*
X197635Y894101D01*
X197675Y892971D01*
X203174Y892971D01*
G37*
G54D10*
X203174Y892971D02*
X203215Y894111D01*
X203345Y895121D01*
X203535Y896041D01*
X203805Y896851D01*
X204125Y897581D01*
X204505Y898231D01*
X204925Y898821D01*
X205384Y899351D01*
X205875Y899831D01*
X206395Y900271D01*
X200405Y912401D01*
X194445Y900261D01*
X194965Y899821D01*
X195455Y899341D01*
X195915Y898811D01*
X196335Y898231D01*
X196715Y897581D01*
X197045Y896851D01*
X197305Y896031D01*
X197504Y895121D01*
X197635Y894101D01*
X197675Y892971D01*
X203174Y892971D01*
G36*
X227824Y889001D02*
X227915Y891131D01*
X228185Y892891D01*
X228595Y894371D01*
X229155Y895631D01*
X229815Y896771D01*
X230585Y897851D01*
X231415Y898962D01*
X232315Y900171D01*
X233245Y901551D01*
X234195Y903181D01*
X225805Y912401D01*
X217435Y903171D01*
X218385Y901541D01*
X219325Y900161D01*
X220215Y898962D01*
X221055Y897851D01*
X221825Y896771D01*
X222495Y895631D01*
X223045Y894361D01*
X223464Y892891D01*
X223735Y891121D01*
X223825Y889001D01*
X227824Y889001D01*
G37*
G54D10*
X227824Y889001D02*
X227915Y891131D01*
X228185Y892891D01*
X228595Y894371D01*
X229155Y895631D01*
X229815Y896771D01*
X230585Y897851D01*
X231415Y898962D01*
X232315Y900171D01*
X233245Y901551D01*
X234195Y903181D01*
X225805Y912401D01*
X217435Y903171D01*
X218385Y901541D01*
X219325Y900161D01*
X220215Y898962D01*
X221055Y897851D01*
X221825Y896771D01*
X222495Y895631D01*
X223045Y894361D01*
X223464Y892891D01*
X223735Y891121D01*
X223825Y889001D01*
X227824Y889001D01*
G36*
X455915Y894201D02*
X455985Y895761D01*
X456175Y897051D01*
X456485Y898131D01*
X456885Y899061D01*
X457365Y899892D01*
X457915Y900681D01*
X458525Y901501D01*
X459155Y902411D01*
X459815Y903461D01*
X460484Y904711D01*
X454415Y911021D01*
X448335Y904711D01*
X449005Y903461D01*
X449665Y902411D01*
X450305Y901501D01*
X450905Y900681D01*
X451455Y899892D01*
X451945Y899061D01*
X452344Y898131D01*
X452655Y897051D01*
X452845Y895761D01*
X452915Y894201D01*
X455915Y894201D01*
G37*
G54D10*
X455915Y894201D02*
X455985Y895761D01*
X456175Y897051D01*
X456485Y898131D01*
X456885Y899061D01*
X457365Y899892D01*
X457915Y900681D01*
X458525Y901501D01*
X459155Y902411D01*
X459815Y903461D01*
X460484Y904711D01*
X454415Y911021D01*
X448335Y904711D01*
X449005Y903461D01*
X449665Y902411D01*
X450305Y901501D01*
X450905Y900681D01*
X451455Y899892D01*
X451945Y899061D01*
X452344Y898131D01*
X452655Y897051D01*
X452845Y895761D01*
X452915Y894201D01*
X455915Y894201D01*
G36*
X481325Y894191D02*
X481395Y895761D01*
X481585Y897051D01*
X481895Y898131D01*
X482295Y899051D01*
X482775Y899892D01*
X483325Y900681D01*
X483935Y901511D01*
X484565Y902411D01*
X485225Y903461D01*
X485895Y904721D01*
X479805Y911021D01*
X473744Y904701D01*
X474415Y903451D01*
X475075Y902401D01*
X475715Y901501D01*
X476315Y900681D01*
X476865Y899881D01*
X477344Y899051D01*
X477755Y898121D01*
X478055Y897051D01*
X478255Y895751D01*
X478325Y894191D01*
X481325Y894191D01*
G37*
G54D10*
X481325Y894191D02*
X481395Y895761D01*
X481585Y897051D01*
X481895Y898131D01*
X482295Y899051D01*
X482775Y899892D01*
X483325Y900681D01*
X483935Y901511D01*
X484565Y902411D01*
X485225Y903461D01*
X485895Y904721D01*
X479805Y911021D01*
X473744Y904701D01*
X474415Y903451D01*
X475075Y902401D01*
X475715Y901501D01*
X476315Y900681D01*
X476865Y899881D01*
X477344Y899051D01*
X477755Y898121D01*
X478055Y897051D01*
X478255Y895751D01*
X478325Y894191D01*
X481325Y894191D01*
G36*
X478078Y793871D02*
X478006Y792311D01*
X477818Y791021D01*
X477508Y789941D01*
X477108Y789011D01*
X476618Y788181D01*
X476068Y787391D01*
X475468Y786571D01*
X474828Y785661D01*
X474168Y784611D01*
X473498Y783361D01*
X479578Y777041D01*
X485648Y783361D01*
X484978Y784611D01*
X484316Y785661D01*
X483688Y786571D01*
X483078Y787391D01*
X482528Y788181D01*
X482048Y789011D01*
X481648Y789941D01*
X481338Y791021D01*
X481146Y792311D01*
X481078Y793871D01*
X478078Y793871D01*
G37*
G54D10*
X478078Y793871D02*
X478006Y792311D01*
X477818Y791021D01*
X477508Y789941D01*
X477108Y789011D01*
X476618Y788181D01*
X476068Y787391D01*
X475468Y786571D01*
X474828Y785661D01*
X474168Y784611D01*
X473498Y783361D01*
X479578Y777041D01*
X485648Y783361D01*
X484978Y784611D01*
X484316Y785661D01*
X483688Y786571D01*
X483078Y787391D01*
X482528Y788181D01*
X482048Y789011D01*
X481648Y789941D01*
X481338Y791021D01*
X481146Y792311D01*
X481078Y793871D01*
X478078Y793871D01*
G36*
X375978Y793871D02*
X375918Y792331D01*
X375758Y791042D01*
X375506Y789961D01*
X375168Y789031D01*
X374748Y788181D01*
X374268Y787371D01*
X373738Y786541D01*
X373158Y785631D01*
X372538Y784591D01*
X371898Y783361D01*
X377976Y777041D01*
X384048Y783361D01*
X383408Y784591D01*
X382788Y785631D01*
X382208Y786541D01*
X381678Y787371D01*
X381198Y788181D01*
X380788Y789031D01*
X380446Y789961D01*
X380198Y791042D01*
X380038Y792331D01*
X379978Y793871D01*
X375978Y793871D01*
G37*
G54D10*
X375978Y793871D02*
X375918Y792331D01*
X375758Y791042D01*
X375506Y789961D01*
X375168Y789031D01*
X374748Y788181D01*
X374268Y787371D01*
X373738Y786541D01*
X373158Y785631D01*
X372538Y784591D01*
X371898Y783361D01*
X377976Y777041D01*
X384048Y783361D01*
X383408Y784591D01*
X382788Y785631D01*
X382208Y786541D01*
X381678Y787371D01*
X381198Y788181D01*
X380788Y789031D01*
X380446Y789961D01*
X380198Y791042D01*
X380038Y792331D01*
X379978Y793871D01*
X375978Y793871D01*
G36*
X347118Y789741D02*
X347378Y788931D01*
X347548Y788192D01*
X347638Y787511D01*
X347668Y786871D01*
X347628Y786281D01*
X347528Y785741D01*
X347388Y785221D01*
X347198Y784732D01*
X346978Y784261D01*
X346728Y783802D01*
X353706Y777241D01*
X354948Y786731D01*
X354468Y786931D01*
X353998Y787151D01*
X353538Y787411D01*
X353108Y787721D01*
X352678Y788091D01*
X352278Y788521D01*
X351898Y789031D01*
X351538Y789621D01*
X351198Y790301D01*
X350888Y791091D01*
X347118Y789741D01*
G37*
G54D10*
X347118Y789741D02*
X347378Y788931D01*
X347548Y788192D01*
X347638Y787511D01*
X347668Y786871D01*
X347628Y786281D01*
X347528Y785741D01*
X347388Y785221D01*
X347198Y784732D01*
X346978Y784261D01*
X346728Y783802D01*
X353706Y777241D01*
X354948Y786731D01*
X354468Y786931D01*
X353998Y787151D01*
X353538Y787411D01*
X353108Y787721D01*
X352678Y788091D01*
X352278Y788521D01*
X351898Y789031D01*
X351538Y789621D01*
X351198Y790301D01*
X350888Y791091D01*
X347118Y789741D01*
G36*
X507888Y614602D02*
X507908Y616121D01*
X507998Y617391D01*
X508158Y618481D01*
X508398Y619441D01*
X508698Y620301D01*
X509058Y621141D01*
X509478Y621991D01*
X509956Y622911D01*
X510498Y623941D01*
X511086Y625152D01*
X504926Y631391D01*
X498938Y625001D01*
X499558Y623811D01*
X500118Y622791D01*
X500618Y621881D01*
X501068Y621041D01*
X501448Y620221D01*
X501768Y619361D01*
X502018Y618411D01*
X502208Y617321D01*
X502328Y616051D01*
X502388Y614531D01*
X507888Y614602D01*
G37*
G54D10*
X507888Y614602D02*
X507908Y616121D01*
X507998Y617391D01*
X508158Y618481D01*
X508398Y619441D01*
X508698Y620301D01*
X509058Y621141D01*
X509478Y621991D01*
X509956Y622911D01*
X510498Y623941D01*
X511086Y625152D01*
X504926Y631391D01*
X498938Y625001D01*
X499558Y623811D01*
X500118Y622791D01*
X500618Y621881D01*
X501068Y621041D01*
X501448Y620221D01*
X501768Y619361D01*
X502018Y618411D01*
X502208Y617321D01*
X502328Y616051D01*
X502388Y614531D01*
X507888Y614602D01*
X479574Y853443D02*
G54D11*
D03*
X268833Y853443D02*
G54D11*
D03*
X454174Y833202D02*
G54D11*
D03*
X319236Y833202D02*
G54D11*
D03*
X100012Y358051D02*
G54D17*
D03*
X100012Y908050D02*
G54D17*
D03*
X1030013Y908050D02*
G54D17*
D03*
X1030013Y358051D02*
G54D17*
D03*
X100012Y358051D02*
G54D17*
D03*
X100012Y908050D02*
G54D17*
D03*
X1030013Y908050D02*
G54D17*
D03*
X1030013Y358051D02*
G54D17*
D03*
X472033Y878446D02*
G54D11*
D03*
X352574Y878446D02*
G54D11*
D03*
X138906Y751681D02*
G54D14*
D03*
X138906Y726281D02*
G54D14*
D03*
X138906Y700881D02*
G54D14*
D03*
X138906Y675481D02*
G54D14*
D03*
X138905Y650081D02*
G54D14*
D03*
X1041441Y723859D02*
G54D19*
D03*
X1041441Y685759D02*
G54D20*
D03*
X1041441Y740759D02*
G54D21*
D03*
X796026Y759428D02*
G54D11*
D03*
X796026Y734028D02*
G54D11*
D03*
X796026Y708628D02*
G54D11*
D03*
X796026Y683228D02*
G54D11*
D03*
X872226Y759428D02*
G54D11*
D03*
X872226Y734028D02*
G54D11*
D03*
X872226Y708628D02*
G54D11*
D03*
X872226Y683228D02*
G54D11*
D03*
X768642Y708628D02*
G54D14*
D03*
X768642Y657829D02*
G54D14*
D03*
X769039Y784828D02*
G54D14*
D03*
X769039Y734028D02*
G54D14*
D03*
G54D22*
X796026Y734028D02*
X769039Y734028D01*
G54D23*
X796026Y708628D02*
X768642Y708628D01*
G54D24*
X796026Y759428D02*
X794438Y759428D01*
X769039Y784828D01*
X793248Y823722D02*
G54D25*
D03*
X875005Y823722D02*
G54D25*
D03*
G54D22*
X769039Y734028D02*
X723795Y728472D01*
X861510Y788797D02*
G54D14*
D03*
X810711Y788798D02*
G54D14*
D03*
X100012Y358051D02*
G54D17*
D03*
X100012Y908050D02*
G54D17*
D03*
X1030012Y908050D02*
G54D17*
D03*
X1030012Y358051D02*
G54D17*
D03*
G54D26*
X875005Y823722D02*
X985496Y798322D01*
X1046600Y740759D01*
G54D27*
X475457Y429688D02*
X475457Y411688D01*
G54D27*
X500956Y429688D02*
X500956Y411688D01*
G54D27*
X526456Y429688D02*
X526456Y411688D01*
X107550Y497681D02*
G54D28*
D03*
X107550Y446881D02*
G54D28*
D03*
X167081Y434578D02*
G54D14*
D03*
X167081Y485378D02*
G54D14*
D03*
X204607Y350282D02*
G54D29*
D03*
X204608Y401082D02*
G54D29*
D03*
G54D27*
X610197Y429688D02*
X610197Y411688D01*
G54D27*
X635696Y429688D02*
X635696Y411688D01*
G54D27*
X661197Y429688D02*
X661197Y411688D01*
X413938Y397269D02*
G54D25*
D03*
X413938Y347269D02*
G54D25*
D03*
X684108Y336360D02*
G54D14*
D03*
X684108Y387160D02*
G54D14*
D03*
X493515Y361554D02*
G54D14*
D03*
X544316Y361554D02*
G54D14*
D03*
X287554Y450689D02*
G54D11*
D03*
X205798Y450689D02*
G54D11*
D03*
X353250Y430006D02*
G54D11*
D03*
X353250Y348250D02*
G54D11*
D03*
X635591Y361554D02*
G54D25*
D03*
X585591Y361554D02*
G54D25*
D03*
X504974Y587934D02*
G54D14*
D03*
X555773Y587934D02*
G54D14*
D03*
G54D24*
X504974Y587934D02*
X504974Y628018D01*
G54D30*
X872417Y759619D02*
X872226Y759428D01*
X861510Y788797D01*
X389821Y492286D02*
G54D11*
D03*
X364421Y492286D02*
G54D11*
D03*
X441077Y592696D02*
G54D11*
D03*
X441077Y510940D02*
G54D11*
D03*
X575618Y543881D02*
G54D11*
D03*
X493861Y543880D02*
G54D11*
D03*
X470843Y583171D02*
G54D11*
D03*
X470843Y501414D02*
G54D11*
D03*
X364421Y462124D02*
G54D14*
D03*
X415221Y462124D02*
G54D14*
D03*
G54D31*
X470843Y498636D02*
X470843Y501414D01*
X415221Y459346D01*
X462651Y722915D02*
G54D14*
D03*
X544408Y722915D02*
G54D14*
D03*
G54D30*
X479574Y780418D02*
X479574Y853443D01*
G54D31*
X251211Y907651D02*
X268833Y853443D01*
G54D31*
X454174Y780418D02*
X454174Y833202D01*
G54D31*
X302011Y907651D02*
X319236Y833202D01*
G54D31*
X428774Y780418D02*
X428774Y907414D01*
X429011Y907651D01*
G54D24*
X352574Y780418D02*
X352574Y878446D01*
G54D24*
X377974Y780418D02*
X377974Y881695D01*
X377814Y881854D01*
G54D24*
X138906Y751681D02*
X196837Y751681D01*
X225574Y780418D01*
G54D24*
X138906Y726281D02*
X226219Y726281D01*
X276225Y776288D01*
G54D24*
X138906Y700881D02*
X158121Y700881D01*
X167277Y710038D01*
X239741Y710038D01*
X302022Y772319D01*
G54D24*
X138906Y675481D02*
X157162Y675481D01*
X175419Y693738D01*
X249238Y693738D01*
X327025Y771525D01*
G54D24*
X154384Y819547D02*
X186134Y819547D01*
X226616Y860028D01*
X226616Y906846D01*
X225811Y907651D01*
G54D32*
X547290Y690166D02*
X669528Y720328D01*
X681434Y723900D01*
X690562Y727869D01*
X700088Y730250D01*
X708422Y730250D01*
X723795Y728472D01*
X906502Y591309D02*
G54D11*
D03*
G54D33*
X769039Y784828D02*
X769039Y792368D01*
X793248Y823722D01*
X108659Y560817D02*
G54D11*
D03*
X134059Y560817D02*
G54D11*
D03*
X749682Y857623D02*
G54D18*
D03*
X698882Y857624D02*
G54D18*
D03*
X724282Y806824D02*
G54D18*
D03*
X699722Y789575D02*
G54D11*
D03*
X699722Y707819D02*
G54D11*
D03*
G54D23*
X699325Y707819D02*
X765880Y707819D01*
X768642Y705056D01*
X674322Y780844D02*
G54D11*
D03*
X674322Y699088D02*
G54D11*
D03*
X587667Y828087D02*
G54D14*
D03*
X669424Y828087D02*
G54D14*
D03*
G54D34*
X403374Y780418D02*
X403374Y886867D01*
X391716Y898525D01*
X391716Y918369D01*
X398462Y925116D01*
X441325Y925116D01*
X452438Y914003D01*
G54D34*
X377974Y778830D02*
X377974Y884089D01*
X366316Y895747D01*
X366316Y927894D01*
X374253Y935831D01*
X458391Y935831D01*
X479028Y915194D01*
G54D24*
X472033Y878446D02*
X483555Y878446D01*
X505222Y900112D01*
X300186Y809390D02*
G54D11*
D03*
X543868Y809390D02*
G54D35*
D03*
G54D31*
X300186Y809390D02*
X274402Y809390D01*
X250825Y785812D01*
G54D36*
X462651Y723709D02*
X335359Y668734D01*
X326231Y661591D01*
X311150Y648097D01*
X304403Y638175D01*
X301625Y628167D01*
X301774Y628018D01*
G54D37*
X544408Y723709D02*
X613172Y753269D01*
X627459Y766366D01*
X628650Y866775D01*
X642938Y888206D01*
X672599Y896746D01*
G54D38*
X543868Y809390D02*
X587667Y828087D01*
X105966Y660003D02*
G54D14*
D03*
X105966Y620712D02*
G54D14*
D03*
G54D24*
X105966Y660003D02*
X105966Y810022D01*
X167084Y871141D01*
X188912Y871141D01*
X200422Y882650D01*
X200411Y907651D01*
X298270Y400286D02*
G54D39*
D03*
X298269Y343457D02*
G54D39*
D03*
G54D31*
X428774Y628018D02*
X437505Y592696D01*
G54D24*
X204607Y448307D02*
X204608Y401082D01*
X190416Y593757D02*
G54D11*
D03*
X108659Y593757D02*
G54D11*
D03*
X170476Y525699D02*
G54D14*
D03*
X170476Y551098D02*
G54D14*
D03*
G54D24*
X108659Y590979D02*
X107950Y561525D01*
X108659Y560817D01*
G54D24*
X170476Y551892D02*
X134059Y560817D01*
G54D24*
X661197Y410766D02*
X661197Y504028D01*
X598884Y566341D01*
X526567Y566341D01*
X504974Y587934D01*
G54D24*
X190416Y593757D02*
X225574Y628018D01*
G54D24*
X364421Y492286D02*
X364421Y459346D01*
G54D40*
X465533Y690166D02*
X422808Y662882D01*
X396875Y659606D01*
X373459Y652859D01*
X352822Y633412D01*
G54D31*
X661197Y420688D02*
X661197Y410071D01*
X684108Y387160D01*
X684212Y509191D02*
G54D14*
D03*
G54D33*
X561975Y416719D02*
X561975Y495300D01*
X571897Y505222D01*
X723795Y728472D02*
G54D11*
D03*
X723795Y626872D02*
G54D11*
D03*
G54D32*
X977503Y616744D02*
X739876Y617141D01*
X723001Y628460D01*
X568722Y509191D02*
G54D14*
D03*
G54D24*
X669424Y828087D02*
X698882Y856433D01*
X648494Y623094D02*
G54D14*
D03*
X648494Y738188D02*
G54D14*
D03*
X672599Y896746D02*
G54D11*
D03*
X465533Y690166D02*
G54D14*
D03*
X547290Y690166D02*
G54D14*
D03*
X377974Y587934D02*
G54D14*
D03*
G54D31*
X377974Y628018D02*
X377974Y587934D01*
X346224Y587537D02*
G54D11*
D03*
X269627Y587537D02*
G54D11*
D03*
G54D41*
X327174Y628018D02*
X345033Y590712D01*
G54D22*
X269627Y590712D02*
X269627Y595871D01*
X285750Y609203D01*
X301774Y628018D01*
G54D24*
X504974Y628018D02*
X504974Y718989D01*
X487430Y733709D01*
X480219Y738981D01*
X466328Y743744D01*
X454819Y742553D01*
X392906Y721916D01*
X369094Y713184D01*
X344091Y698897D01*
X290909Y664369D01*
X192881Y664369D01*
X149225Y620712D01*
X105966Y620712D01*
G54D24*
X389821Y492286D02*
X393790Y506502D01*
X401638Y511969D01*
X424259Y512762D01*
X441077Y510940D01*
X437505Y510940D01*
X493861Y543880D01*
G54D26*
X107550Y446881D02*
X167081Y485378D01*
G54D31*
X205798Y450689D02*
X202226Y403464D01*
X204608Y401082D01*
G54D31*
X167081Y434578D02*
X202784Y446484D01*
X204607Y448307D01*
G54D31*
X204608Y401082D02*
X297870Y401082D01*
X298270Y400682D01*
X312105Y400682D01*
X321072Y391716D01*
X408384Y391716D01*
X413938Y397269D01*
G54D31*
X413938Y397269D02*
X452038Y397269D01*
X475457Y420688D01*
G54D33*
X684108Y387160D02*
X661197Y410071D01*
X661197Y504028D01*
X598884Y566341D01*
X526567Y566341D01*
X504974Y587934D01*
X504974Y628018D01*
G54D31*
X648494Y623094D02*
X648494Y516731D01*
X661197Y504028D01*
G54D24*
X410236Y563264D02*
X410236Y560486D01*
X479822Y560388D01*
X502841Y583406D01*
G54D31*
X437505Y592696D02*
X470843Y583171D01*
X410236Y533896D02*
G54D42*
D03*
X410236Y560486D02*
G54D42*
D03*
G54D24*
X364421Y492286D02*
X365849Y492286D01*
X385762Y525066D01*
X393700Y531416D01*
X410236Y533896D01*
X410236Y536674D01*
G54D23*
X346224Y587537D02*
X332568Y450689D01*
G54D33*
X286364Y450689D02*
X332568Y450689D01*
X353250Y430006D01*
G54D31*
X526456Y420688D02*
X526456Y379413D01*
X544316Y361554D01*
G54D31*
X526456Y420688D02*
X610197Y420688D01*
G54D31*
X585591Y361554D02*
X585591Y393103D01*
X561975Y416719D01*
X603636Y877092D02*
G54D43*
D03*
X521880Y877092D02*
G54D43*
D03*
G54D24*
X648494Y736600D02*
X648494Y861616D01*
X661988Y875109D01*
X680037Y875109D01*
X693674Y888746D01*
X693674Y910098D01*
X687388Y916384D01*
X642929Y916384D01*
X603636Y877092D01*
G54D24*
X530611Y907651D02*
X521880Y877092D01*
G54D30*
X674322Y780844D02*
X699325Y789575D01*
X724282Y805633D01*
X749682Y856433D01*
G36*
X751284Y941784D02*
X751284Y890191D01*
X804466Y833041D01*
X984250Y833041D01*
X984250Y941784D01*
X985044Y942578D01*
X993775Y942578D01*
X993775Y817959D01*
X986631Y810816D01*
X898128Y810816D01*
X875005Y816578D01*
X793248Y816578D01*
X740158Y870323D01*
X740158Y942961D01*
X740172Y942975D01*
X750094Y942975D01*
X751284Y941784D01*
G37*
G36*
X890191Y622697D02*
X835422Y622697D01*
X835422Y825103D01*
X890191Y825103D01*
X890191Y622697D01*
G37*
G36*
X1041797Y705247D02*
X1063625Y705247D01*
X1063625Y717153D01*
X1041797Y717153D01*
X1041797Y705247D01*
G37*
G36*
X982662Y783034D02*
X883047Y783034D01*
X882650Y800497D01*
X982662Y800497D01*
X982662Y783034D01*
G37*
G36*
X1066006Y746522D02*
X1032272Y746522D01*
X1032272Y940197D01*
X1066006Y940197D01*
X1066006Y746522D01*
G37*
G36*
X1039019Y764381D02*
X1013619Y764381D01*
X1013619Y820738D01*
X1039019Y820738D01*
X1039019Y764381D01*
G37*
G36*
X1038622Y786606D02*
X989409Y786606D01*
X989409Y833438D01*
X1038622Y833438D01*
X1038622Y786606D01*
G37*
G36*
X997744Y800497D02*
X980281Y800497D01*
X980281Y820738D01*
X997744Y820738D01*
X997744Y800497D01*
G37*
G36*
X1048147Y817959D02*
X993775Y817959D01*
X993775Y942578D01*
X1048147Y942578D01*
X1048147Y817959D01*
G37*
G36*
X980281Y625475D02*
X980281Y577453D01*
X978694Y575866D01*
X919956Y575866D01*
X874712Y542131D01*
X874712Y323453D01*
X906066Y322659D01*
X906462Y322262D01*
X906462Y541734D01*
X925909Y561181D01*
X983853Y561181D01*
X990997Y568325D01*
X990997Y635000D01*
X980281Y625475D01*
G37*
G36*
X1062038Y660003D02*
X1016397Y660003D01*
X1016397Y666353D01*
X1061244Y666353D01*
X1062038Y660003D01*
G37*
G36*
X1016397Y660003D02*
X981075Y624284D01*
X889794Y624284D01*
X889397Y631428D01*
X977106Y631428D01*
X1009650Y663972D01*
X1016397Y660003D01*
G37*
G36*
X1016397Y666353D02*
X1012031Y666353D01*
X1009650Y663972D01*
X1009650Y661194D01*
X1012428Y658416D01*
X1014809Y658416D01*
X1016397Y660003D01*
X1016794Y660003D01*
X1018381Y661591D01*
X1018381Y664369D01*
X1016397Y666353D01*
G37*
G36*
X756047Y603647D02*
X684212Y603647D01*
X684212Y644525D01*
X756047Y644525D01*
X756047Y603647D01*
G37*
G36*
X750491Y627459D02*
X700484Y627459D01*
X700484Y662781D01*
X758428Y662781D01*
X750491Y627459D01*
G37*
G36*
X762794Y636984D02*
X746919Y636984D01*
X746919Y652066D01*
X762794Y652066D01*
X762794Y636984D01*
G37*
G36*
X796026Y708628D02*
X723795Y708628D01*
X723795Y728472D01*
X796026Y728472D01*
X796026Y708628D01*
G37*
G36*
X787400Y743744D02*
X752078Y743744D01*
X752078Y840978D01*
X787400Y840978D01*
X787400Y743744D01*
G37*
G36*
X776288Y814784D02*
X749682Y814784D01*
X749682Y857623D01*
X776288Y857623D01*
X776288Y814784D01*
G37*
G36*
X759619Y729853D02*
X716359Y729853D01*
X716359Y767953D01*
X759619Y767953D01*
X759619Y729853D01*
G37*
G36*
X723795Y728472D02*
X660003Y728472D01*
X660003Y763984D01*
X723795Y763984D01*
X723795Y728472D01*
G37*
G36*
X677466Y719931D02*
X648494Y719931D01*
X648494Y736600D01*
X677466Y736600D01*
X677466Y719931D01*
G37*
G36*
X730250Y741362D02*
X655241Y741362D01*
X655241Y798512D01*
X730250Y798512D01*
X730250Y741362D01*
G37*
G36*
X752475Y765969D02*
X732631Y765969D01*
X732631Y833041D01*
X752475Y833041D01*
X752475Y765969D01*
G37*
G36*
X654447Y785416D02*
X741362Y785416D01*
X741362Y922734D01*
X654447Y922734D01*
X654447Y785416D01*
G37*
G36*
X744141Y754856D02*
X730250Y754856D01*
X730250Y787797D01*
X744141Y787797D01*
X744141Y754856D01*
G37*
G36*
X628650Y866775D02*
X616347Y866775D01*
X616347Y886619D01*
X628650Y886619D01*
X628650Y866775D01*
G37*
G36*
X658019Y891778D02*
X639762Y891778D01*
X639762Y908844D01*
X658019Y908844D01*
X658019Y891778D01*
G37*
G36*
X681038Y926306D02*
X743347Y926306D01*
X743347Y908447D01*
X681038Y908447D01*
X681038Y926306D01*
G37*
G36*
X721519Y906859D02*
X740172Y906859D01*
X740172Y942975D01*
X721519Y942975D01*
X721519Y906859D01*
G37*
G54D33*
X684212Y509191D02*
X684212Y640556D01*
X695325Y651669D01*
X737791Y651669D01*
X752078Y637381D01*
X835819Y637381D01*
X848519Y650081D01*
X848519Y743347D01*
X867172Y762000D01*
X225689Y557311D02*
G54D11*
D03*
X225689Y583902D02*
G54D11*
D03*
X255168Y497697D02*
G54D18*
D03*
X305969Y497696D02*
G54D18*
D03*
X280568Y548496D02*
G54D18*
D03*
X216164Y487461D02*
G54D11*
D03*
X216164Y514052D02*
G54D11*
D03*
G54D31*
X216164Y514052D02*
X236829Y514052D01*
X255168Y497697D01*
G54D31*
X269627Y587537D02*
X269627Y559438D01*
X280568Y548496D01*
X411708Y588330D02*
G54D14*
D03*
G54D31*
X403374Y628018D02*
X411708Y588330D01*
G54D24*
X149225Y620712D02*
X149225Y598091D01*
X173434Y573881D01*
X202803Y573881D01*
X214312Y581819D01*
X225689Y583902D01*
X225689Y588664D01*
X225391Y585391D01*
X225689Y585092D01*
G54D31*
X170476Y521333D02*
X192092Y530461D01*
X225689Y557311D01*
X458391Y369491D02*
G54D44*
D03*
G54D30*
X458391Y369491D02*
X458391Y390916D01*
X452038Y397269D01*
X715566Y395684D02*
G54D45*
D03*
G54D30*
X715566Y395684D02*
X692632Y395684D01*
X684108Y387160D01*
G54D30*
X684108Y387160D02*
X661197Y410071D01*
G36*
X377974Y780418D02*
X352574Y780418D01*
X352574Y878446D01*
X377974Y878446D01*
X377974Y780418D01*
G37*
G36*
X403374Y780418D02*
X374253Y780418D01*
X374253Y929878D01*
X403374Y929878D01*
X403374Y780418D01*
G37*
G36*
X428774Y780418D02*
X397669Y780418D01*
X397669Y921147D01*
X428774Y921147D01*
X428774Y780418D01*
G37*
G36*
X479574Y780418D02*
X415131Y780418D01*
X415131Y908050D01*
X479574Y908050D01*
X479574Y780418D01*
G37*
G36*
X352574Y780418D02*
X309166Y780418D01*
X309166Y942181D01*
X352574Y942181D01*
X352574Y780418D01*
G37*
G36*
X313134Y788591D02*
X277019Y788591D01*
X277019Y798116D01*
X313134Y798116D01*
X313134Y788591D01*
G37*
G36*
X294878Y794544D02*
X278606Y794544D01*
X278606Y801688D01*
X294878Y801688D01*
X294878Y794544D01*
G37*
G36*
X377974Y884089D02*
X342900Y884089D01*
X342900Y943372D01*
X377974Y943372D01*
X377974Y884089D01*
G37*
G36*
X153194Y806450D02*
X112316Y806450D01*
X112316Y823119D01*
X153194Y823119D01*
X153194Y806450D01*
G37*
G36*
X154384Y819547D02*
X130572Y819547D01*
X130572Y833438D01*
X154384Y833438D01*
X154384Y819547D01*
G37*
G36*
X186134Y819547D02*
X141288Y819547D01*
X141288Y851694D01*
X186134Y851694D01*
X186134Y819547D01*
G37*
G36*
X206772Y833041D02*
X162322Y833041D01*
X162322Y862806D01*
X206772Y862806D01*
X206772Y833041D01*
G37*
G36*
X219075Y852884D02*
X200411Y852884D01*
X200411Y907651D01*
X219075Y907651D01*
X219075Y852884D01*
G37*
G36*
X200411Y852884D02*
X192881Y852884D01*
X192881Y866775D01*
X200411Y866775D01*
X200411Y852884D01*
G37*
G36*
X226219Y726281D02*
X138906Y726281D01*
X138906Y751681D01*
X226219Y751681D01*
X226219Y726281D01*
G37*
G36*
X246856Y731441D02*
X209550Y731441D01*
X209550Y767159D01*
X246856Y767159D01*
X246856Y731441D01*
G37*
G36*
X253603Y757238D02*
X225574Y757238D01*
X225574Y780418D01*
X253603Y780418D01*
X253603Y757238D01*
G37*
G36*
X257969Y712788D02*
X222250Y712788D01*
X222250Y738584D01*
X257969Y738584D01*
X257969Y712788D01*
G37*
G36*
X288131Y734219D02*
X241697Y734219D01*
X241697Y767159D01*
X288131Y767159D01*
X288131Y734219D01*
G37*
G36*
X165497Y678259D02*
X144859Y678259D01*
X144859Y717153D01*
X165497Y717153D01*
X165497Y678259D01*
G37*
G36*
X410236Y533896D02*
X343694Y533896D01*
X343694Y620712D01*
X410236Y620712D01*
X410236Y533896D01*
G37*
G36*
X462756Y563562D02*
X404812Y563562D01*
X404812Y581422D01*
X462756Y581422D01*
X462756Y563562D01*
G37*
G36*
X434975Y579834D02*
X408781Y579834D01*
X408781Y617538D01*
X434975Y617538D01*
X434975Y579834D01*
G37*
G36*
X491331Y581025D02*
X437356Y581025D01*
X437356Y620316D01*
X491331Y620316D01*
X491331Y581025D01*
G37*
G36*
X504974Y587934D02*
X479574Y587934D01*
X479574Y628018D01*
X504974Y628018D01*
X504974Y587934D01*
G37*
G36*
X379412Y480616D02*
X343694Y480616D01*
X343694Y542131D01*
X379412Y542131D01*
X379412Y480616D01*
G37*
G36*
X367109Y433784D02*
X341709Y433784D01*
X341709Y491728D01*
X367109Y491728D01*
X367109Y433784D01*
G37*
G36*
X410369Y508000D02*
X370681Y508000D01*
X370681Y541734D01*
X410369Y541734D01*
X410369Y508000D01*
G37*
G36*
X441077Y510940D02*
X399653Y510940D01*
X399653Y557212D01*
X441077Y557212D01*
X441077Y510940D01*
G37*
G36*
X470843Y501414D02*
X431800Y501414D01*
X431800Y559991D01*
X470843Y559991D01*
X470843Y501414D01*
G37*
G36*
X426641Y477044D02*
X451247Y477044D01*
X451247Y515541D01*
X426641Y515541D01*
X426641Y477044D01*
G37*
G36*
X379016Y463947D02*
X371078Y463947D01*
X371078Y486172D01*
X379016Y486172D01*
X379016Y463947D01*
G37*
G36*
X481012Y531416D02*
X461962Y531416D01*
X461962Y554038D01*
X481012Y554038D01*
X481012Y531416D01*
G37*
G36*
X684212Y509191D02*
X651669Y509191D01*
X651669Y635000D01*
X684212Y635000D01*
X684212Y509191D01*
G37*
G36*
X504974Y628018D02*
X352822Y628018D01*
X352822Y712391D01*
X504974Y712391D01*
X504974Y628018D01*
G37*
G36*
X352574Y628018D02*
X326231Y628018D01*
X326231Y661591D01*
X352574Y661591D01*
X352574Y628018D01*
G37*
G36*
X356791Y643731D02*
X335359Y643731D01*
X335359Y668734D01*
X356791Y668734D01*
X356791Y643731D01*
G37*
G36*
X337344Y637778D02*
X318691Y637778D01*
X318691Y648097D01*
X337344Y648097D01*
X337344Y637778D01*
G37*
G36*
X498078Y702072D02*
X465534Y702072D01*
X465534Y736203D01*
X498078Y736203D01*
X498078Y702072D01*
G37*
G36*
X442516Y703659D02*
X389334Y703659D01*
X389334Y725884D01*
X442516Y725884D01*
X442516Y703659D01*
G37*
G36*
X360759Y669131D02*
X340519Y669131D01*
X340519Y693738D01*
X360759Y693738D01*
X360759Y669131D01*
G37*
G36*
X191294Y579438D02*
X165100Y579438D01*
X165100Y614362D01*
X191294Y614362D01*
X191294Y579438D01*
G37*
G36*
X176212Y590947D02*
X157162Y590947D01*
X157162Y621903D01*
X176212Y621903D01*
X176212Y590947D01*
G37*
G36*
X203200Y602853D02*
X163116Y602853D01*
X163116Y633809D01*
X203200Y633809D01*
X203200Y602853D01*
G37*
G36*
X276374Y628018D02*
X175816Y628018D01*
X175816Y650478D01*
X276374Y650478D01*
X276374Y628018D01*
G37*
G36*
X301774Y628018D02*
X190103Y628018D01*
X190103Y658019D01*
X301774Y658019D01*
X301774Y628018D01*
G37*
G36*
X329406Y644128D02*
X295672Y644128D01*
X295672Y670719D01*
X329406Y670719D01*
X329406Y644128D01*
G37*
G36*
X167084Y560388D02*
X108659Y560388D01*
X108659Y593757D01*
X167084Y593757D01*
X167084Y560388D01*
G37*
G36*
X144066Y581025D02*
X105966Y581025D01*
X105966Y620712D01*
X144066Y620712D01*
X144066Y581025D01*
G37*
G36*
X213122Y542528D02*
X173434Y542528D01*
X173434Y573881D01*
X213122Y573881D01*
X213122Y542528D01*
G37*
G36*
X192092Y530461D02*
X170476Y530461D01*
X170476Y551098D01*
X192092Y551098D01*
X192092Y530461D01*
G37*
G36*
X225689Y557311D02*
X202803Y557311D01*
X202803Y573881D01*
X225689Y573881D01*
X225689Y557311D01*
G37*
G36*
X267494Y565944D02*
X200174Y565944D01*
X200174Y628018D01*
X267494Y628018D01*
X267494Y565944D01*
G37*
G36*
X280194Y598488D02*
X250974Y598488D01*
X250974Y628018D01*
X280194Y628018D01*
X280194Y598488D01*
G37*
G36*
X332978Y597694D02*
X250974Y597694D01*
X250974Y628018D01*
X332978Y628018D01*
X332978Y597694D01*
G37*
G36*
X225028Y496491D02*
X244078Y496491D01*
X244078Y512762D01*
X225028Y512762D01*
X225028Y496491D01*
G37*
G54D31*
X458391Y369491D02*
X458391Y398066D01*
X472281Y411956D01*
G54D33*
X568722Y509191D02*
X568722Y409972D01*
X585591Y393103D01*
G54D31*
X526456Y420688D02*
X549672Y420688D01*
X562769Y433784D01*
X565944Y433784D01*
X578247Y421481D01*
X609404Y421481D01*
X610197Y420688D01*
G54D31*
X648097Y533400D02*
X631825Y533400D01*
X629841Y535384D01*
G54D46*
X149225Y608806D02*
X149225Y609997D01*
X138906Y620316D01*
X422808Y662882D02*
G54D14*
D03*
X504564Y662882D02*
G54D14*
D03*
G54D47*
X898546Y369356D02*
X900546Y370556D01*
X901546Y372956D01*
X901546Y375356D01*
X900546Y377756D01*
X898546Y378956D01*
X896546Y378956D01*
X894546Y377756D01*
X893546Y375356D01*
X892546Y377756D01*
X890546Y378956D01*
X888546Y378956D01*
X886546Y377756D01*
X885546Y375356D01*
X885546Y372956D01*
X886546Y370556D01*
X888546Y369356D01*
G54D47*
X885546Y394156D02*
X885546Y384556D01*
X886546Y384556D01*
X888546Y385756D01*
X894546Y392956D01*
X896546Y394156D01*
X898546Y394156D01*
X900546Y392956D01*
X901546Y390556D01*
X901546Y388156D01*
X900546Y385756D01*
X898546Y384556D01*
G54D47*
X898546Y409356D02*
X888546Y409356D01*
X886546Y408156D01*
X885546Y405756D01*
X885546Y403356D01*
X886546Y400956D01*
X888546Y399756D01*
X898546Y399756D01*
X900546Y400956D01*
X901546Y403356D01*
X901546Y405756D01*
X900546Y408156D01*
X898546Y409356D01*
G54D47*
X894546Y414956D02*
X885546Y419756D01*
X894546Y424556D01*
G54D47*
X887946Y437356D02*
X891946Y437356D01*
X893946Y436156D01*
X894546Y433756D01*
X893946Y431356D01*
X891946Y430156D01*
X887946Y430156D01*
X885946Y431356D01*
X885546Y433756D01*
X885946Y436156D01*
X887946Y437356D01*
G54D47*
X885546Y442956D02*
X901546Y442956D01*
G54D47*
X901546Y450956D02*
X886546Y450956D01*
X885546Y452156D01*
X885946Y453356D01*
G54D47*
X894546Y448556D02*
X894546Y453356D01*
G54D47*
X885546Y458956D02*
X885546Y458956D01*
G54D47*
X893946Y470556D02*
X894546Y468156D01*
X893946Y465756D01*
X891946Y464556D01*
X887946Y464556D01*
X885946Y465756D01*
X885546Y468156D01*
X885946Y470556D01*
G54D47*
X887946Y483356D02*
X891946Y483356D01*
X893946Y482156D01*
X894546Y479756D01*
X893946Y477356D01*
X891946Y476156D01*
X887946Y476156D01*
X885946Y477356D01*
X885546Y479756D01*
X885946Y482156D01*
X887946Y483356D01*
G54D47*
X885546Y488956D02*
X894546Y488956D01*
G54D47*
X892946Y488956D02*
X894546Y491356D01*
X893946Y493756D01*
X892546Y494956D01*
X885546Y494956D01*
G54D47*
X892946Y494956D02*
X894546Y497356D01*
X893946Y499756D01*
X892546Y500956D01*
X885546Y500956D01*
G36*
X65484Y244475D02*
X0Y244475D01*
X0Y1000125D01*
X65484Y1000125D01*
X65484Y244475D01*
G37*
G36*
X-56356Y942975D02*
X1137841Y942975D01*
X1137841Y999728D01*
X-56356Y999728D01*
X-56356Y942975D01*
G37*
G36*
X1984Y322659D02*
X1196975Y322659D01*
X1196975Y128588D01*
X1984Y128588D01*
X1984Y322659D01*
G37*
G36*
X1062038Y660003D02*
X1065609Y660003D01*
X1065609Y666353D01*
X1062038Y666353D01*
X1062038Y660003D01*
G37*
G36*
X1065609Y666353D02*
X1058862Y666353D01*
X1058862Y660003D01*
X1065609Y660003D01*
X1065609Y666353D01*
G37*
G36*
X1064816Y713184D02*
X1064419Y713184D01*
X1064419Y714772D01*
X1064816Y714772D01*
X1064816Y713184D01*
G37*
G36*
X1066006Y705247D02*
X1056481Y705247D01*
X1056481Y739378D01*
X1066006Y739378D01*
X1066006Y705247D01*
G37*
G36*
X532209Y690959D02*
X544408Y690959D01*
X544408Y722915D01*
X532209Y722915D01*
X532209Y690959D01*
G37*
G36*
X566738Y697309D02*
X544408Y697309D01*
X544408Y722915D01*
X566738Y722915D01*
X566738Y697309D01*
G37*
G36*
X606822Y705247D02*
X559991Y705247D01*
X559991Y725091D01*
X606822Y725091D01*
X606822Y705247D01*
G37*
G36*
X625475Y708422D02*
X575866Y708422D01*
X575866Y736600D01*
X625475Y736600D01*
X625475Y708422D01*
G37*
G36*
X648097Y714772D02*
X615553Y714772D01*
X615553Y762397D01*
X648097Y762397D01*
X648097Y714772D01*
G37*
G36*
X617538Y724694D02*
X606822Y724694D01*
X606822Y744141D01*
X617538Y744141D01*
X617538Y724694D01*
G37*
G36*
X498475Y767159D02*
X336550Y767159D01*
X336550Y774700D01*
X498475Y774700D01*
X498475Y767159D01*
G37*
G36*
X512762Y767159D02*
X599281Y767159D01*
X599281Y770731D01*
X512762Y770731D01*
X512762Y767159D01*
G37*
G36*
X588566Y754459D02*
X609596Y754459D01*
X609596Y772061D01*
X588566Y772061D01*
X588566Y754459D01*
G37*
G36*
X622697Y796925D02*
X514350Y796925D01*
X514350Y785019D01*
X622697Y785019D01*
X622697Y796925D01*
G37*
G36*
X487759Y797322D02*
X496094Y797322D01*
X496094Y787797D01*
X487759Y787797D01*
X487759Y797322D01*
G37*
G36*
X544909Y909241D02*
X447278Y909241D01*
X447278Y943372D01*
X544909Y943372D01*
X544909Y909241D01*
G37*
G36*
X603636Y877092D02*
X721519Y877092D01*
X721519Y942975D01*
X603636Y942975D01*
X603636Y877092D01*
G37*
G36*
X588169Y877094D02*
X627062Y877094D01*
X627062Y781447D01*
X588169Y781447D01*
X588169Y877094D01*
G37*
G36*
X606574Y780418D02*
X543868Y780418D01*
X543868Y809390D01*
X606574Y809390D01*
X606574Y780418D01*
G37*
G36*
X592931Y797719D02*
X570706Y797719D01*
X570706Y816769D01*
X592931Y816769D01*
X592931Y797719D01*
G37*
G36*
X704056Y696516D02*
X699722Y696516D01*
X699722Y707819D01*
X704056Y707819D01*
X704056Y696516D01*
G37*
G54D48*
X704056Y696516D02*
X699722Y696516D01*
X699722Y707819D01*
X704056Y707819D01*
X704056Y696516D01*
G36*
X699722Y696516D02*
X677466Y696516D01*
X677466Y719931D01*
X699722Y719931D01*
X699722Y696516D01*
G37*
G54D48*
X699722Y696516D02*
X677466Y696516D01*
X677466Y719931D01*
X699722Y719931D01*
X699722Y696516D01*
G36*
X582612Y346869D02*
X535384Y346869D01*
X535384Y412750D01*
X582612Y412750D01*
X582612Y346869D01*
G37*
G36*
X628253Y399653D02*
X579438Y399653D01*
X579438Y412353D01*
X628253Y412353D01*
X628253Y399653D01*
G37*
G36*
X641747Y400050D02*
X661197Y400050D01*
X661197Y410071D01*
X641747Y410071D01*
X641747Y400050D01*
G37*
G36*
X716756Y411162D02*
X663972Y411162D01*
X663972Y399653D01*
X716756Y399653D01*
X716756Y411162D01*
G37*
G36*
X713978Y381794D02*
X684108Y381794D01*
X684108Y387160D01*
X713978Y387160D01*
X713978Y381794D01*
G37*
G36*
X201612Y494109D02*
X234553Y494109D01*
X234553Y546100D01*
X201612Y546100D01*
X201612Y494109D01*
G37*
G36*
X225028Y494109D02*
X255168Y494109D01*
X255168Y497697D01*
X225028Y497697D01*
X225028Y494109D01*
G37*
G36*
X227409Y496491D02*
X241300Y496491D01*
X241300Y493712D01*
X227409Y493712D01*
X227409Y496491D01*
G37*
G36*
X271462Y497284D02*
X225689Y497284D01*
X225689Y583902D01*
X271462Y583902D01*
X271462Y497284D01*
G37*
G36*
X170259Y511175D02*
X232569Y511175D01*
X232569Y530225D01*
X170259Y530225D01*
X170259Y511175D01*
G37*
G36*
X107950Y545306D02*
X162719Y545306D01*
X162719Y562372D01*
X107950Y562372D01*
X107950Y545306D01*
G37*
G36*
X155178Y524669D02*
X170476Y524669D01*
X170476Y551098D01*
X155178Y551098D01*
X155178Y524669D01*
G37*
G36*
X521097Y862012D02*
X470297Y862012D01*
X470297Y901303D01*
X521097Y901303D01*
X521097Y862012D01*
G37*
G36*
X494903Y852091D02*
X486569Y852091D01*
X486569Y874712D01*
X494903Y874712D01*
X494903Y852091D01*
G37*
G36*
X611188Y939006D02*
X540147Y939006D01*
X540147Y942578D01*
X611188Y942578D01*
X611188Y939006D01*
G37*
G36*
X698103Y512366D02*
X682625Y512366D01*
X682625Y617934D01*
X698103Y617934D01*
X698103Y512366D01*
G37*
G36*
X402034Y497284D02*
X402431Y497284D01*
X408384Y503238D01*
X400050Y503238D01*
X400050Y499666D01*
X402431Y497284D01*
X402034Y497284D01*
G37*
G36*
X420688Y504825D02*
X420688Y504031D01*
X427831Y496888D01*
X427831Y504428D01*
X427434Y504825D01*
X420688Y504825D01*
G37*
G36*
X415925Y476250D02*
X419497Y476250D01*
X427434Y484188D01*
X427434Y476250D01*
X425450Y474266D01*
X417512Y474266D01*
X417116Y474662D01*
X415925Y476250D01*
G37*
G36*
X389731Y476647D02*
X371475Y476647D01*
X371475Y483394D01*
X389731Y483394D01*
X389731Y476647D01*
G37*
G54D24*
X892969Y703659D02*
X892969Y696119D01*
X889397Y688578D01*
X872432Y683022D01*
X872226Y683228D01*
G54D31*
X892969Y703659D02*
X892969Y792956D01*
X881062Y803672D01*
X862409Y807641D01*
X857250Y808831D01*
X852091Y808038D01*
X844947Y804862D01*
G36*
X920353Y790178D02*
X893762Y790178D01*
X893762Y809228D01*
X920353Y809228D01*
X920353Y790178D01*
G37*
G54D49*
X920353Y790178D02*
X893762Y790178D01*
X893762Y809228D01*
X920353Y809228D01*
X920353Y790178D01*
G54D24*
X872226Y708628D02*
X872226Y734028D01*
X1013262Y822516D02*
G54D35*
D03*
X1013262Y740759D02*
G54D35*
D03*
G54D24*
X1013262Y740759D02*
X1041441Y740759D01*
G54D30*
X874712Y844550D02*
X890984Y844550D01*
X901303Y838200D01*
X1000357Y815578D01*
X1013262Y822516D01*
G54D30*
X874712Y844550D02*
X860425Y844550D01*
X837803Y821928D01*
G36*
X1064022Y248841D02*
X1319212Y248841D01*
X1319212Y1000125D01*
X1064022Y1000125D01*
X1064022Y248841D01*
G37*
G36*
X809625Y689769D02*
X806847Y689769D01*
X806847Y758825D01*
X809625Y758825D01*
X809625Y689769D01*
G37*
G36*
X809625Y689769D02*
X796026Y689769D01*
X796026Y759428D01*
X809625Y759428D01*
X809625Y689769D01*
G37*
G36*
X215900Y850106D02*
X189706Y850106D01*
X189706Y877491D01*
X215900Y877491D01*
X215900Y850106D01*
G37*
G54D50*
X215900Y850106D02*
X189706Y850106D01*
X189706Y877491D01*
X215900Y877491D01*
X215900Y850106D01*
G36*
X268288Y839391D02*
X215900Y839391D01*
X215900Y877491D01*
X268288Y877491D01*
X268288Y839391D01*
G37*
G36*
X252809Y871141D02*
X225811Y871141D01*
X225811Y907651D01*
X252809Y907651D01*
X252809Y871141D01*
G37*
G36*
X269081Y919162D02*
X190500Y919162D01*
X190500Y914003D01*
X269081Y914003D01*
X269081Y919162D01*
G37*
G36*
X281781Y919162D02*
X302011Y919162D01*
X302011Y907651D01*
X281781Y907651D01*
X281781Y919162D01*
G37*
%LPD*%
G54D51*
G36*
X499308Y780418D02*
X499308Y796918D01*
X510641Y796918D01*
X510641Y780418D01*
X499308Y780418D01*
G37*
G36*
X510641Y780418D02*
X510641Y763918D01*
X499308Y763918D01*
X499308Y780418D01*
X510641Y780418D01*
G37*
G54D52*
G36*
X549006Y628018D02*
X549006Y644518D01*
X562540Y644518D01*
X562540Y628018D01*
X549006Y628018D01*
G37*
G36*
X562540Y628018D02*
X562540Y611518D01*
X549006Y611518D01*
X549006Y628018D01*
X562540Y628018D01*
G37*
G54D53*
G36*
X169120Y907651D02*
X169120Y923651D01*
X180900Y923651D01*
X180900Y907651D01*
X169120Y907651D01*
G37*
G36*
X180900Y907651D02*
X180900Y891651D01*
X169120Y891651D01*
X169120Y907651D01*
X180900Y907651D01*
G37*
G36*
X175010Y901761D02*
X159010Y901761D01*
X159010Y913541D01*
X175010Y913541D01*
X175010Y901761D01*
G37*
G54D54*
G36*
X270468Y907651D02*
X270468Y923651D01*
X282754Y923651D01*
X282754Y907651D01*
X270468Y907651D01*
G37*
G36*
X282754Y907651D02*
X282754Y891651D01*
X270468Y891651D01*
X270468Y907651D01*
X282754Y907651D01*
G37*
G54D55*
G36*
X550818Y907651D02*
X550818Y923651D01*
X561204Y923651D01*
X561204Y907651D01*
X550818Y907651D01*
G37*
G36*
X556011Y912844D02*
X572011Y912844D01*
X572011Y902458D01*
X556011Y902458D01*
X556011Y912844D01*
G37*
G36*
X561204Y907651D02*
X561204Y891651D01*
X550818Y891651D01*
X550818Y907651D01*
X561204Y907651D01*
G37*
G54D56*
G36*
X103585Y850752D02*
X120835Y850752D01*
X120835Y839142D01*
X103585Y839142D01*
X103585Y850752D01*
G37*
G36*
X109390Y844947D02*
X109390Y827697D01*
X97780Y827697D01*
X97780Y844947D01*
X109390Y844947D01*
G37*
G36*
X103585Y839142D02*
X86335Y839142D01*
X86335Y850752D01*
X103585Y850752D01*
X103585Y839142D01*
G37*
G36*
X97780Y844947D02*
X97780Y862197D01*
X109390Y862197D01*
X109390Y844947D01*
X97780Y844947D01*
G37*
G54D57*
G36*
X138905Y655338D02*
X154905Y655338D01*
X154905Y644824D01*
X138905Y644824D01*
X138905Y655338D01*
G37*
G36*
X144162Y650081D02*
X144162Y634081D01*
X133648Y634081D01*
X133648Y650081D01*
X144162Y650081D01*
G37*
G36*
X138905Y644824D02*
X122905Y644824D01*
X122905Y655338D01*
X138905Y655338D01*
X138905Y644824D01*
G37*
G54D58*
G36*
X796026Y688561D02*
X812526Y688561D01*
X812526Y677895D01*
X796026Y677895D01*
X796026Y688561D01*
G37*
G36*
X801359Y683228D02*
X801359Y666728D01*
X790693Y666728D01*
X790693Y683228D01*
X801359Y683228D01*
G37*
G36*
X796026Y677895D02*
X779526Y677895D01*
X779526Y688561D01*
X796026Y688561D01*
X796026Y677895D01*
G37*
G54D59*
G36*
X768642Y664352D02*
X784642Y664352D01*
X784642Y651306D01*
X768642Y651306D01*
X768642Y664352D01*
G37*
G36*
X762119Y657829D02*
X762119Y673829D01*
X775165Y673829D01*
X775165Y657829D01*
X762119Y657829D01*
G37*
G54D60*
G36*
X815714Y788798D02*
X815714Y772798D01*
X805708Y772798D01*
X805708Y788798D01*
X815714Y788798D01*
G37*
G36*
X810711Y783795D02*
X794711Y783795D01*
X794711Y793801D01*
X810711Y793801D01*
X810711Y783795D01*
G37*
G36*
X805708Y788798D02*
X805708Y804798D01*
X815714Y804798D01*
X815714Y788798D01*
X805708Y788798D01*
G37*
G36*
X810711Y793801D02*
X826711Y793801D01*
X826711Y783795D01*
X810711Y783795D01*
X810711Y793801D01*
G37*
G54D61*
G36*
X494746Y420688D02*
X494746Y445188D01*
X507166Y445188D01*
X507166Y420688D01*
X494746Y420688D01*
G37*
G36*
X507166Y420688D02*
X507166Y396188D01*
X494746Y396188D01*
X494746Y420688D01*
X507166Y420688D01*
G37*
G54D62*
G36*
X107550Y503364D02*
X129550Y503364D01*
X129550Y491998D01*
X107550Y491998D01*
X107550Y503364D01*
G37*
G36*
X113233Y497681D02*
X113233Y475681D01*
X101867Y475681D01*
X101867Y497681D01*
X113233Y497681D01*
G37*
G36*
X107550Y491998D02*
X85550Y491998D01*
X85550Y503364D01*
X107550Y503364D01*
X107550Y491998D01*
G37*
G36*
X101867Y497681D02*
X101867Y519681D01*
X113233Y519681D01*
X113233Y497681D01*
X101867Y497681D01*
G37*
G54D63*
G36*
X204607Y344699D02*
X185607Y344699D01*
X185607Y355865D01*
X204607Y355865D01*
X204607Y344699D01*
G37*
G36*
X199024Y350282D02*
X199024Y369282D01*
X210191Y369282D01*
X210191Y350282D01*
X199024Y350282D01*
G37*
G36*
X204607Y355865D02*
X223607Y355865D01*
X223607Y344699D01*
X204607Y344699D01*
X204607Y355865D01*
G37*
G36*
X210191Y350282D02*
X210191Y331282D01*
X199024Y331282D01*
X199024Y350282D01*
X210191Y350282D01*
G37*
G54D64*
G36*
X629456Y420688D02*
X629456Y445188D01*
X641936Y445188D01*
X641936Y420688D01*
X629456Y420688D01*
G37*
G36*
X641936Y420688D02*
X641936Y396188D01*
X629456Y396188D01*
X629456Y420688D01*
X641936Y420688D01*
G37*
G54D65*
G36*
X413938Y352329D02*
X431938Y352329D01*
X431938Y342209D01*
X413938Y342209D01*
X413938Y352329D01*
G37*
G36*
X418998Y347269D02*
X418998Y329269D01*
X408878Y329269D01*
X408878Y347269D01*
X418998Y347269D01*
G37*
G36*
X413938Y342209D02*
X395938Y342209D01*
X395938Y352329D01*
X413938Y352329D01*
X413938Y342209D01*
G37*
G36*
X408878Y347269D02*
X408878Y365269D01*
X418998Y365269D01*
X418998Y347269D01*
X408878Y347269D01*
G37*
G54D66*
G36*
X684108Y331737D02*
X668108Y331737D01*
X668108Y340983D01*
X684108Y340983D01*
X684108Y331737D01*
G37*
G36*
X679485Y336360D02*
X679485Y352360D01*
X688732Y352360D01*
X688732Y336360D01*
X679485Y336360D01*
G37*
G36*
X684108Y340983D02*
X700108Y340983D01*
X700108Y331737D01*
X684108Y331737D01*
X684108Y340983D01*
G37*
G36*
X688732Y336360D02*
X688732Y320360D01*
X679485Y320360D01*
X679485Y336360D01*
X688732Y336360D01*
G37*
G54D57*
G36*
X488258Y361554D02*
X488258Y377554D01*
X498772Y377554D01*
X498772Y361554D01*
X488258Y361554D01*
G37*
G36*
X493515Y366811D02*
X509515Y366811D01*
X509515Y356297D01*
X493515Y356297D01*
X493515Y366811D01*
G37*
G36*
X498772Y361554D02*
X498772Y345554D01*
X488258Y345554D01*
X488258Y361554D01*
X498772Y361554D01*
G37*
G36*
X493515Y356297D02*
X477515Y356297D01*
X477515Y366811D01*
X493515Y366811D01*
X493515Y356297D01*
G37*
G54D67*
G36*
X353250Y353183D02*
X369750Y353183D01*
X369750Y343317D01*
X353250Y343317D01*
X353250Y353183D01*
G37*
G36*
X358184Y348250D02*
X358184Y331750D01*
X348317Y331750D01*
X348317Y348250D01*
X358184Y348250D01*
G37*
G36*
X353250Y343317D02*
X336750Y343317D01*
X336750Y353183D01*
X353250Y353183D01*
X353250Y343317D01*
G37*
G36*
X348317Y348250D02*
X348317Y364750D01*
X358184Y364750D01*
X358184Y348250D01*
X348317Y348250D01*
G37*
G54D68*
G36*
X640728Y361554D02*
X640728Y343554D01*
X630455Y343554D01*
X630455Y361554D01*
X640728Y361554D01*
G37*
G36*
X635591Y356417D02*
X617591Y356417D01*
X617591Y366691D01*
X635591Y366691D01*
X635591Y356417D01*
G37*
G36*
X630455Y361554D02*
X630455Y379554D01*
X640728Y379554D01*
X640728Y361554D01*
X630455Y361554D01*
G37*
G36*
X635591Y366691D02*
X653591Y366691D01*
X653591Y356417D01*
X635591Y356417D01*
X635591Y366691D01*
G37*
G54D57*
G36*
X550516Y587934D02*
X550516Y603934D01*
X561030Y603934D01*
X561030Y587934D01*
X550516Y587934D01*
G37*
G36*
X555773Y593191D02*
X571773Y593191D01*
X571773Y582677D01*
X555773Y582677D01*
X555773Y593191D01*
G37*
G36*
X555773Y582677D02*
X539773Y582677D01*
X539773Y593191D01*
X555773Y593191D01*
X555773Y582677D01*
G37*
G54D46*
G36*
X582118Y543881D02*
X582118Y527381D01*
X569118Y527381D01*
X569118Y543881D01*
X582118Y543881D01*
G37*
G36*
X575618Y537381D02*
X559118Y537381D01*
X559118Y550381D01*
X575618Y550381D01*
X575618Y537381D01*
G37*
G36*
X575618Y550381D02*
X592118Y550381D01*
X592118Y537381D01*
X575618Y537381D01*
X575618Y550381D01*
G37*
G54D51*
G36*
X906502Y585642D02*
X890002Y585642D01*
X890002Y596976D01*
X906502Y596976D01*
X906502Y585642D01*
G37*
G36*
X906502Y596976D02*
X923002Y596976D01*
X923002Y585642D01*
X906502Y585642D01*
X906502Y596976D01*
G37*
G36*
X912169Y591309D02*
X912169Y574809D01*
X900836Y574809D01*
X900836Y591309D01*
X912169Y591309D01*
G37*
G54D67*
G36*
X679256Y699088D02*
X679256Y682588D01*
X669389Y682588D01*
X669389Y699088D01*
X679256Y699088D01*
G37*
G36*
X674322Y694155D02*
X657822Y694155D01*
X657822Y704021D01*
X674322Y704021D01*
X674322Y694155D01*
G37*
G54D69*
G36*
X298269Y351274D02*
X322269Y351274D01*
X322269Y335640D01*
X298269Y335640D01*
X298269Y351274D01*
G37*
G36*
X306086Y343457D02*
X306086Y319457D01*
X290453Y319457D01*
X290453Y343457D01*
X306086Y343457D01*
G37*
G36*
X298269Y335640D02*
X274269Y335640D01*
X274269Y351274D01*
X298269Y351274D01*
X298269Y335640D01*
G37*
G36*
X290453Y343457D02*
X290453Y367457D01*
X306086Y367457D01*
X306086Y343457D01*
X290453Y343457D01*
G37*
G54D70*
G36*
X216164Y481128D02*
X199664Y481128D01*
X199664Y493794D01*
X216164Y493794D01*
X216164Y481128D01*
G37*
G36*
X216164Y493794D02*
X232664Y493794D01*
X232664Y481128D01*
X216164Y481128D01*
X216164Y493794D01*
G37*
G36*
X222497Y487461D02*
X222497Y470961D01*
X209831Y470961D01*
X209831Y487461D01*
X222497Y487461D01*
G37*
G54D71*
X191334Y627078D02*
X191284Y628018D01*
X191334Y628958D01*
X191487Y629898D01*
X191741Y630812D01*
X192071Y631701D01*
X192503Y632539D01*
X193036Y633327D01*
X193646Y634038D01*
X194332Y634698D01*
X195068Y635282D01*
X195856Y635790D01*
X196719Y636197D01*
X197608Y636527D01*
X198523Y636756D01*
X199462Y636882D01*
X200402Y636908D01*
X201342Y636832D01*
X202282Y636654D01*
X203196Y636375D01*
X204060Y636019D01*
X204898Y635562D01*
X205660Y635003D01*
X206371Y634393D01*
X207006Y633682D01*
X207590Y632920D01*
X208073Y632107D01*
X208454Y631244D01*
X208759Y630355D01*
X208962Y629440D01*
X209064Y628501D01*
X209064Y627535D01*
X208962Y626596D01*
X208759Y625681D01*
X208454Y624792D01*
X208073Y623929D01*
X207590Y623116D01*
X207006Y622354D01*
X206371Y621642D01*
X205660Y621033D01*
X204898Y620474D01*
X204060Y620017D01*
X203196Y619661D01*
X202282Y619382D01*
X201342Y619204D01*
X200402Y619128D01*
X199462Y619153D01*
X198523Y619280D01*
X197608Y619509D01*
X196719Y619839D01*
X195856Y620246D01*
X195068Y620754D01*
X194332Y621338D01*
X193646Y621998D01*
X193036Y622710D01*
X192503Y623497D01*
X192071Y624335D01*
X191741Y625224D01*
X191487Y626138D01*
X191334Y627078D01*
G54D71*
X191334Y779478D02*
X191284Y780418D01*
X191334Y781358D01*
X191487Y782298D01*
X191741Y783212D01*
X192071Y784101D01*
X192503Y784939D01*
X193036Y785727D01*
X193646Y786438D01*
X194332Y787098D01*
X195068Y787682D01*
X195856Y788190D01*
X196719Y788597D01*
X197608Y788927D01*
X198523Y789156D01*
X199462Y789283D01*
X200402Y789308D01*
X201342Y789232D01*
X202282Y789054D01*
X203196Y788775D01*
X204060Y788419D01*
X204898Y787962D01*
X205660Y787403D01*
X206371Y786793D01*
X207006Y786082D01*
X207590Y785320D01*
X208073Y784507D01*
X208454Y783644D01*
X208759Y782755D01*
X208962Y781840D01*
X209064Y780901D01*
X209064Y779935D01*
X208962Y778996D01*
X208759Y778081D01*
X208454Y777192D01*
X208073Y776329D01*
X207590Y775516D01*
X207006Y774754D01*
X206371Y774043D01*
X205660Y773433D01*
X204898Y772874D01*
X204060Y772417D01*
X203196Y772061D01*
X202282Y771782D01*
X201342Y771604D01*
X200402Y771528D01*
X199462Y771553D01*
X198523Y771680D01*
X197608Y771909D01*
X196719Y772239D01*
X195856Y772646D01*
X195068Y773153D01*
X194332Y773738D01*
X193646Y774398D01*
X193036Y775109D01*
X192503Y775897D01*
X192071Y776735D01*
X191741Y777624D01*
X191487Y778538D01*
X191334Y779478D01*
G54D71*
X597734Y627078D02*
X597684Y628018D01*
X597734Y628958D01*
X597887Y629898D01*
X598141Y630812D01*
X598471Y631701D01*
X598903Y632539D01*
X599436Y633327D01*
X600046Y634038D01*
X600732Y634698D01*
X601468Y635282D01*
X602256Y635790D01*
X603119Y636197D01*
X604008Y636527D01*
X604923Y636756D01*
X605862Y636883D01*
X606802Y636908D01*
X607742Y636832D01*
X608682Y636654D01*
X609596Y636375D01*
X610460Y636019D01*
X611298Y635562D01*
X612060Y635003D01*
X612772Y634394D01*
X613406Y633682D01*
X613990Y632920D01*
X614474Y632108D01*
X614854Y631244D01*
X615159Y630355D01*
X615362Y629440D01*
X615464Y628501D01*
X615464Y627535D01*
X615362Y626596D01*
X615159Y625681D01*
X614854Y624792D01*
X614474Y623929D01*
X613990Y623116D01*
X613406Y622354D01*
X612772Y621643D01*
X612060Y621033D01*
X611298Y620474D01*
X610460Y620017D01*
X609596Y619661D01*
X608682Y619382D01*
X607742Y619204D01*
X606802Y619128D01*
X605862Y619154D01*
X604923Y619280D01*
X604008Y619509D01*
X603120Y619839D01*
X602256Y620246D01*
X601468Y620754D01*
X600732Y621338D01*
X600046Y621998D01*
X599436Y622709D01*
X598903Y623497D01*
X598471Y624335D01*
X598141Y625224D01*
X597887Y626138D01*
X597734Y627078D01*
G54D71*
X597734Y779478D02*
X597684Y780418D01*
X597734Y781358D01*
X597887Y782298D01*
X598141Y783212D01*
X598471Y784101D01*
X598903Y784939D01*
X599436Y785727D01*
X600046Y786438D01*
X600732Y787098D01*
X601468Y787682D01*
X602256Y788190D01*
X603120Y788597D01*
X604008Y788927D01*
X604923Y789156D01*
X605862Y789283D01*
X606802Y789308D01*
X607742Y789232D01*
X608682Y789054D01*
X609596Y788775D01*
X610460Y788419D01*
X611298Y787962D01*
X612060Y787403D01*
X612772Y786793D01*
X613406Y786082D01*
X613990Y785320D01*
X614474Y784507D01*
X614854Y783644D01*
X615159Y782755D01*
X615362Y781840D01*
X615464Y780901D01*
X615464Y779935D01*
X615362Y778996D01*
X615159Y778081D01*
X614854Y777192D01*
X614474Y776329D01*
X613990Y775516D01*
X613406Y774754D01*
X612771Y774043D01*
X612060Y773433D01*
X611298Y772874D01*
X610460Y772417D01*
X609596Y772061D01*
X608682Y771782D01*
X607742Y771604D01*
X606802Y771528D01*
X605862Y771553D01*
X604923Y771680D01*
X604008Y771909D01*
X603120Y772239D01*
X602256Y772646D01*
X601468Y773154D01*
X600732Y773738D01*
X600046Y774398D01*
X599436Y775109D01*
X598903Y775897D01*
X598471Y776735D01*
X598141Y777624D01*
X597887Y778538D01*
X597734Y779478D01*
X581174Y780418D02*
G54D15*
D03*
X555774Y780418D02*
G54D15*
D03*
X530374Y780418D02*
G54D15*
D03*
X504974Y780418D02*
G54D15*
D03*
X479574Y780418D02*
G54D15*
D03*
X454174Y780418D02*
G54D15*
D03*
X428774Y780418D02*
G54D15*
D03*
X403374Y780418D02*
G54D15*
D03*
X377974Y780418D02*
G54D15*
D03*
X352574Y780418D02*
G54D15*
D03*
X327174Y780418D02*
G54D15*
D03*
X301774Y780418D02*
G54D15*
D03*
X276374Y780418D02*
G54D15*
D03*
X250974Y780418D02*
G54D15*
D03*
X225574Y780418D02*
G54D15*
D03*
X200174Y628018D02*
G54D72*
D03*
X225574Y628018D02*
G54D15*
D03*
X250974Y628018D02*
G54D15*
D03*
X276374Y628018D02*
G54D15*
D03*
X301774Y628018D02*
G54D15*
D03*
X327174Y628018D02*
G54D15*
D03*
X352574Y628018D02*
G54D15*
D03*
X377974Y628018D02*
G54D15*
D03*
X403374Y628018D02*
G54D15*
D03*
X428774Y628018D02*
G54D15*
D03*
X454174Y628018D02*
G54D15*
D03*
X479574Y628018D02*
G54D15*
D03*
X504974Y628018D02*
G54D15*
D03*
X530374Y628018D02*
G54D15*
D03*
X555773Y628018D02*
G54D15*
D03*
X581174Y628018D02*
G54D15*
D03*
X606574Y780418D02*
G54D72*
D03*
G36*
X165510Y917151D02*
X184510Y917151D01*
X184510Y898151D01*
X165510Y898151D01*
X165510Y917151D01*
G37*
X200411Y907651D02*
G54D73*
D03*
X225811Y907651D02*
G54D73*
D03*
X251211Y907651D02*
G54D73*
D03*
X276611Y907651D02*
G54D73*
D03*
X302011Y907651D02*
G54D73*
D03*
X429011Y907651D02*
G54D73*
D03*
G54D74*
X454411Y914401D02*
X454411Y900901D01*
G54D74*
X479811Y914401D02*
X479811Y900901D01*
X505211Y907651D02*
G54D73*
D03*
X530611Y907651D02*
G54D73*
D03*
X556011Y907651D02*
G54D73*
D03*
X100012Y358051D02*
G54D75*
D03*
X100012Y908050D02*
G54D75*
D03*
X103585Y844947D02*
G54D76*
D03*
X103584Y794146D02*
G54D76*
D03*
X154384Y819547D02*
G54D76*
D03*
G36*
X203174Y892971D02*
X203215Y894111D01*
X203345Y895121D01*
X203535Y896041D01*
X203805Y896851D01*
X204125Y897581D01*
X204505Y898231D01*
X204925Y898821D01*
X205384Y899351D01*
X205875Y899831D01*
X206395Y900271D01*
X200405Y912401D01*
X194445Y900261D01*
X194965Y899821D01*
X195455Y899341D01*
X195915Y898811D01*
X196335Y898231D01*
X196715Y897581D01*
X197045Y896851D01*
X197305Y896031D01*
X197504Y895121D01*
X197635Y894101D01*
X197675Y892971D01*
X203174Y892971D01*
G37*
G36*
X227824Y889001D02*
X227915Y891131D01*
X228185Y892891D01*
X228595Y894371D01*
X229155Y895631D01*
X229815Y896771D01*
X230585Y897851D01*
X231415Y898962D01*
X232315Y900171D01*
X233245Y901551D01*
X234195Y903181D01*
X225805Y912401D01*
X217435Y903171D01*
X218385Y901541D01*
X219325Y900161D01*
X220215Y898962D01*
X221055Y897851D01*
X221825Y896771D01*
X222495Y895631D01*
X223045Y894361D01*
X223464Y892891D01*
X223735Y891121D01*
X223825Y889001D01*
X227824Y889001D01*
G37*
G36*
X455915Y894201D02*
X455985Y895761D01*
X456175Y897051D01*
X456485Y898131D01*
X456885Y899061D01*
X457365Y899892D01*
X457915Y900681D01*
X458525Y901501D01*
X459155Y902411D01*
X459815Y903461D01*
X460484Y904711D01*
X454415Y911021D01*
X448335Y904711D01*
X449005Y903461D01*
X449665Y902411D01*
X450305Y901501D01*
X450905Y900681D01*
X451455Y899892D01*
X451945Y899061D01*
X452344Y898131D01*
X452655Y897051D01*
X452845Y895761D01*
X452915Y894201D01*
X455915Y894201D01*
G37*
G36*
X481325Y894191D02*
X481395Y895761D01*
X481585Y897051D01*
X481895Y898131D01*
X482295Y899051D01*
X482775Y899892D01*
X483325Y900681D01*
X483935Y901511D01*
X484565Y902411D01*
X485225Y903461D01*
X485895Y904721D01*
X479805Y911021D01*
X473744Y904701D01*
X474415Y903451D01*
X475075Y902401D01*
X475715Y901501D01*
X476315Y900681D01*
X476865Y899881D01*
X477344Y899051D01*
X477755Y898121D01*
X478055Y897051D01*
X478255Y895751D01*
X478325Y894191D01*
X481325Y894191D01*
G37*
G36*
X478078Y793871D02*
X478006Y792311D01*
X477818Y791021D01*
X477508Y789941D01*
X477108Y789011D01*
X476618Y788181D01*
X476068Y787391D01*
X475468Y786571D01*
X474828Y785661D01*
X474168Y784611D01*
X473498Y783361D01*
X479578Y777041D01*
X485648Y783361D01*
X484978Y784611D01*
X484316Y785661D01*
X483688Y786571D01*
X483078Y787391D01*
X482528Y788181D01*
X482048Y789011D01*
X481648Y789941D01*
X481338Y791021D01*
X481146Y792311D01*
X481078Y793871D01*
X478078Y793871D01*
G37*
G36*
X375978Y793871D02*
X375918Y792331D01*
X375758Y791042D01*
X375506Y789961D01*
X375168Y789031D01*
X374748Y788181D01*
X374268Y787371D01*
X373738Y786541D01*
X373158Y785631D01*
X372538Y784591D01*
X371898Y783361D01*
X377976Y777041D01*
X384048Y783361D01*
X383408Y784591D01*
X382788Y785631D01*
X382208Y786541D01*
X381678Y787371D01*
X381198Y788181D01*
X380788Y789031D01*
X380446Y789961D01*
X380198Y791042D01*
X380038Y792331D01*
X379978Y793871D01*
X375978Y793871D01*
G37*
G36*
X347118Y789741D02*
X347378Y788931D01*
X347548Y788192D01*
X347638Y787511D01*
X347668Y786871D01*
X347628Y786281D01*
X347528Y785741D01*
X347388Y785221D01*
X347198Y784732D01*
X346978Y784261D01*
X346728Y783802D01*
X353706Y777241D01*
X354948Y786731D01*
X354468Y786931D01*
X353998Y787151D01*
X353538Y787411D01*
X353108Y787721D01*
X352678Y788091D01*
X352278Y788521D01*
X351898Y789031D01*
X351538Y789621D01*
X351198Y790301D01*
X350888Y791091D01*
X347118Y789741D01*
G37*
G36*
X507888Y614602D02*
X507908Y616121D01*
X507998Y617391D01*
X508158Y618481D01*
X508398Y619441D01*
X508698Y620301D01*
X509058Y621141D01*
X509478Y621991D01*
X509956Y622911D01*
X510498Y623941D01*
X511086Y625152D01*
X504926Y631391D01*
X498938Y625001D01*
X499558Y623811D01*
X500118Y622791D01*
X500618Y621881D01*
X501068Y621041D01*
X501448Y620221D01*
X501768Y619361D01*
X502018Y618411D01*
X502208Y617321D01*
X502328Y616051D01*
X502388Y614531D01*
X507888Y614602D01*
G37*
X479574Y853443D02*
G54D15*
D03*
X268833Y853443D02*
G54D15*
D03*
X454174Y833202D02*
G54D15*
D03*
X319236Y833202D02*
G54D15*
D03*
X100012Y358051D02*
G54D75*
D03*
X100012Y908050D02*
G54D75*
D03*
X1030013Y908050D02*
G54D75*
D03*
X1030013Y358051D02*
G54D75*
D03*
X100012Y358051D02*
G54D75*
D03*
X100012Y908050D02*
G54D75*
D03*
X1030013Y908050D02*
G54D75*
D03*
X1030013Y358051D02*
G54D75*
D03*
X472033Y878446D02*
G54D15*
D03*
X352574Y878446D02*
G54D15*
D03*
X138906Y751681D02*
G54D73*
D03*
X138906Y726281D02*
G54D73*
D03*
X138906Y700881D02*
G54D73*
D03*
X138906Y675481D02*
G54D73*
D03*
X138905Y650081D02*
G54D73*
D03*
X1041441Y723859D02*
G54D77*
D03*
X1041441Y685759D02*
G54D78*
D03*
X1041441Y647659D02*
G54D77*
D03*
X1041441Y685759D02*
G54D79*
D03*
X1041441Y630759D02*
G54D79*
D03*
X1041441Y740759D02*
G54D79*
D03*
X796026Y759428D02*
G54D15*
D03*
X796026Y734028D02*
G54D15*
D03*
X796026Y708628D02*
G54D15*
D03*
X796026Y683228D02*
G54D15*
D03*
X872226Y759428D02*
G54D15*
D03*
X872226Y734028D02*
G54D15*
D03*
X872226Y708628D02*
G54D15*
D03*
X872226Y683228D02*
G54D15*
D03*
X768642Y708628D02*
G54D73*
D03*
X768642Y657829D02*
G54D73*
D03*
X769039Y784828D02*
G54D73*
D03*
X769039Y734028D02*
G54D73*
D03*
G54D80*
X796026Y734028D02*
X769039Y734028D01*
G54D50*
X796026Y708628D02*
X768642Y708628D01*
G54D48*
X796026Y759428D02*
X794438Y759428D01*
X769039Y784828D01*
X793248Y823722D02*
G54D73*
D03*
X875005Y823722D02*
G54D73*
D03*
G54D80*
X769039Y734028D02*
X723795Y728472D01*
X861510Y788797D02*
G54D73*
D03*
X810711Y788798D02*
G54D73*
D03*
X100012Y358051D02*
G54D75*
D03*
X100012Y908050D02*
G54D75*
D03*
X1030012Y908050D02*
G54D75*
D03*
X1030012Y358051D02*
G54D75*
D03*
G54D10*
X875005Y823722D02*
X985496Y798322D01*
X1046600Y740759D01*
X937828Y762916D02*
G54D81*
D03*
X937828Y712929D02*
G54D81*
D03*
X937828Y862941D02*
G54D81*
D03*
X937828Y912929D02*
G54D81*
D03*
G54D34*
X475457Y429688D02*
X475457Y411688D01*
G54D34*
X500956Y429688D02*
X500956Y411688D01*
G54D34*
X526456Y429688D02*
X526456Y411688D01*
X107550Y497681D02*
G54D82*
D03*
X107550Y446881D02*
G54D82*
D03*
X167081Y434578D02*
G54D73*
D03*
X167081Y485378D02*
G54D73*
D03*
X204607Y350282D02*
G54D83*
D03*
X204608Y401082D02*
G54D83*
D03*
G54D34*
X610197Y429688D02*
X610197Y411688D01*
G54D34*
X635696Y429688D02*
X635696Y411688D01*
G54D34*
X661197Y429688D02*
X661197Y411688D01*
X413938Y397269D02*
G54D84*
D03*
X413938Y347269D02*
G54D84*
D03*
X684108Y336360D02*
G54D73*
D03*
X684108Y387160D02*
G54D73*
D03*
X493515Y361554D02*
G54D73*
D03*
X544316Y361554D02*
G54D73*
D03*
X287554Y450689D02*
G54D15*
D03*
X205798Y450689D02*
G54D15*
D03*
X353250Y430006D02*
G54D15*
D03*
X353250Y348250D02*
G54D15*
D03*
X635591Y361554D02*
G54D84*
D03*
X585591Y361554D02*
G54D84*
D03*
X504974Y587934D02*
G54D73*
D03*
X555773Y587934D02*
G54D73*
D03*
G54D48*
X504974Y587934D02*
X504974Y628018D01*
G54D85*
X872417Y759619D02*
X872226Y759428D01*
X861510Y788797D01*
X415221Y492286D02*
G54D15*
D03*
X389821Y492286D02*
G54D15*
D03*
X364421Y492286D02*
G54D15*
D03*
X441077Y592696D02*
G54D15*
D03*
X441077Y510940D02*
G54D15*
D03*
X575618Y543881D02*
G54D15*
D03*
X493861Y543880D02*
G54D15*
D03*
X470843Y583171D02*
G54D15*
D03*
X470843Y501414D02*
G54D15*
D03*
X364421Y462124D02*
G54D73*
D03*
X389821Y462124D02*
G54D73*
D03*
X415221Y462124D02*
G54D73*
D03*
G54D48*
X470843Y498636D02*
X470843Y501414D01*
X415221Y459346D01*
X462651Y722915D02*
G54D73*
D03*
X544408Y722915D02*
G54D73*
D03*
G54D80*
X479574Y780418D02*
X479574Y853443D01*
G54D50*
X251211Y907651D02*
X268833Y853443D01*
G54D50*
X454174Y780418D02*
X454174Y833202D01*
G54D50*
X302011Y907651D02*
X319236Y833202D01*
G54D50*
X428774Y780418D02*
X428774Y907414D01*
X429011Y907651D01*
G54D48*
X352574Y780418D02*
X352574Y878446D01*
G54D48*
X377974Y780418D02*
X377974Y881695D01*
X377814Y881854D01*
G54D48*
X138906Y751681D02*
X196837Y751681D01*
X225574Y780418D01*
G54D48*
X138906Y726281D02*
X226219Y726281D01*
X276225Y776288D01*
G54D48*
X138906Y700881D02*
X158121Y700881D01*
X167277Y710038D01*
X239741Y710038D01*
X302022Y772319D01*
G54D48*
X138906Y675481D02*
X157162Y675481D01*
X175419Y693738D01*
X249238Y693738D01*
X327025Y771525D01*
G54D48*
X154384Y819547D02*
X186134Y819547D01*
X226616Y860028D01*
X226616Y906846D01*
X225811Y907651D01*
G54D80*
X547290Y690166D02*
X669528Y720328D01*
X681434Y723900D01*
X690562Y727869D01*
X700088Y730250D01*
X708422Y730250D01*
X723795Y728472D01*
X906502Y591309D02*
G54D15*
D03*
X906503Y641309D02*
G54D15*
D03*
X968019Y591309D02*
G54D15*
D03*
X968019Y641309D02*
G54D15*
D03*
G54D48*
X769039Y784828D02*
X769039Y792368D01*
X793248Y823722D01*
X841957Y888865D02*
G54D86*
D03*
X792162Y530622D02*
G54D87*
D03*
X969162Y530622D02*
G54D87*
D03*
X792162Y467122D02*
G54D87*
D03*
X969162Y467122D02*
G54D87*
D03*
X792162Y403622D02*
G54D87*
D03*
X969162Y403622D02*
G54D87*
D03*
X746124Y467122D02*
G54D86*
D03*
X83259Y560817D02*
G54D15*
D03*
X108659Y560817D02*
G54D15*
D03*
X134059Y560817D02*
G54D15*
D03*
X749682Y857623D02*
G54D76*
D03*
X698882Y857624D02*
G54D76*
D03*
X724282Y806824D02*
G54D76*
D03*
X699722Y789575D02*
G54D15*
D03*
X699722Y707819D02*
G54D15*
D03*
G54D50*
X699325Y707819D02*
X765880Y707819D01*
X768642Y705056D01*
X674322Y780844D02*
G54D15*
D03*
X674322Y699088D02*
G54D15*
D03*
X587667Y828087D02*
G54D73*
D03*
X669424Y828087D02*
G54D73*
D03*
G54D88*
X403374Y780418D02*
X403374Y886867D01*
X391716Y898525D01*
X391716Y918369D01*
X398462Y925116D01*
X441325Y925116D01*
X452438Y914003D01*
G54D88*
X377974Y778830D02*
X377974Y884089D01*
X366316Y895747D01*
X366316Y927894D01*
X374253Y935831D01*
X458391Y935831D01*
X479028Y915194D01*
G54D48*
X472033Y878446D02*
X483555Y878446D01*
X505222Y900112D01*
X300186Y809390D02*
G54D15*
D03*
X543868Y809390D02*
G54D15*
D03*
G54D50*
X300186Y809390D02*
X274402Y809390D01*
X250825Y785812D01*
G54D46*
X462651Y723709D02*
X335359Y668734D01*
X326231Y661591D01*
X311150Y648097D01*
X304403Y638175D01*
X301625Y628167D01*
X301774Y628018D01*
G54D74*
X544408Y723709D02*
X613172Y753269D01*
X627459Y766366D01*
X628650Y866775D01*
X642938Y888206D01*
X672599Y896746D01*
G54D46*
X543868Y809390D02*
X587667Y828087D01*
X105966Y660003D02*
G54D73*
D03*
X105966Y620712D02*
G54D73*
D03*
G54D48*
X105966Y660003D02*
X105966Y810022D01*
X167084Y871141D01*
X188912Y871141D01*
X200422Y882650D01*
X200411Y907651D01*
X298270Y400286D02*
G54D89*
D03*
X298269Y343457D02*
G54D89*
D03*
G54D50*
X428774Y628018D02*
X437505Y592696D01*
G54D48*
X204607Y448307D02*
X204608Y401082D01*
X190416Y593757D02*
G54D15*
D03*
X108659Y593757D02*
G54D15*
D03*
X170476Y525699D02*
G54D73*
D03*
X170476Y551098D02*
G54D73*
D03*
G54D48*
X108659Y590979D02*
X107950Y561525D01*
X108659Y560817D01*
G54D48*
X170476Y551892D02*
X134059Y560817D01*
G54D48*
X661197Y410766D02*
X661197Y504028D01*
X598884Y566341D01*
X526567Y566341D01*
X504974Y587934D01*
G54D48*
X190416Y593757D02*
X225574Y628018D01*
G54D48*
X364421Y492286D02*
X364421Y459346D01*
G54D90*
X465533Y690166D02*
X422808Y662882D01*
X396875Y659606D01*
X373459Y652859D01*
X352822Y633412D01*
G54D50*
X661197Y420688D02*
X661197Y410071D01*
X684108Y387160D01*
X684212Y509191D02*
G54D73*
D03*
G54D50*
X561975Y416719D02*
X561975Y495300D01*
X571897Y505222D01*
X723795Y728472D02*
G54D15*
D03*
X723795Y626872D02*
G54D15*
D03*
G54D85*
X977503Y616744D02*
X739876Y617141D01*
X723001Y628460D01*
X568722Y509191D02*
G54D73*
D03*
G54D48*
X669424Y828087D02*
X698882Y856433D01*
X648494Y623094D02*
G54D73*
D03*
X648494Y738188D02*
G54D73*
D03*
X774199Y896746D02*
G54D15*
D03*
X672599Y896746D02*
G54D15*
D03*
X465533Y690166D02*
G54D73*
D03*
X547290Y690166D02*
G54D73*
D03*
X377974Y587934D02*
G54D73*
D03*
G54D50*
X377974Y628018D02*
X377974Y587934D01*
X346224Y587537D02*
G54D15*
D03*
X320824Y587537D02*
G54D15*
D03*
X295027Y587537D02*
G54D15*
D03*
X269627Y587537D02*
G54D15*
D03*
G54D91*
X327174Y628018D02*
X345033Y590712D01*
G54D80*
X269627Y590712D02*
X269627Y595871D01*
X285750Y609203D01*
X301774Y628018D01*
G54D48*
X504974Y628018D02*
X504974Y718989D01*
X487430Y733709D01*
X480219Y738981D01*
X466328Y743744D01*
X454819Y742553D01*
X392906Y721916D01*
X369094Y713184D01*
X344091Y698897D01*
X290909Y664369D01*
X192881Y664369D01*
X149225Y620712D01*
X105966Y620712D01*
G54D48*
X389821Y492286D02*
X393790Y506502D01*
X401638Y511969D01*
X424259Y512762D01*
X441077Y510940D01*
X437505Y510940D01*
X493861Y543880D01*
G54D50*
X107550Y446881D02*
X167081Y485378D01*
G54D50*
X205798Y450689D02*
X202226Y403464D01*
X204608Y401082D01*
G54D50*
X167081Y434578D02*
X202784Y446484D01*
X204607Y448307D01*
G54D50*
X204608Y401082D02*
X297870Y401082D01*
X298270Y400682D01*
X312105Y400682D01*
X321072Y391716D01*
X408384Y391716D01*
X413938Y397269D01*
G54D50*
X413938Y397269D02*
X452038Y397269D01*
X475457Y420688D01*
G54D50*
X684108Y387160D02*
X661197Y410071D01*
X661197Y504028D01*
X598884Y566341D01*
X526567Y566341D01*
X504974Y587934D01*
X504974Y628018D01*
G54D50*
X648494Y623094D02*
X648494Y516731D01*
X661197Y504028D01*
G54D48*
X410236Y563264D02*
X410236Y560486D01*
X479822Y560388D01*
X502841Y583406D01*
G54D50*
X437505Y592696D02*
X470843Y583171D01*
X410236Y533896D02*
G54D15*
D03*
X410236Y560486D02*
G54D15*
D03*
G54D48*
X364421Y492286D02*
X365849Y492286D01*
X385762Y525066D01*
X393700Y531416D01*
X410236Y533896D01*
X410236Y536674D01*
G54D50*
X346224Y587537D02*
X332568Y450689D01*
G54D50*
X286364Y450689D02*
X332568Y450689D01*
X353250Y430006D01*
G54D50*
X526456Y420688D02*
X526456Y379413D01*
X544316Y361554D01*
G54D50*
X526456Y420688D02*
X610197Y420688D01*
G54D50*
X585591Y361554D02*
X585591Y393103D01*
X561975Y416719D01*
X603636Y877092D02*
G54D92*
D03*
X521880Y877092D02*
G54D92*
D03*
G54D48*
X648494Y736600D02*
X648494Y861616D01*
X661988Y875109D01*
X680037Y875109D01*
X693674Y888746D01*
X693674Y910098D01*
X687388Y916384D01*
X642929Y916384D01*
X603636Y877092D01*
G54D48*
X530611Y907651D02*
X521880Y877092D01*
G54D85*
X674322Y780844D02*
X699325Y789575D01*
X724282Y805633D01*
X749682Y856433D01*
G54D85*
X977503Y616744D02*
X999728Y616744D01*
G54D93*
X1041441Y630759D02*
X1035447Y556816D01*
X1012825Y534194D01*
X1012825Y414734D01*
X1012428Y414338D01*
G54D26*
X1041441Y685759D02*
X961029Y685759D01*
X937828Y708960D01*
X937828Y758948D01*
G54D50*
X684212Y509191D02*
X684212Y640556D01*
X695325Y651669D01*
X737791Y651669D01*
X752078Y637381D01*
X835819Y637381D01*
X848519Y650081D01*
X848519Y743347D01*
X867172Y762000D01*
X225689Y557311D02*
G54D15*
D03*
X225689Y583902D02*
G54D15*
D03*
X255168Y497697D02*
G54D76*
D03*
X305969Y497696D02*
G54D76*
D03*
X280568Y548496D02*
G54D76*
D03*
X216164Y487461D02*
G54D15*
D03*
X216164Y514052D02*
G54D15*
D03*
G54D50*
X216164Y514052D02*
X236829Y514052D01*
X255168Y497697D01*
G54D50*
X269627Y587537D02*
X269627Y559438D01*
X280568Y548496D01*
X411708Y588330D02*
G54D73*
D03*
G54D50*
X403374Y628018D02*
X411708Y588330D01*
G54D48*
X149225Y620712D02*
X149225Y598091D01*
X173434Y573881D01*
X202803Y573881D01*
X214312Y581819D01*
X225689Y583902D01*
X225689Y588664D01*
X225391Y585391D01*
X225689Y585092D01*
G54D50*
X170476Y521333D02*
X192092Y530461D01*
X225689Y557311D01*
X458391Y369491D02*
G54D94*
D03*
G54D85*
X458391Y369491D02*
X458391Y390916D01*
X452038Y397269D01*
X715566Y395684D02*
G54D95*
D03*
G54D85*
X715566Y395684D02*
X692632Y395684D01*
X684108Y387160D01*
G54D85*
X684108Y387160D02*
X661197Y410071D01*
G54D50*
X458391Y369491D02*
X458391Y398066D01*
X472281Y411956D01*
G54D50*
X568722Y509191D02*
X568722Y409972D01*
X585591Y393103D01*
G54D50*
X526456Y420688D02*
X549672Y420688D01*
X562769Y433784D01*
X565944Y433784D01*
X578247Y421481D01*
X609404Y421481D01*
X610197Y420688D01*
G54D50*
X648097Y533400D02*
X631825Y533400D01*
X629841Y535384D01*
G54D96*
X149225Y608806D02*
X149225Y609997D01*
X138906Y620316D01*
X422808Y662882D02*
G54D73*
D03*
X504564Y662882D02*
G54D73*
D03*
G54D97*
X898546Y369356D02*
X900546Y370556D01*
X901546Y372956D01*
X901546Y375356D01*
X900546Y377756D01*
X898546Y378956D01*
X896546Y378956D01*
X894546Y377756D01*
X893546Y375356D01*
X892546Y377756D01*
X890546Y378956D01*
X888546Y378956D01*
X886546Y377756D01*
X885546Y375356D01*
X885546Y372956D01*
X886546Y370556D01*
X888546Y369356D01*
G54D97*
X885546Y394156D02*
X885546Y384556D01*
X886546Y384556D01*
X888546Y385756D01*
X894546Y392956D01*
X896546Y394156D01*
X898546Y394156D01*
X900546Y392956D01*
X901546Y390556D01*
X901546Y388156D01*
X900546Y385756D01*
X898546Y384556D01*
G54D97*
X898546Y409356D02*
X888546Y409356D01*
X886546Y408156D01*
X885546Y405756D01*
X885546Y403356D01*
X886546Y400956D01*
X888546Y399756D01*
X898546Y399756D01*
X900546Y400956D01*
X901546Y403356D01*
X901546Y405756D01*
X900546Y408156D01*
X898546Y409356D01*
G54D97*
X894546Y414956D02*
X885546Y419756D01*
X894546Y424556D01*
G54D97*
X887946Y437356D02*
X891946Y437356D01*
X893946Y436156D01*
X894546Y433756D01*
X893946Y431356D01*
X891946Y430156D01*
X887946Y430156D01*
X885946Y431356D01*
X885546Y433756D01*
X885946Y436156D01*
X887946Y437356D01*
G54D97*
X885546Y442956D02*
X901546Y442956D01*
G54D97*
X901546Y450956D02*
X886546Y450956D01*
X885546Y452156D01*
X885946Y453356D01*
G54D97*
X894546Y448556D02*
X894546Y453356D01*
G54D97*
X885546Y458956D02*
X885546Y458956D01*
G54D97*
X893946Y470556D02*
X894546Y468156D01*
X893946Y465756D01*
X891946Y464556D01*
X887946Y464556D01*
X885946Y465756D01*
X885546Y468156D01*
X885946Y470556D01*
G54D97*
X887946Y483356D02*
X891946Y483356D01*
X893946Y482156D01*
X894546Y479756D01*
X893946Y477356D01*
X891946Y476156D01*
X887946Y476156D01*
X885946Y477356D01*
X885546Y479756D01*
X885946Y482156D01*
X887946Y483356D01*
G54D97*
X885546Y488956D02*
X894546Y488956D01*
G54D97*
X892946Y488956D02*
X894546Y491356D01*
X893946Y493756D01*
X892546Y494956D01*
X885546Y494956D01*
G54D97*
X892946Y494956D02*
X894546Y497356D01*
X893946Y499756D01*
X892546Y500956D01*
X885546Y500956D01*
G54D48*
X892969Y703659D02*
X892969Y696119D01*
X889397Y688578D01*
X872432Y683022D01*
X872226Y683228D01*
G54D48*
X892969Y703659D02*
X892969Y792956D01*
X881062Y803672D01*
X862409Y807641D01*
X857250Y808831D01*
X852091Y808038D01*
X844947Y804862D01*
G54D48*
X844947Y804862D02*
X831850Y804862D01*
G54D48*
X872226Y708628D02*
X872226Y734028D01*
X1013262Y822516D02*
G54D15*
D03*
X1013262Y740759D02*
G54D15*
D03*
G54D10*
X1013262Y740759D02*
X1041441Y740759D01*
G54D80*
X874712Y844550D02*
X890984Y844550D01*
X901303Y838200D01*
X1000357Y815578D01*
X1013262Y822516D01*
G54D80*
X874712Y844550D02*
X860425Y844550D01*
X837803Y821928D01*
G54D80*
X837803Y821928D02*
X827881Y812006D01*
G54D27*
X937828Y862941D02*
X937828Y912929D01*
G54D27*
X841957Y888865D02*
X930934Y888865D01*
X932259Y890191D01*
M02*
