; Drill file
; Format: 2.4 (00.0000)
M48
INCH
T01C0.0315
T02C0.0394
T03C0.0433
T04C0.0591
T05C0.0787
T06C0.1181
T07C0.126
%
G05
G90
T01
X008060Y013790
X008060Y015790
X008100Y017740
X008510Y019190
X008510Y020240
X008890Y021940
X008890Y022990
X007500Y023380
X006710Y021700
X006710Y020700
X006580Y019110
X006580Y017110
X011320Y017740
X013910Y016930
X014350Y018190
X015350Y018190
X016350Y018190
X016350Y019380
X015350Y019380
X014350Y019380
X016150Y021020
X016150Y022070
X016210Y023160
X017370Y023330
X018540Y022960
X019880Y023150
X019880Y024730
X018880Y024730
X017880Y024730
X016880Y024730
X015880Y024730
X014880Y024730
X013880Y024730
X012880Y024730
X011880Y024730
X010880Y024730
X009880Y024730
X008880Y024730
X010620Y023130
X011620Y023130
X012630Y023130
X013630Y023130
X014880Y023150
X016650Y026100
X018330Y027170
X018210Y028460
X017880Y030730
X016880Y030730
X015880Y030730
X014880Y030730
X013880Y030730
X012880Y030730
X011880Y030730
X010880Y030730
X009880Y030730
X008880Y030730
X011820Y031870
X012570Y032800
X010580Y033600
X010890Y035730
X009890Y035730
X008890Y035730
X007890Y035730
X006890Y035730
X011890Y035730
X012890Y035730
X013890Y035730
X014890Y035730
X015890Y035730
X016890Y035730
X017890Y035730
X018890Y035730
X019890Y035730
X020890Y035730
X021890Y035730
X020550Y034530
X018880Y033600
X018580Y034580
X017880Y032800
X018880Y030730
X019880Y030730
X020880Y030730
X021880Y030730
X022880Y030730
X021410Y031870
X023140Y032600
X023770Y034530
X026480Y035300
X026360Y032600
X026550Y030740
X027550Y031090
X028500Y028680
X027550Y027870
X026550Y027520
X025530Y029060
X021430Y028460
X021550Y027170
X019860Y026100
X020880Y024730
X021880Y024730
X022880Y024730
X021880Y023150
X022660Y021410
X022390Y020050
X019440Y021410
X018540Y019740
X017370Y020120
X016300Y015640
X016300Y013670
X018050Y014550
X019430Y014230
X021430Y014230
X023050Y014230
X025020Y014230
X026930Y013240
X026930Y015240
X028170Y015580
X026940Y020050
X025530Y024530
X028500Y024680
X030260Y025900
X031340Y026900
X031340Y027900
X031340Y028900
X031340Y029900
X031920Y031060
X031230Y032430
X030280Y030900
X030280Y028900
X030260Y027900
X034340Y027900
X034340Y028900
X034340Y029900
X033920Y031060
X034450Y032430
X030480Y035300
X034340Y026900
X035690Y025250
X035690Y023280
X038110Y023280
X038110Y025250
X039890Y029160
X039890Y032380
X013880Y034580
X005470Y029590
X005470Y028590
X005470Y027590
X005470Y026590
X005470Y025590
X004170Y025980
X004170Y024440
X004280Y023380
X004280Y022080
X005280Y022080
X003280Y022080
X013910Y013710
T02
X010050Y019590
X012050Y019590
X011050Y021590
X006080Y032270
X004080Y033270
X004080Y031270
X027520Y033760
X029520Y033760
X028520Y031760
T03
X004230Y017590
X004230Y019590
X018720Y016560
X019720Y016560
X020730Y016560
X024020Y016560
X025030Y016560
X026030Y016560
X031190Y015890
X031190Y018390
X031190Y020890
X038160Y020890
X038160Y018390
X038160Y015890
X041000Y025500
X041000Y028500
T04
X011740Y013520
X011740Y015760
X036920Y028070
X036920Y030040
X036920Y033970
X036920Y035940
X041000Y029160
X041000Y027000
X041000Y024830
T05
X007880Y024730
X007880Y030730
X023880Y030730
X023880Y024730
T06
X003940Y014100
X003940Y035750
X040550Y035750
X040550Y014100
T07
X029370Y018390
X033150Y034990
M30
