%FSLAX34Y34*%
%MOMM*%
%LNSILK_TOP*%
G71*
G01*
%ADD10C,0.000*%
%ADD11C,0.150*%
%ADD12C,0.127*%
%ADD13C,0.175*%
%ADD14C,0.254*%
%ADD15C,0.206*%
%ADD16C,0.300*%
%ADD17C,0.700*%
%ADD18C,0.200*%
%ADD19C,0.222*%
%ADD20C,0.100*%
%ADD21C,0.090*%
%ADD22C,0.140*%
%ADD23C,0.250*%
%ADD24C,0.079*%
%ADD25C,0.800*%
%ADD26C,0.318*%
%ADD27C,0.600*%
%ADD28C,0.365*%
%ADD29C,0.286*%
%ADD30C,0.144*%
%LPD*%
G54D10*
X191334Y627078D02*
X191284Y628018D01*
X191334Y628958D01*
X191487Y629898D01*
X191741Y630812D01*
X192071Y631701D01*
X192503Y632539D01*
X193036Y633327D01*
X193646Y634038D01*
X194332Y634698D01*
X195068Y635282D01*
X195856Y635790D01*
X196719Y636197D01*
X197608Y636527D01*
X198523Y636756D01*
X199462Y636882D01*
X200402Y636908D01*
X201342Y636832D01*
X202282Y636654D01*
X203196Y636375D01*
X204060Y636019D01*
X204898Y635562D01*
X205660Y635003D01*
X206371Y634393D01*
X207006Y633682D01*
X207590Y632920D01*
X208073Y632107D01*
X208454Y631244D01*
X208759Y630355D01*
X208962Y629440D01*
X209064Y628501D01*
X209064Y627535D01*
X208962Y626596D01*
X208759Y625681D01*
X208454Y624792D01*
X208073Y623929D01*
X207590Y623116D01*
X207006Y622354D01*
X206371Y621642D01*
X205660Y621033D01*
X204898Y620474D01*
X204060Y620017D01*
X203196Y619661D01*
X202282Y619382D01*
X201342Y619204D01*
X200402Y619128D01*
X199462Y619153D01*
X198523Y619280D01*
X197608Y619509D01*
X196719Y619839D01*
X195856Y620246D01*
X195068Y620754D01*
X194332Y621338D01*
X193646Y621998D01*
X193036Y622710D01*
X192503Y623497D01*
X192071Y624335D01*
X191741Y625224D01*
X191487Y626138D01*
X191334Y627078D01*
G54D10*
X191334Y779478D02*
X191284Y780418D01*
X191334Y781358D01*
X191487Y782298D01*
X191741Y783212D01*
X192071Y784101D01*
X192503Y784939D01*
X193036Y785727D01*
X193646Y786438D01*
X194332Y787098D01*
X195068Y787682D01*
X195856Y788190D01*
X196719Y788597D01*
X197608Y788927D01*
X198523Y789156D01*
X199462Y789283D01*
X200402Y789308D01*
X201342Y789232D01*
X202282Y789054D01*
X203196Y788775D01*
X204060Y788419D01*
X204898Y787962D01*
X205660Y787403D01*
X206371Y786793D01*
X207006Y786082D01*
X207590Y785320D01*
X208073Y784507D01*
X208454Y783644D01*
X208759Y782755D01*
X208962Y781840D01*
X209064Y780901D01*
X209064Y779935D01*
X208962Y778996D01*
X208759Y778081D01*
X208454Y777192D01*
X208073Y776329D01*
X207590Y775516D01*
X207006Y774754D01*
X206371Y774043D01*
X205660Y773433D01*
X204898Y772874D01*
X204060Y772417D01*
X203196Y772061D01*
X202282Y771782D01*
X201342Y771604D01*
X200402Y771528D01*
X199462Y771553D01*
X198523Y771680D01*
X197608Y771909D01*
X196719Y772239D01*
X195856Y772646D01*
X195068Y773153D01*
X194332Y773738D01*
X193646Y774398D01*
X193036Y775109D01*
X192503Y775897D01*
X192071Y776735D01*
X191741Y777624D01*
X191487Y778538D01*
X191334Y779478D01*
G54D10*
X597734Y627078D02*
X597684Y628018D01*
X597734Y628958D01*
X597887Y629898D01*
X598141Y630812D01*
X598471Y631701D01*
X598903Y632539D01*
X599436Y633327D01*
X600046Y634038D01*
X600732Y634698D01*
X601468Y635282D01*
X602256Y635790D01*
X603119Y636197D01*
X604008Y636527D01*
X604923Y636756D01*
X605862Y636883D01*
X606802Y636908D01*
X607742Y636832D01*
X608682Y636654D01*
X609596Y636375D01*
X610460Y636019D01*
X611298Y635562D01*
X612060Y635003D01*
X612772Y634394D01*
X613406Y633682D01*
X613990Y632920D01*
X614474Y632108D01*
X614854Y631244D01*
X615159Y630355D01*
X615362Y629440D01*
X615464Y628501D01*
X615464Y627535D01*
X615362Y626596D01*
X615159Y625681D01*
X614854Y624792D01*
X614474Y623929D01*
X613990Y623116D01*
X613406Y622354D01*
X612772Y621643D01*
X612060Y621033D01*
X611298Y620474D01*
X610460Y620017D01*
X609596Y619661D01*
X608682Y619382D01*
X607742Y619204D01*
X606802Y619128D01*
X605862Y619154D01*
X604923Y619280D01*
X604008Y619509D01*
X603120Y619839D01*
X602256Y620246D01*
X601468Y620754D01*
X600732Y621338D01*
X600046Y621998D01*
X599436Y622709D01*
X598903Y623497D01*
X598471Y624335D01*
X598141Y625224D01*
X597887Y626138D01*
X597734Y627078D01*
G54D11*
X215846Y648541D02*
X212162Y648541D01*
X212162Y641150D01*
X215846Y641150D01*
X217065Y642394D01*
X217065Y647296D01*
X215846Y648541D01*
G54D11*
X219630Y646077D02*
X222094Y648541D01*
X222094Y641150D01*
G54D11*
X219630Y641150D02*
X224558Y641150D01*
G54D11*
X227123Y642394D02*
X228342Y641150D01*
X230806Y641150D01*
X232025Y642394D01*
X232025Y643614D01*
X230806Y644858D01*
X229587Y644858D01*
G54D11*
X230806Y644858D02*
X232025Y646078D01*
X232025Y647296D01*
X230806Y648541D01*
X228342Y648541D01*
X227123Y647297D01*
G54D11*
X237562Y647297D02*
X238782Y648541D01*
X241246Y648541D01*
X242465Y647296D01*
X242465Y646078D01*
X241246Y644858D01*
X242465Y643614D01*
X242465Y642394D01*
X241245Y641150D01*
X238782Y641150D01*
X237562Y642394D01*
G54D11*
X240001Y644858D02*
X241246Y644858D01*
G54D11*
X245030Y646078D02*
X247494Y641150D01*
X249958Y646078D01*
G54D11*
X252523Y647296D02*
X253742Y648541D01*
X256206Y648541D01*
X257425Y647297D01*
X257425Y646078D01*
X256206Y644858D01*
X257425Y643614D01*
X257425Y642394D01*
X256206Y641150D01*
X253742Y641150D01*
X252523Y642394D01*
G54D11*
X254987Y644858D02*
X256206Y644858D01*
G54D11*
X266188Y644071D02*
X269871Y644071D01*
X271090Y645315D01*
X271090Y647754D01*
X269871Y648998D01*
X266188Y648998D01*
X266188Y641632D01*
G54D11*
X268627Y644071D02*
X271090Y641632D01*
G54D11*
X278584Y641632D02*
X273656Y641632D01*
X273656Y648998D01*
X278584Y648998D01*
G54D11*
X286051Y648998D02*
X281149Y648998D01*
X281149Y641632D01*
G54D11*
X273656Y645316D02*
X276120Y645316D01*
G54D11*
X281149Y645315D02*
X283613Y645315D01*
G54D11*
X298446Y641150D02*
X298446Y646077D01*
X295982Y648541D01*
X293544Y646077D01*
X293544Y641150D01*
G54D11*
X293544Y644858D02*
X298446Y644858D01*
G54D11*
X302256Y641150D02*
X301012Y642394D01*
X305940Y647296D01*
X305940Y642394D01*
X304695Y641150D01*
X302256Y641150D01*
G54D11*
X301012Y642394D02*
X301012Y647297D01*
X302256Y648541D01*
X304695Y648541D01*
X305940Y647296D01*
G54D11*
X319401Y640693D02*
X319401Y645620D01*
X321865Y648084D01*
X324304Y645620D01*
X324304Y640693D01*
G54D11*
X326869Y640693D02*
X331797Y640693D01*
G54D11*
X329333Y640693D02*
X329333Y648084D01*
X326869Y645620D01*
G54D11*
X324304Y644376D02*
X319401Y644376D01*
G54D11*
X344344Y641150D02*
X344344Y646078D01*
X346783Y648541D01*
X349246Y646078D01*
X349246Y641150D01*
G54D11*
X356739Y641150D02*
X351812Y641150D01*
X356739Y646077D01*
X356739Y647297D01*
X355495Y648541D01*
X353056Y648541D01*
X351812Y647297D01*
G54D11*
X349246Y644858D02*
X344344Y644858D01*
G54D11*
X369744Y641150D02*
X369744Y646078D01*
X372183Y648541D01*
X374646Y646078D01*
X374646Y641150D01*
G54D11*
X377212Y642394D02*
X378456Y641150D01*
X380895Y641150D01*
X382140Y642394D01*
X382140Y643614D01*
X380895Y644858D01*
X379676Y644858D01*
G54D11*
X380895Y644858D02*
X382140Y646078D01*
X382140Y647297D01*
X380895Y648541D01*
X378456Y648541D01*
X377212Y647297D01*
G54D11*
X374646Y644858D02*
X369744Y644858D01*
G54D11*
X394687Y644858D02*
X399589Y644858D01*
G54D11*
X394687Y641150D02*
X394687Y646077D01*
X397126Y648541D01*
X399590Y646078D01*
X399589Y641150D01*
G54D11*
X407082Y644858D02*
X402155Y644858D01*
X405838Y648541D01*
X405838Y641150D01*
G54D11*
X420087Y641150D02*
X420087Y646077D01*
X422526Y648541D01*
X424989Y646078D01*
X424990Y641150D01*
G54D11*
X427554Y642394D02*
X428799Y641150D01*
X431237Y641150D01*
X432482Y642394D01*
X432482Y644858D01*
X431237Y646078D01*
X430018Y646077D01*
X427554Y644858D01*
X427554Y648541D01*
X432482Y648541D01*
G54D11*
X424990Y644858D02*
X420087Y644858D01*
G54D11*
X445944Y645316D02*
X450846Y645315D01*
G54D11*
X445944Y641632D02*
X445944Y646534D01*
X448382Y648998D01*
X450846Y646535D01*
X450846Y641632D01*
G54D11*
X458339Y648998D02*
X455875Y647754D01*
X453412Y645316D01*
X453412Y642852D01*
X454656Y641632D01*
X457095Y641632D01*
X458339Y642852D01*
X458340Y644071D01*
X457095Y645315D01*
X453412Y645316D01*
G54D11*
X471802Y641632D02*
X471801Y646534D01*
X474265Y648998D01*
X476703Y646535D01*
X476704Y641632D01*
G54D11*
X479269Y641632D02*
X479269Y642852D01*
X484197Y647754D01*
X484197Y648998D01*
X479269Y648998D01*
G54D11*
X476703Y645316D02*
X471801Y645315D01*
G54D11*
X500275Y648541D02*
X495348Y648541D01*
X495348Y644858D01*
X497811Y646078D01*
X499030Y646078D01*
X500275Y644858D01*
X500275Y642394D01*
X499030Y641150D01*
X496592Y641150D01*
X495348Y642394D01*
G54D11*
X502840Y646078D02*
X505304Y641150D01*
X507742Y646077D01*
G54D11*
X518792Y643614D02*
X522474Y643614D01*
X523719Y644858D01*
X523719Y647296D01*
X522474Y648541D01*
X518791Y648541D01*
X518791Y641150D01*
G54D11*
X521256Y643614D02*
X523719Y641150D01*
G54D11*
X526284Y642394D02*
X527504Y641150D01*
X529967Y641150D01*
X531187Y642394D01*
X531187Y643614D01*
X529967Y644858D01*
X527504Y644858D01*
X526284Y646078D01*
X526284Y647297D01*
X527504Y648541D01*
X529967Y648541D01*
X531187Y647296D01*
G54D11*
X533778Y648541D02*
X538679Y648541D01*
G54D11*
X536216Y648541D02*
X536216Y641150D01*
G54D11*
X548966Y645315D02*
X551405Y645315D01*
X551405Y642852D01*
X550186Y641632D01*
X547722Y641632D01*
X546503Y642852D01*
X546503Y647754D01*
X547722Y648998D01*
X550186Y648998D01*
X551405Y647754D01*
G54D11*
X553996Y641632D02*
X553996Y648998D01*
X558898Y641632D01*
X558898Y648998D01*
G54D11*
X565146Y648998D02*
X561464Y648998D01*
X561464Y641632D01*
X565146Y641632D01*
X566391Y642852D01*
X566391Y647754D01*
X565146Y648998D01*
G54D11*
X572080Y648541D02*
X572080Y643614D01*
X574544Y641150D01*
X577008Y643614D01*
X577008Y648541D01*
G54D11*
X579573Y648541D02*
X582038Y648541D01*
G54D11*
X580793Y648541D02*
X580793Y641150D01*
G54D11*
X579574Y641150D02*
X582037Y641150D01*
G54D11*
X584578Y641150D02*
X584577Y648541D01*
X589480Y641150D01*
X589480Y648541D01*
G54D11*
X301012Y761190D02*
X302256Y759971D01*
X304695Y759971D01*
X305940Y761190D01*
X305940Y766118D01*
X304695Y767337D01*
X302256Y767337D01*
X301012Y766118D01*
X301012Y764873D01*
X302256Y763654D01*
X305940Y763654D01*
G54D11*
X298446Y766118D02*
X298446Y761190D01*
X297227Y759971D01*
X293544Y759971D01*
X293544Y767337D01*
X297227Y767337D01*
X298446Y766118D01*
G54D11*
X275612Y761190D02*
X275612Y766118D01*
X276856Y767337D01*
X279295Y767337D01*
X280539Y766118D01*
X280539Y761190D01*
X279295Y759971D01*
X276856Y759971D01*
X275612Y761190D01*
X280539Y766118D01*
G54D11*
X270582Y759971D02*
X270582Y767337D01*
X268144Y764873D01*
G54D11*
X264334Y767337D02*
X265579Y766118D01*
X265579Y761190D01*
X264334Y759971D01*
X260651Y759971D01*
X260651Y767337D01*
X264334Y767337D01*
G54D11*
X268144Y759971D02*
X273046Y759971D01*
G54D11*
X255139Y759971D02*
X250212Y759971D01*
G54D11*
X252676Y759971D02*
X252676Y767337D01*
X250212Y764873D01*
G54D11*
X247646Y759971D02*
X242744Y759971D01*
G54D11*
X245182Y759971D02*
X245182Y767337D01*
X242744Y764873D01*
G54D11*
X238934Y767337D02*
X240179Y766118D01*
X240179Y761190D01*
X238934Y759971D01*
X235251Y759971D01*
X235251Y767337D01*
X238934Y767337D01*
G54D11*
X224812Y766118D02*
X226056Y767337D01*
X228495Y767337D01*
X229739Y766118D01*
X229739Y764873D01*
X224812Y759971D01*
X229739Y759971D01*
G54D11*
X222246Y759971D02*
X217344Y759971D01*
G54D11*
X219783Y759971D02*
X219783Y767337D01*
X217344Y764873D01*
G54D11*
X214779Y761190D02*
X214779Y766118D01*
X213534Y767337D01*
X209851Y767337D01*
X209851Y759971D01*
X213534Y759971D01*
X214779Y761190D01*
G54D11*
X167277Y713746D02*
X168497Y714965D01*
X169741Y714965D01*
X170961Y713746D01*
X170961Y710038D01*
X163595Y710038D01*
X163594Y713746D01*
X164814Y714965D01*
X166058Y714965D01*
X167277Y713746D01*
X167277Y710038D01*
G54D11*
X164814Y707472D02*
X163594Y706253D01*
X163595Y703789D01*
X164814Y702570D01*
X166058Y702570D01*
X167277Y703789D01*
X167277Y706253D01*
X168497Y707472D01*
X169741Y707472D01*
X170961Y706253D01*
X170961Y703789D01*
X169741Y702570D01*
G54D11*
X163594Y695077D02*
X169741Y695077D01*
X170961Y696322D01*
X170961Y698760D01*
X169741Y700005D01*
X163594Y700005D01*
G54D11*
X318944Y767337D02*
X318944Y759971D01*
X322627Y759971D01*
X323846Y761190D01*
X323846Y766118D01*
X322627Y767337D01*
X318944Y767337D01*
G54D11*
X327656Y759971D02*
X326412Y761190D01*
X326412Y762435D01*
X327656Y763654D01*
X330095Y763654D01*
X331339Y762435D01*
X331339Y761190D01*
X330095Y759971D01*
X327656Y759971D01*
G54D11*
X327656Y763654D02*
X326412Y764873D01*
X326412Y766118D01*
X327656Y767337D01*
X330095Y767337D01*
X331339Y766118D01*
X331339Y764873D01*
X330095Y763654D01*
G54D11*
X344344Y767337D02*
X344344Y759971D01*
X348027Y759971D01*
X349246Y761190D01*
X349246Y766118D01*
X348027Y767337D01*
X344344Y767337D01*
G54D11*
X351812Y759971D02*
X351812Y761190D01*
X356739Y766118D01*
X356739Y767337D01*
X351812Y767337D01*
G54D11*
X373427Y767337D02*
X369744Y767337D01*
X369744Y759971D01*
X373427Y759971D01*
X374646Y761190D01*
X374646Y766118D01*
X373427Y767337D01*
G54D11*
X377212Y761190D02*
X377212Y763654D01*
X380895Y763654D01*
X382140Y762435D01*
X382140Y761190D01*
X380895Y759971D01*
X378456Y759971D01*
X377212Y761190D01*
G54D11*
X377212Y763654D02*
X379676Y766118D01*
X382140Y767337D01*
G54D11*
X398827Y767337D02*
X395144Y767337D01*
X395144Y759971D01*
X398828Y759971D01*
X400046Y761190D01*
X400046Y766118D01*
X398827Y767337D01*
G54D11*
X407539Y767337D02*
X402612Y767337D01*
X402612Y763654D01*
X405076Y764873D01*
X406295Y764873D01*
X407540Y763654D01*
X407540Y761190D01*
X406295Y759971D01*
X403856Y759971D01*
X402612Y761190D01*
G54D11*
X424228Y767337D02*
X420544Y767337D01*
X420544Y759971D01*
X424227Y759971D01*
X425446Y761190D01*
X425446Y766118D01*
X424228Y767337D01*
G54D11*
X431695Y759971D02*
X431695Y767337D01*
X428012Y763654D01*
X432939Y763654D01*
G54D11*
X445944Y767337D02*
X445944Y759971D01*
X449627Y759971D01*
X450846Y761190D01*
X450846Y766118D01*
X449628Y767337D01*
X445944Y767337D01*
G54D11*
X453412Y761190D02*
X454656Y759971D01*
X457095Y759971D01*
X458340Y761190D01*
X458339Y762435D01*
X457095Y763654D01*
X455875Y763654D01*
G54D11*
X457095Y763654D02*
X458339Y764873D01*
X458340Y766118D01*
X457095Y767337D01*
X454656Y767337D01*
X453412Y766118D01*
G54D11*
X475028Y767337D02*
X471344Y767337D01*
X471344Y759971D01*
X475027Y759971D01*
X476246Y761190D01*
X476246Y766118D01*
X475028Y767337D01*
G54D11*
X478812Y766118D02*
X480056Y767337D01*
X482495Y767337D01*
X483740Y766118D01*
X483740Y764873D01*
X478812Y759971D01*
X483740Y759971D01*
G54D11*
X498065Y763654D02*
X500529Y763654D01*
X500529Y761190D01*
X499284Y759971D01*
X496820Y759971D01*
X495601Y761190D01*
X495601Y766118D01*
X496820Y767337D01*
X499284Y767337D01*
X500529Y766118D01*
G54D11*
X503094Y759971D02*
X503094Y767337D01*
X507996Y759971D01*
X507996Y767337D01*
G54D11*
X510562Y759971D02*
X510562Y767337D01*
X514245Y767337D01*
X515489Y766118D01*
X515489Y761190D01*
X514245Y759971D01*
X510562Y759971D01*
G54D11*
X521001Y759971D02*
X521001Y767337D01*
X524684Y767337D01*
X525929Y766118D01*
X525929Y763654D01*
X524684Y762435D01*
X521001Y762435D01*
G54D11*
X523465Y762435D02*
X525929Y759971D01*
G54D11*
X528494Y761190D02*
X529714Y759971D01*
X532177Y759971D01*
X533396Y761190D01*
X533396Y762435D01*
X532178Y763654D01*
X529714Y763654D01*
X528494Y764873D01*
X528494Y766118D01*
X529713Y767337D01*
X532177Y767337D01*
X533396Y766118D01*
G54D11*
X535962Y767337D02*
X540889Y767337D01*
G54D11*
X538426Y767337D02*
X538426Y759971D01*
G54D11*
X546401Y759971D02*
X546402Y767337D01*
X550084Y767337D01*
X551329Y766118D01*
X551329Y763654D01*
X550084Y762435D01*
X546401Y762435D01*
G54D11*
X548865Y762435D02*
X551329Y759971D01*
G54D11*
X553894Y759971D02*
X558797Y767337D01*
G54D11*
X566290Y766118D02*
X565045Y767337D01*
X562606Y767337D01*
X561362Y766118D01*
X561362Y761190D01*
X566290Y766118D01*
X566290Y761190D01*
X565045Y759971D01*
X562606Y759971D01*
X561362Y761190D01*
G54D11*
X558796Y759971D02*
X553894Y767337D01*
G54D11*
X571802Y767337D02*
X576729Y767337D01*
G54D11*
X574265Y767337D02*
X574265Y759971D01*
G54D11*
X579294Y759971D02*
X584196Y767337D01*
G54D11*
X586762Y764873D02*
X589226Y767337D01*
X589225Y759971D01*
G54D11*
X586762Y759971D02*
X591690Y759971D01*
G54D11*
X584196Y759971D02*
X579294Y767337D01*
G54D12*
X621814Y795658D02*
X621814Y612778D01*
X184934Y612778D01*
X184934Y795658D01*
X621814Y795658D01*
G54D13*
X174314Y874242D02*
X174314Y877175D01*
X177370Y877175D01*
X178592Y876442D01*
X179204Y874975D01*
X179204Y873509D01*
X178592Y872042D01*
X177370Y871309D01*
X171259Y871309D01*
X170037Y872042D01*
X169426Y873509D01*
X169426Y874975D01*
X170037Y876442D01*
X171259Y877175D01*
G54D13*
X179204Y880598D02*
X169426Y880598D01*
X179204Y886464D01*
X169426Y886464D01*
G54D13*
X179204Y889887D02*
X169426Y889887D01*
X169426Y893553D01*
X170037Y895020D01*
X171259Y895753D01*
X177370Y895753D01*
X178592Y895020D01*
X179204Y893553D01*
X179204Y889887D01*
G54D13*
X195619Y869721D02*
X205397Y873388D01*
X195619Y877054D01*
G54D13*
X205397Y880476D02*
X195619Y880476D01*
X195619Y884143D01*
X196230Y885609D01*
X197453Y886343D01*
X203564Y886343D01*
X204786Y885609D01*
X205397Y884143D01*
X205397Y880476D01*
G54D13*
X205397Y889765D02*
X195619Y889765D01*
X195619Y893432D01*
X196230Y894898D01*
X197453Y895632D01*
X203564Y895632D01*
X204786Y894898D01*
X205397Y893432D01*
X205397Y889765D01*
G54D13*
X219829Y919330D02*
X229606Y922997D01*
X219829Y926664D01*
G54D13*
X221662Y935952D02*
X227773Y935952D01*
X228996Y935219D01*
X229606Y933752D01*
X229606Y932286D01*
X228996Y930819D01*
X227773Y930086D01*
X221662Y930086D01*
X220440Y930819D01*
X219829Y932286D01*
X219829Y933752D01*
X220440Y935219D01*
X221662Y935952D01*
G54D13*
X250912Y923454D02*
X252133Y925654D01*
X253356Y926388D01*
X255800Y926388D01*
G54D13*
X255800Y920521D02*
X246022Y920521D01*
X246022Y924188D01*
X246634Y925654D01*
X247856Y926388D01*
X249078Y926388D01*
X250300Y925654D01*
X250912Y924188D01*
X250912Y920521D01*
G54D13*
X253967Y929810D02*
X255189Y930543D01*
X255800Y932010D01*
X255800Y933477D01*
X255189Y934943D01*
X253967Y935677D01*
X252745Y935677D01*
X251522Y934943D01*
X250912Y933477D01*
X250912Y932010D01*
X250300Y930543D01*
X249078Y929810D01*
X247856Y929810D01*
X246634Y930543D01*
X246022Y932010D01*
X246022Y933477D01*
X246634Y934943D01*
X247856Y935677D01*
G54D13*
X276311Y923454D02*
X277533Y925654D01*
X278756Y926388D01*
X281200Y926388D01*
G54D13*
X281200Y920521D02*
X271422Y920521D01*
X271422Y924188D01*
X272033Y925654D01*
X273256Y926388D01*
X274478Y926388D01*
X275700Y925654D01*
X276311Y924188D01*
X276311Y920521D01*
G54D13*
X271422Y929810D02*
X281200Y929810D01*
X275089Y933477D01*
X281200Y937144D01*
X271422Y937144D01*
G54D13*
X307394Y925654D02*
X307394Y920521D01*
X297616Y920521D01*
X297616Y925654D01*
G54D13*
X302506Y920521D02*
X302506Y925654D01*
G54D13*
X331604Y920521D02*
X321826Y920521D01*
X321826Y924188D01*
X322437Y925654D01*
X323659Y926388D01*
X329770Y926388D01*
X330992Y925654D01*
X331604Y924188D01*
X331604Y920521D01*
G54D13*
X323659Y935677D02*
X329770Y935677D01*
X330992Y934944D01*
X331604Y933477D01*
X331604Y932010D01*
X330992Y930544D01*
X329770Y929810D01*
X323659Y929810D01*
X322437Y930544D01*
X321826Y932010D01*
X321826Y933477D01*
X322437Y934944D01*
X323659Y935677D01*
G54D13*
X357797Y920521D02*
X348019Y920521D01*
X348019Y924188D01*
X348630Y925654D01*
X349853Y926388D01*
X355964Y926388D01*
X357186Y925654D01*
X357797Y924188D01*
X357797Y920521D01*
G54D13*
X351686Y929810D02*
X348019Y933477D01*
X357797Y933477D01*
G54D13*
X383198Y920521D02*
X373420Y920521D01*
X373420Y924188D01*
X374030Y925654D01*
X375253Y926388D01*
X381364Y926388D01*
X382586Y925654D01*
X383198Y924188D01*
X383198Y920521D01*
G54D13*
X383198Y935677D02*
X383198Y929810D01*
X382586Y929810D01*
X381364Y930544D01*
X377698Y934944D01*
X376475Y935677D01*
X375253Y935677D01*
X374030Y934944D01*
X373420Y933477D01*
X373420Y932010D01*
X374030Y930544D01*
X375253Y929810D01*
G54D13*
X409391Y920521D02*
X399613Y920521D01*
X399613Y924188D01*
X400224Y925654D01*
X401446Y926388D01*
X407558Y926388D01*
X408780Y925654D01*
X409391Y924188D01*
X409391Y920521D01*
G54D13*
X401446Y929810D02*
X400224Y930544D01*
X399613Y932010D01*
X399613Y933477D01*
X400224Y934944D01*
X401446Y935677D01*
X402669Y935677D01*
X403891Y934944D01*
X404502Y933477D01*
X405113Y934944D01*
X406336Y935677D01*
X407558Y935677D01*
X408780Y934944D01*
X409391Y933477D01*
X409391Y932010D01*
X408780Y930544D01*
X407558Y929810D01*
G54D13*
X433600Y920521D02*
X423822Y920521D01*
X423822Y924188D01*
X424434Y925654D01*
X425656Y926388D01*
X431767Y926388D01*
X432990Y925654D01*
X433600Y924188D01*
X433600Y920521D01*
G54D13*
X433600Y934210D02*
X423822Y934210D01*
X429934Y929810D01*
X431156Y929810D01*
X431156Y935677D01*
G54D13*
X459794Y920521D02*
X450016Y920521D01*
X450016Y924188D01*
X450628Y925654D01*
X451850Y926388D01*
X457961Y926388D01*
X459183Y925654D01*
X459794Y924188D01*
X459794Y920521D01*
G54D13*
X450016Y935677D02*
X450016Y929810D01*
X454294Y929810D01*
X454294Y930544D01*
X453683Y932010D01*
X453683Y933477D01*
X454294Y934944D01*
X455516Y935677D01*
X457961Y935677D01*
X459183Y934944D01*
X459794Y933477D01*
X459794Y932010D01*
X459183Y930544D01*
X457961Y929810D01*
G54D13*
X485194Y920918D02*
X475417Y920918D01*
X475417Y924585D01*
X476028Y926051D01*
X477250Y926785D01*
X483361Y926785D01*
X484583Y926051D01*
X485194Y924585D01*
X485194Y920918D01*
G54D13*
X477250Y936074D02*
X476028Y935340D01*
X475417Y933874D01*
X475417Y932407D01*
X476028Y930940D01*
X477250Y930207D01*
X480306Y930207D01*
X480917Y930207D01*
X479694Y932407D01*
X479694Y933874D01*
X480306Y935340D01*
X481528Y936074D01*
X483361Y936074D01*
X484583Y935340D01*
X485194Y933874D01*
X485194Y932407D01*
X484583Y930940D01*
X483361Y930207D01*
X480306Y930207D01*
G54D13*
X511388Y920918D02*
X501610Y920918D01*
X501610Y924585D01*
X502221Y926051D01*
X503444Y926785D01*
X509555Y926785D01*
X510777Y926051D01*
X511388Y924585D01*
X511388Y920918D01*
G54D13*
X501610Y930207D02*
X501610Y936074D01*
X502833Y935340D01*
X504666Y933874D01*
X507110Y932407D01*
X508944Y931674D01*
X511388Y931674D01*
G54D13*
X535598Y921712D02*
X525820Y925378D01*
X535598Y929045D01*
G54D13*
X531931Y923178D02*
X531931Y927578D01*
G54D13*
X561791Y921712D02*
X552013Y921712D01*
G54D13*
X558736Y921712D02*
X552013Y927578D01*
G54D13*
X556902Y923912D02*
X561791Y927578D01*
G54D11*
G75*
G01X129035Y781497D02*
G03X129035Y857597I0J38050D01*
G01*
G54D11*
X128984Y857647D02*
X90884Y857647D01*
X90884Y781447D01*
X128984Y781447D01*
G54D11*
G75*
G01X163784Y819547D02*
G03X163784Y819547I-34850J0D01*
G01*
G54D11*
X125809Y848122D02*
X125809Y822722D01*
X113109Y822722D01*
X113110Y816372D01*
X125810Y816372D01*
X125809Y790972D01*
X132160Y790972D01*
X132159Y816372D01*
X144859Y816372D01*
X144859Y822722D01*
X132159Y822722D01*
X132160Y848122D01*
X125809Y848122D01*
G54D11*
X90884Y854472D02*
X87709Y854472D01*
X87709Y835422D01*
X90885Y835422D01*
G54D11*
X90884Y803672D02*
X87710Y803672D01*
X87709Y784622D01*
X90884Y784622D01*
G54D14*
X283086Y702849D02*
X288420Y717072D01*
X293753Y702849D01*
G54D14*
X285220Y708183D02*
X291620Y708183D01*
G54D14*
X302998Y709960D02*
X306198Y708183D01*
X307265Y706405D01*
X307265Y702849D01*
G54D14*
X298732Y702849D02*
X298732Y717072D01*
X304065Y717072D01*
X306198Y716183D01*
X307265Y714405D01*
X307265Y712627D01*
X306198Y710849D01*
X304065Y709960D01*
X298732Y709960D01*
G54D14*
X312242Y702849D02*
X312242Y717072D01*
X317576Y717072D01*
X319709Y716183D01*
X320776Y714405D01*
X320776Y705516D01*
X319709Y703738D01*
X317576Y702849D01*
X312242Y702849D01*
G54D14*
X325754Y717072D02*
X325754Y705516D01*
X326820Y703738D01*
X328954Y702849D01*
X331087Y702849D01*
X333220Y703738D01*
X334287Y705516D01*
X334287Y717072D01*
G54D14*
X339264Y702849D02*
X339264Y717072D01*
G54D14*
X344242Y702849D02*
X344242Y717072D01*
X352776Y702849D01*
X352776Y717072D01*
G54D14*
X366287Y714405D02*
X366287Y705516D01*
X365220Y703738D01*
X363087Y702849D01*
X360954Y702849D01*
X358820Y703738D01*
X357754Y705516D01*
X357754Y714405D01*
X358820Y716183D01*
X360954Y717072D01*
X363087Y717072D01*
X365220Y716183D01*
X366287Y714405D01*
G54D14*
X376456Y702849D02*
X376456Y717072D01*
X384989Y702849D01*
X384989Y717072D01*
G54D14*
X389966Y702849D02*
X395300Y717072D01*
X400633Y702849D01*
G54D14*
X392100Y708183D02*
X398500Y708183D01*
G54D14*
X405612Y702849D02*
X405612Y717072D01*
X414145Y702849D01*
X414145Y717072D01*
G54D14*
X427656Y714405D02*
X427656Y705516D01*
X426589Y703738D01*
X424456Y702849D01*
X422322Y702849D01*
X420189Y703738D01*
X419122Y705516D01*
X419122Y714405D01*
X420189Y716183D01*
X422322Y717072D01*
X424456Y717072D01*
X426589Y716183D01*
X427656Y714405D01*
G54D15*
X138227Y935861D02*
X138227Y924306D01*
X144294Y924306D01*
G54D15*
X155271Y926472D02*
X154405Y925028D01*
X152671Y924306D01*
X150938Y924306D01*
X149205Y925028D01*
X148338Y926472D01*
X148338Y933694D01*
X149205Y935139D01*
X150938Y935861D01*
X152671Y935861D01*
X154405Y935139D01*
X155271Y933694D01*
G54D15*
X159315Y924306D02*
X159315Y935861D01*
X163648Y935861D01*
X165382Y935139D01*
X166248Y933694D01*
X166248Y926472D01*
X165382Y925028D01*
X163648Y924306D01*
X159315Y924306D01*
G54D15*
X177225Y924306D02*
X170292Y924306D01*
X170292Y925028D01*
X171159Y926472D01*
X176359Y930806D01*
X177225Y932250D01*
X177225Y933694D01*
X176359Y935139D01*
X174625Y935861D01*
X172892Y935861D01*
X171159Y935139D01*
X170292Y933694D01*
G54D15*
X188202Y933694D02*
X188202Y926472D01*
X187336Y925028D01*
X185602Y924306D01*
X183869Y924306D01*
X182136Y925028D01*
X181269Y926472D01*
X181269Y933694D01*
X182136Y935139D01*
X183869Y935861D01*
X185602Y935861D01*
X187336Y935139D01*
X188202Y933694D01*
G54D15*
X199179Y933694D02*
X199179Y926472D01*
X198313Y925028D01*
X196579Y924306D01*
X194846Y924306D01*
X193113Y925028D01*
X192246Y926472D01*
X192246Y933694D01*
X193113Y935139D01*
X194846Y935861D01*
X196579Y935861D01*
X198313Y935139D01*
X199179Y933694D01*
G54D15*
X208423Y924306D02*
X208423Y935861D01*
X203223Y928639D01*
X203223Y927194D01*
X210156Y927194D01*
G54D16*
X205978Y742156D02*
X174935Y742156D01*
X174774Y742318D01*
X174774Y666118D01*
X205743Y666118D01*
X205978Y666353D01*
G54D17*
X479574Y853443D02*
X268833Y853443D01*
G54D17*
X454174Y833202D02*
X319236Y833202D01*
G54D17*
X472033Y878446D02*
X352574Y878446D01*
G54D18*
X151606Y751681D02*
X151606Y758081D01*
X145306Y764381D01*
X132506Y764381D01*
X126206Y758081D01*
X126206Y745281D01*
X132506Y738981D01*
X145306Y738981D01*
X151606Y745281D01*
X151606Y751681D01*
G54D18*
X151606Y726281D02*
X151606Y732681D01*
X145306Y738981D01*
X132506Y738981D01*
X126206Y732681D01*
X126206Y719881D01*
X132506Y713581D01*
X145306Y713581D01*
X151606Y719881D01*
X151606Y726281D01*
G54D18*
X151606Y700881D02*
X151606Y707281D01*
X145306Y713581D01*
X132506Y713581D01*
X126206Y707281D01*
X126206Y694481D01*
X132506Y688181D01*
X145306Y688181D01*
X151606Y694481D01*
X151606Y700881D01*
G54D18*
X151606Y675481D02*
X151606Y681881D01*
X145306Y688181D01*
X132506Y688181D01*
X126206Y681881D01*
X126206Y669081D01*
X132506Y662781D01*
X145306Y662781D01*
X151606Y669081D01*
X151606Y675481D01*
G54D18*
X151606Y650081D02*
X151606Y656481D01*
X145306Y662781D01*
X132506Y662781D01*
X126206Y656481D01*
X126206Y643681D01*
X132506Y637381D01*
X145306Y637381D01*
X151606Y643681D01*
X151606Y650081D01*
G54D19*
X95945Y746109D02*
X89412Y746109D01*
X89412Y758553D01*
X95945Y758553D01*
G54D19*
X89412Y752331D02*
X95945Y752331D01*
G54D19*
X100300Y748442D02*
X101234Y746886D01*
X103100Y746109D01*
X104967Y746109D01*
X106834Y746886D01*
X107767Y748442D01*
X107767Y749998D01*
X106834Y751553D01*
X104967Y752331D01*
X103100Y752331D01*
X101234Y753109D01*
X100300Y754664D01*
X100300Y756220D01*
X101234Y757775D01*
X103100Y758553D01*
X104967Y758553D01*
X106834Y757775D01*
X107767Y756220D01*
G54D19*
X119590Y748442D02*
X118657Y746886D01*
X116790Y746109D01*
X114924Y746109D01*
X113057Y746886D01*
X112124Y748442D01*
X112124Y756220D01*
X113057Y757775D01*
X114924Y758553D01*
X116790Y758553D01*
X118657Y757775D01*
X119590Y756220D01*
G36*
X1057341Y730259D02*
X1057341Y641459D01*
X1063740Y641459D01*
X1063740Y730259D01*
X1057341Y730259D01*
G37*
G54D20*
X1057341Y730259D02*
X1057341Y641459D01*
X1063740Y641459D01*
X1063740Y730259D01*
X1057341Y730259D01*
G54D20*
X1063740Y730259D02*
X1025741Y730259D01*
X1025741Y641259D01*
X1063740Y641260D01*
X1063740Y730259D01*
G54D16*
X1056597Y605759D02*
X1056597Y765759D01*
X1021441Y765759D01*
X1021441Y605759D01*
X1056597Y605759D01*
X1056441Y605759D01*
X1056441Y765759D01*
G54D19*
X107197Y680814D02*
X107197Y673036D01*
X106264Y671480D01*
X104397Y670702D01*
X102530Y670702D01*
X100664Y671480D01*
X99730Y673036D01*
X99730Y680814D01*
X100664Y682369D01*
X102530Y683147D01*
X104397Y683147D01*
X106264Y682369D01*
X107197Y680814D01*
G54D19*
X111553Y670702D02*
X111553Y683147D01*
G54D19*
X111553Y674591D02*
X119020Y683147D01*
G54D19*
X114353Y676925D02*
X119020Y670702D01*
G54D19*
X85840Y696499D02*
X85840Y708944D01*
X90506Y708944D01*
X92373Y708166D01*
X93306Y706610D01*
X93306Y698833D01*
X92373Y697277D01*
X90506Y696499D01*
X85840Y696499D01*
G54D19*
X97663Y708944D02*
X97663Y696499D01*
X102329Y704277D01*
X106996Y696499D01*
X106996Y708944D01*
G54D19*
X111352Y696499D02*
X111352Y708944D01*
X118818Y696499D01*
X118818Y708944D01*
G54D19*
X98143Y733153D02*
X98143Y723042D01*
X99076Y721486D01*
X100943Y720709D01*
X102809Y720709D01*
X104676Y721486D01*
X105609Y723042D01*
X105609Y733153D01*
G54D19*
X109966Y720709D02*
X109966Y733153D01*
X114632Y733153D01*
X116499Y732375D01*
X117432Y730820D01*
X117432Y729264D01*
X116499Y727709D01*
X114632Y726931D01*
X109966Y726931D01*
G54D10*
X833626Y720828D02*
X833626Y720828D01*
G54D18*
X796126Y772128D02*
X796126Y670528D01*
G54D18*
X872326Y670528D02*
X796126Y670528D01*
G54D18*
X872326Y772128D02*
X872326Y670528D01*
G54D18*
X872326Y772128D02*
X840526Y772128D01*
G54D18*
X840526Y772128D02*
X840526Y759428D01*
G54D18*
X840526Y759428D02*
X827926Y759428D01*
G54D18*
X827926Y772128D02*
X827926Y759428D01*
G54D18*
X827926Y772128D02*
X796126Y772128D01*
G54D20*
X824526Y756428D02*
X824526Y756428D01*
X812626Y734028D01*
X836426Y734028D01*
X824526Y756428D01*
G54D20*
X812026Y734128D02*
X795326Y734128D01*
G54D20*
X824626Y759528D02*
X795926Y759528D01*
G54D20*
X831026Y708528D02*
X831026Y734028D01*
G54D20*
X831026Y708728D02*
X795926Y708728D01*
G54D20*
X824626Y756128D02*
X824626Y759328D01*
G54D20*
X845226Y728628D02*
X845226Y728628D01*
X833326Y706228D01*
X857126Y706228D01*
X845226Y728628D01*
G54D20*
X870726Y734128D02*
X845226Y734128D01*
G54D20*
X845226Y728328D02*
X845226Y733928D01*
G54D20*
X856126Y708728D02*
X872026Y708728D01*
G54D20*
X838026Y683128D02*
X838026Y706128D01*
G54D20*
X838626Y683328D02*
X872026Y683328D01*
G54D20*
X830826Y736328D02*
X830826Y740328D01*
G54D20*
X829326Y738128D02*
X832526Y738128D01*
G54D20*
X818226Y736328D02*
X818226Y739528D01*
G54D20*
X838726Y707728D02*
X838726Y711728D01*
G54D20*
X837226Y709528D02*
X840426Y709528D01*
G54D20*
X852326Y708528D02*
X852326Y711728D01*
G54D21*
X810826Y690328D02*
X810826Y686028D01*
G54D21*
X811726Y684028D02*
X807726Y681928D01*
X811726Y679728D01*
G54D21*
X859226Y764128D02*
X859226Y759828D01*
G54D21*
X861026Y762028D02*
X857426Y762028D01*
G54D21*
X860126Y757828D02*
X856126Y755728D01*
X860126Y753528D01*
G54D22*
X854526Y659228D02*
X854526Y667228D01*
X850326Y667228D01*
G54D22*
X847526Y667228D02*
X847526Y659228D01*
X844526Y664228D01*
X841526Y659228D01*
X841526Y667228D01*
G54D22*
X838726Y660728D02*
X838126Y659728D01*
X836926Y659228D01*
X835726Y659228D01*
X834526Y659728D01*
X833926Y660728D01*
X833926Y661728D01*
X834526Y662728D01*
X835726Y663228D01*
X834526Y663728D01*
X833926Y664728D01*
X833926Y665728D01*
X834526Y666728D01*
X835726Y667228D01*
X836926Y667228D01*
X838126Y666728D01*
X838726Y665728D01*
G54D22*
X826326Y659228D02*
X831126Y659228D01*
X831126Y662728D01*
X830526Y662728D01*
X829326Y662228D01*
X828126Y662228D01*
X826926Y662728D01*
X826326Y663728D01*
X826326Y665728D01*
X826926Y666728D01*
X828126Y667228D01*
X829326Y667228D01*
X830526Y666728D01*
X831126Y665728D01*
G54D22*
X820526Y663228D02*
X821726Y663228D01*
X822926Y662728D01*
X823526Y661728D01*
X823526Y660728D01*
X822926Y659728D01*
X821726Y659228D01*
X820526Y659228D01*
X819326Y659728D01*
X818726Y660728D01*
X818726Y661728D01*
X819326Y662728D01*
X820526Y663228D01*
X819326Y663728D01*
X818726Y664728D01*
X818726Y665728D01*
X819326Y666728D01*
X820526Y667228D01*
X821726Y667228D01*
X822926Y666728D01*
X823526Y665728D01*
X823526Y664728D01*
X822926Y663728D01*
X821726Y663228D01*
G54D11*
X781342Y719028D02*
X755942Y719028D01*
X755942Y647428D01*
X781342Y647428D01*
X781342Y719028D01*
G54D11*
X781739Y795228D02*
X756339Y795228D01*
X756339Y723628D01*
X781739Y723628D01*
X781739Y795228D01*
G54D20*
X804027Y831722D02*
X808027Y835722D01*
X816027Y835722D01*
X818027Y833722D01*
X850026Y833722D01*
X852026Y835722D01*
X860027Y835722D01*
X864026Y831722D01*
X864027Y815722D01*
X860027Y811722D01*
X852027Y811722D01*
X850027Y813722D01*
X818027Y813722D01*
X816026Y811722D01*
X808026Y811722D01*
X804026Y815722D01*
X804027Y831722D01*
G54D11*
X871910Y776097D02*
X871910Y801497D01*
X800311Y801497D01*
X800311Y776097D01*
X871910Y776097D01*
G54D11*
X937828Y780417D02*
X937828Y845441D01*
G54D11*
X902826Y692939D02*
X902826Y682932D01*
X972829Y682932D01*
X972829Y692939D01*
X972829Y780417D01*
X902826Y780417D01*
X902826Y692939D01*
G54D11*
X912834Y932918D02*
X962821Y932918D01*
X962821Y917932D01*
X962821Y800432D01*
X962821Y692939D01*
X912834Y692939D01*
X912834Y797917D01*
X912834Y920422D01*
X912834Y932918D01*
G54D11*
X902826Y845441D02*
X972829Y845440D01*
X972829Y942926D01*
X902826Y942927D01*
X902826Y845441D01*
G54D20*
X449956Y451688D02*
X551956Y451688D01*
X551956Y405688D01*
X449956Y405688D01*
X449956Y451688D01*
G54D20*
X449956Y437688D02*
X551956Y437688D01*
G54D20*
X449956Y437688D02*
X449956Y437694D01*
X463796Y451533D01*
G54D20*
X466574Y438039D02*
X480067Y451533D01*
G54D20*
X482897Y437688D02*
X482897Y437694D01*
X496736Y451532D01*
G54D20*
X499514Y437642D02*
X499514Y438039D01*
X513008Y451533D01*
G54D20*
X517028Y437688D02*
X517028Y437694D01*
X530867Y451533D01*
G54D20*
X534439Y437642D02*
X534439Y438039D01*
X547933Y451532D01*
G54D21*
X471066Y395276D02*
X471066Y402376D01*
G54D21*
X473066Y395276D02*
X473066Y402376D01*
X477366Y395276D01*
X477366Y402376D01*
G54D21*
X493766Y398876D02*
X495966Y398876D01*
X495966Y396576D01*
X495366Y395676D01*
X494366Y395276D01*
X493266Y395275D01*
X492166Y395676D01*
X491666Y396576D01*
X491666Y401076D01*
X492166Y401976D01*
X493266Y402376D01*
X494366Y402376D01*
X495366Y401976D01*
X495966Y401076D01*
G54D21*
X497966Y395276D02*
X497966Y402375D01*
X502266Y395276D01*
X502266Y402376D01*
G54D21*
X504266Y395276D02*
X504266Y402375D01*
X506966Y402376D01*
X507966Y401976D01*
X508566Y401076D01*
X508566Y396576D01*
X507966Y395676D01*
X506966Y395275D01*
X504266Y395276D01*
G54D21*
X521366Y401076D02*
X521366Y396576D01*
X520766Y395676D01*
X519766Y395276D01*
X518666Y395276D01*
X517566Y395676D01*
X517066Y396576D01*
X517066Y401076D01*
X517566Y401976D01*
X518666Y402376D01*
X519766Y402376D01*
X520766Y401976D01*
X521366Y401076D01*
G54D21*
X523366Y402375D02*
X523366Y396576D01*
X523866Y395676D01*
X524966Y395276D01*
X526066Y395276D01*
X527066Y395676D01*
X527666Y396576D01*
X527666Y402376D01*
G54D21*
X531766Y395275D02*
X531766Y402376D01*
G54D21*
X529666Y402376D02*
X533966Y402376D01*
G54D11*
X147750Y523481D02*
X147750Y421481D01*
G54D11*
X147750Y523481D02*
X67750Y523481D01*
X67750Y421481D01*
X147750Y421481D01*
G54D11*
X132750Y523481D02*
X132750Y421481D01*
G54D11*
X82750Y523481D02*
X82750Y421481D01*
G54D11*
X154381Y424178D02*
X179781Y424178D01*
X179781Y495778D01*
X154381Y495778D01*
X154381Y424178D01*
G54D23*
X223721Y401082D02*
X233196Y401082D01*
G54D23*
X228508Y395898D02*
X228508Y405870D01*
G54D11*
G75*
G01X254608Y375482D02*
G03X254608Y375482I-50000J0D01*
G01*
G54D20*
X584697Y451688D02*
X686696Y451688D01*
X686696Y405688D01*
X584697Y405688D01*
X584697Y451688D01*
G54D20*
X584697Y437688D02*
X686696Y437688D01*
G54D20*
X584697Y437688D02*
X584697Y437694D01*
X598536Y451533D01*
G54D20*
X601314Y438039D02*
X614808Y451533D01*
G54D20*
X617637Y437688D02*
X617638Y437694D01*
X631476Y451533D01*
G54D20*
X634254Y437642D02*
X634254Y438039D01*
X647748Y451533D01*
G54D20*
X651768Y437688D02*
X651769Y437694D01*
X665608Y451533D01*
G54D20*
X669179Y437642D02*
X669179Y438039D01*
X682673Y451533D01*
G54D21*
X605806Y395276D02*
X605806Y402376D01*
G54D21*
X607806Y395276D02*
X607806Y402376D01*
X612106Y395276D01*
X612106Y402376D01*
G54D21*
X628506Y398876D02*
X630706Y398876D01*
X630706Y396576D01*
X630106Y395676D01*
X629106Y395276D01*
X628006Y395276D01*
X626906Y395676D01*
X626406Y396576D01*
X626406Y401076D01*
X626906Y401976D01*
X628006Y402376D01*
X629106Y402376D01*
X630106Y401976D01*
X630706Y401076D01*
G54D21*
X632706Y395276D02*
X632706Y402376D01*
X637006Y395276D01*
X637006Y402376D01*
G54D21*
X639006Y395276D02*
X639006Y402376D01*
X641706Y402376D01*
X642706Y401976D01*
X643306Y401076D01*
X643306Y396576D01*
X642706Y395676D01*
X641706Y395276D01*
X639006Y395276D01*
G54D21*
X656106Y401076D02*
X656106Y396576D01*
X655506Y395676D01*
X654506Y395276D01*
X653406Y395276D01*
X652306Y395676D01*
X651806Y396576D01*
X651806Y401076D01*
X652306Y401976D01*
X653406Y402376D01*
X654506Y402376D01*
X655506Y401976D01*
X656106Y401076D01*
G54D21*
X658106Y402376D02*
X658106Y396576D01*
X658606Y395676D01*
X659706Y395276D01*
X660806Y395276D01*
X661806Y395676D01*
X662406Y396576D01*
X662406Y402376D01*
G54D21*
X666506Y395276D02*
X666506Y402376D01*
G54D21*
X664406Y402376D02*
X668706Y402376D01*
G54D11*
X391438Y412269D02*
X436438Y412269D01*
X436438Y332269D01*
X391438Y332269D01*
X391438Y412269D01*
G54D11*
X671408Y325960D02*
X696808Y325960D01*
X696808Y397560D01*
X671408Y397560D01*
X671408Y325960D01*
G54D11*
X483116Y374254D02*
X483116Y348854D01*
X554716Y348854D01*
X554716Y374254D01*
X483116Y374254D01*
G54D20*
X276776Y442689D02*
X272776Y438689D01*
X264776Y438689D01*
X262776Y440689D01*
X230777Y440689D01*
X228777Y438689D01*
X220776Y438689D01*
X216776Y442689D01*
X216776Y458688D01*
X220776Y462689D01*
X228776Y462689D01*
X230776Y460688D01*
X262776Y460688D01*
X264776Y462689D01*
X272777Y462689D01*
X276776Y458688D01*
X276776Y442689D01*
G54D20*
X361250Y419228D02*
X365250Y415228D01*
X365250Y407228D01*
X363250Y405228D01*
X363250Y373229D01*
X365250Y371229D01*
X365250Y363228D01*
X361250Y359228D01*
X345250Y359228D01*
X341250Y363228D01*
X341250Y371228D01*
X343250Y373228D01*
X343250Y405228D01*
X341250Y407228D01*
X341250Y415229D01*
X345250Y419228D01*
X361250Y419228D01*
G54D11*
X650591Y384054D02*
X650591Y339054D01*
X570591Y339054D01*
X570591Y384054D01*
X650591Y384054D01*
G54D11*
X494574Y600634D02*
X494574Y575234D01*
X566174Y575234D01*
X566174Y600634D01*
X494574Y600634D01*
G54D11*
X364421Y492286D02*
X415221Y492286D01*
G54D11*
G75*
G01X416471Y492286D02*
G03X363171Y492286I-26650J0D01*
G01*
G54D24*
X388486Y476804D02*
X388486Y481249D01*
X390152Y481249D01*
X390819Y480971D01*
X391152Y480416D01*
X391152Y479860D01*
X390819Y479304D01*
X390152Y479027D01*
X390819Y478749D01*
X391152Y478193D01*
X391152Y477638D01*
X390819Y477082D01*
X390152Y476804D01*
X388486Y476804D01*
G54D24*
X388486Y479027D02*
X390152Y479027D01*
G54D24*
X375654Y477638D02*
X375321Y477082D01*
X374654Y476804D01*
X373988Y476804D01*
X373321Y477082D01*
X372988Y477638D01*
X372988Y480416D01*
X373321Y480971D01*
X373988Y481249D01*
X374654Y481249D01*
X375321Y480971D01*
X375654Y480416D01*
G54D24*
X406143Y476408D02*
X403810Y476408D01*
X403810Y480852D01*
X406143Y480852D01*
G54D24*
X403810Y478630D02*
X406143Y478630D01*
G54D20*
X449077Y581918D02*
X453077Y577918D01*
X453077Y569918D01*
X451077Y567918D01*
X451077Y535918D01*
X453077Y533918D01*
X453077Y525918D01*
X449077Y521918D01*
X433077Y521918D01*
X429077Y525918D01*
X429077Y533918D01*
X431077Y535918D01*
X431078Y567918D01*
X429077Y569918D01*
X429077Y577918D01*
X433078Y581918D01*
X449077Y581918D01*
G54D20*
X564839Y535881D02*
X560839Y531881D01*
X552839Y531880D01*
X550839Y533880D01*
X518840Y533880D01*
X516840Y531880D01*
X508839Y531880D01*
X504840Y535880D01*
X504839Y551880D01*
X508839Y555880D01*
X516839Y555880D01*
X518839Y553880D01*
X550839Y553880D01*
X552840Y555880D01*
X560840Y555880D01*
X564840Y551880D01*
X564839Y535881D01*
G54D20*
X478842Y572393D02*
X482842Y568393D01*
X482843Y560393D01*
X480843Y558393D01*
X480843Y526393D01*
X482843Y524393D01*
X482843Y516392D01*
X478843Y512393D01*
X462843Y512393D01*
X458843Y516393D01*
X458843Y524393D01*
X460843Y526393D01*
X460843Y558393D01*
X458843Y560393D01*
X458843Y568393D01*
X462843Y572393D01*
X478842Y572393D01*
G54D18*
X364421Y474824D02*
X358021Y474824D01*
X351721Y468524D01*
X351721Y455724D01*
X358021Y449424D01*
X370821Y449424D01*
X377121Y455724D01*
X377121Y468524D01*
X370821Y474824D01*
X364421Y474824D01*
G54D18*
X389821Y474824D02*
X383421Y474824D01*
X377121Y468524D01*
X377121Y455724D01*
X383421Y449424D01*
X396221Y449424D01*
X402521Y455724D01*
X402521Y468524D01*
X396221Y474824D01*
X389821Y474824D01*
G54D18*
X415221Y474824D02*
X408821Y474824D01*
X402521Y468524D01*
X402521Y455724D01*
X408821Y449424D01*
X421621Y449424D01*
X427921Y455724D01*
X427921Y468524D01*
X421621Y474824D01*
X415221Y474824D01*
G54D20*
X473430Y730915D02*
X477430Y734915D01*
X485430Y734915D01*
X487430Y732915D01*
X519429Y732915D01*
X521429Y734915D01*
X529430Y734915D01*
X533429Y730915D01*
X533430Y714916D01*
X529430Y710915D01*
X521430Y710915D01*
X519430Y712916D01*
X487430Y712916D01*
X485429Y710915D01*
X477429Y710915D01*
X473429Y714916D01*
X473430Y730915D01*
G54D11*
X929003Y576309D02*
X884003Y576309D01*
X884003Y656309D01*
X929003Y656309D01*
X929003Y576309D01*
G54D11*
X990519Y576309D02*
X945519Y576309D01*
X945519Y656309D01*
X990519Y656309D01*
X990519Y576309D01*
G54D20*
X804162Y551622D02*
X808162Y555622D01*
X826162Y555622D01*
X830162Y554622D01*
X931162Y554622D01*
X935162Y555622D01*
X953162Y555622D01*
X957162Y551622D01*
X957162Y510622D01*
X952162Y505622D01*
X935162Y505622D01*
X931162Y506622D01*
X830162Y506622D01*
X825162Y505622D01*
X808162Y505622D01*
X804162Y509622D01*
X804162Y551622D01*
G54D20*
X830162Y554622D02*
X830162Y506622D01*
G54D20*
X931162Y554622D02*
X931162Y506622D01*
G54D20*
X804162Y534622D02*
X790162Y534622D01*
X790162Y526622D01*
X804162Y526622D01*
G54D20*
X957162Y526622D02*
X971162Y526622D01*
X971162Y534622D01*
X957162Y534622D01*
G54D20*
X804162Y488122D02*
X808162Y492122D01*
X826162Y492122D01*
X830162Y491122D01*
X931162Y491122D01*
X935162Y492122D01*
X953162Y492122D01*
X957162Y488122D01*
X957162Y447122D01*
X952162Y442122D01*
X935162Y442122D01*
X931162Y443122D01*
X830162Y443122D01*
X825162Y442122D01*
X808162Y442122D01*
X804162Y446122D01*
X804162Y488122D01*
G54D20*
X830162Y491122D02*
X830162Y443122D01*
G54D20*
X931162Y491122D02*
X931162Y443122D01*
G54D20*
X804162Y471122D02*
X790162Y471122D01*
X790162Y463122D01*
X804162Y463122D01*
G54D20*
X957162Y463122D02*
X971162Y463122D01*
X971162Y471122D01*
X957162Y471122D01*
G54D20*
X804162Y424622D02*
X808162Y428622D01*
X826162Y428622D01*
X830162Y427622D01*
X931162Y427622D01*
X935162Y428622D01*
X953162Y428622D01*
X957162Y424622D01*
X957162Y383622D01*
X952162Y378622D01*
X935162Y378622D01*
X931162Y379622D01*
X830162Y379622D01*
X825162Y378622D01*
X808162Y378622D01*
X804162Y382622D01*
X804162Y424622D01*
G54D20*
X830162Y427622D02*
X830162Y379622D01*
G54D20*
X931162Y427622D02*
X931162Y379622D01*
G54D20*
X804162Y407622D02*
X790162Y407622D01*
X790162Y399622D01*
X804162Y399622D01*
G54D20*
X957162Y399622D02*
X971162Y399622D01*
X971162Y407622D01*
X957162Y407622D01*
G54D11*
X134059Y560817D02*
X83259Y560817D01*
G54D11*
G75*
G01X82009Y560817D02*
G03X135309Y560817I26650J0D01*
G01*
G54D24*
X109994Y576298D02*
X109994Y571854D01*
X108327Y571854D01*
X107661Y572132D01*
X107327Y572687D01*
X107327Y573243D01*
X107661Y573798D01*
X108327Y574076D01*
X107661Y574354D01*
X107327Y574910D01*
X107327Y575465D01*
X107661Y576021D01*
X108327Y576298D01*
X109994Y576298D01*
G54D24*
X109994Y574076D02*
X108327Y574076D01*
G54D24*
X133144Y575465D02*
X133478Y576021D01*
X134144Y576298D01*
X134811Y576298D01*
X135478Y576021D01*
X135811Y575465D01*
X135811Y572687D01*
X135478Y572132D01*
X134811Y571854D01*
X134144Y571854D01*
X133478Y572132D01*
X133144Y572687D01*
G54D24*
X82416Y576696D02*
X84749Y576696D01*
X84749Y572251D01*
X82416Y572251D01*
G54D24*
X84749Y574474D02*
X82416Y574474D01*
G54D11*
G75*
G01X686232Y832173D02*
G03X762332Y832173I38050J0D01*
G01*
G54D11*
X762382Y832223D02*
X762382Y870323D01*
X686183Y870324D01*
X686182Y832223D01*
G54D11*
G75*
G01X759132Y832273D02*
G03X759132Y832273I-34850J0D01*
G01*
G54D11*
X759208Y870323D02*
X759208Y873498D01*
X740158Y873498D01*
X740158Y870323D01*
G54D11*
X708407Y870323D02*
X708407Y873498D01*
X689357Y873498D01*
X689358Y870323D01*
G54D20*
X707722Y778797D02*
X711722Y774797D01*
X711722Y766797D01*
X709722Y764797D01*
X709722Y732797D01*
X711722Y730797D01*
X711722Y722797D01*
X707722Y718797D01*
X691722Y718797D01*
X687722Y722797D01*
X687722Y730797D01*
X689722Y732797D01*
X689722Y764797D01*
X687722Y766797D01*
X687722Y774797D01*
X691722Y778797D01*
X707722Y778797D01*
G54D20*
X682322Y770066D02*
X686322Y766066D01*
X686322Y758066D01*
X684322Y756066D01*
X684322Y724066D01*
X686322Y722066D01*
X686322Y714065D01*
X682322Y710066D01*
X666322Y710066D01*
X662322Y714066D01*
X662322Y722066D01*
X664322Y724066D01*
X664322Y756066D01*
X662322Y758066D01*
X662322Y766066D01*
X666322Y770066D01*
X682322Y770066D01*
G54D20*
X598446Y836087D02*
X602446Y840087D01*
X610446Y840087D01*
X612446Y838087D01*
X644445Y838087D01*
X646445Y840087D01*
X654446Y840087D01*
X658445Y836087D01*
X658446Y820088D01*
X654446Y816087D01*
X646446Y816087D01*
X644446Y818088D01*
X612446Y818088D01*
X610445Y816087D01*
X602445Y816087D01*
X598445Y820088D01*
X598446Y836087D01*
G54D25*
X300186Y809390D02*
X543868Y809390D01*
G54D17*
X105966Y660003D02*
X105966Y620712D01*
G54D20*
X294370Y352586D02*
X294370Y400186D01*
G54D20*
G75*
G01X325270Y400286D02*
G03X325270Y400286I-27000J0D01*
G01*
G54D20*
X302270Y352586D02*
X302270Y400186D01*
G54D20*
X179637Y585757D02*
X175637Y581757D01*
X167637Y581757D01*
X165637Y583757D01*
X133638Y583757D01*
X131638Y581757D01*
X123637Y581757D01*
X119638Y585757D01*
X119637Y601757D01*
X123637Y605757D01*
X131637Y605757D01*
X133637Y603757D01*
X165637Y603757D01*
X167638Y605757D01*
X175638Y605757D01*
X179637Y601757D01*
X179637Y585757D01*
G54D18*
X157776Y525699D02*
X157776Y519298D01*
X164076Y512998D01*
X176876Y512998D01*
X183176Y519298D01*
X183176Y532099D01*
X176876Y538399D01*
X164076Y538398D01*
X157776Y532099D01*
X157776Y525699D01*
G54D18*
X157776Y551099D02*
X157776Y544698D01*
X164076Y538398D01*
X176876Y538399D01*
X183176Y544698D01*
X183176Y557499D01*
X176876Y563799D01*
X164076Y563799D01*
X157776Y557498D01*
X157776Y551099D01*
G54D20*
X731795Y707947D02*
X735795Y703947D01*
X735795Y695947D01*
X733795Y693947D01*
X733795Y661947D01*
X735795Y659947D01*
X735795Y651947D01*
X731795Y647947D01*
X715795Y647947D01*
X711795Y651947D01*
X711795Y659947D01*
X713795Y661947D01*
X713795Y693947D01*
X711795Y695947D01*
X711795Y703947D01*
X715795Y707947D01*
X731795Y707947D01*
G54D20*
X723795Y708678D02*
X723795Y718166D01*
G36*
X723295Y708678D02*
X724295Y708678D01*
X724295Y708178D01*
X723295Y708178D01*
X723295Y708678D01*
G37*
G36*
X724295Y718166D02*
X723295Y718166D01*
X723295Y718666D01*
X724295Y718666D01*
X724295Y718166D01*
G37*
G54D20*
X723795Y637241D02*
X723795Y647522D01*
G36*
X723295Y637241D02*
X724295Y637241D01*
X724295Y636741D01*
X723295Y636741D01*
X723295Y637241D01*
G37*
G36*
X724295Y647522D02*
X723295Y647522D01*
X723295Y648022D01*
X724295Y648022D01*
X724295Y647522D01*
G37*
G54D17*
X568722Y509191D02*
X684212Y509191D01*
G54D17*
X648494Y623094D02*
X648494Y738188D01*
G54D20*
X753674Y888746D02*
X749674Y884746D01*
X741674Y884746D01*
X739674Y886746D01*
X707674Y886746D01*
X705674Y884746D01*
X697674Y884746D01*
X693674Y888746D01*
X693674Y904746D01*
X697674Y908746D01*
X705674Y908746D01*
X707674Y906746D01*
X739674Y906746D01*
X741674Y908746D01*
X749674Y908746D01*
X753674Y904746D01*
X753674Y888746D01*
G54D20*
X754405Y896746D02*
X763892Y896746D01*
G36*
X754405Y897246D02*
X754405Y896246D01*
X753905Y896246D01*
X753905Y897246D01*
X754405Y897246D01*
G37*
G36*
X763892Y896246D02*
X763892Y897246D01*
X764392Y897246D01*
X764392Y896246D01*
X763892Y896246D01*
G37*
G54D20*
X682968Y896746D02*
X693249Y896746D01*
G36*
X682968Y897246D02*
X682968Y896246D01*
X682468Y896246D01*
X682468Y897246D01*
X682968Y897246D01*
G37*
G36*
X693249Y896246D02*
X693249Y897246D01*
X693749Y897246D01*
X693749Y896246D01*
X693249Y896246D01*
G37*
G54D20*
X476343Y702166D02*
X536282Y702166D01*
X536282Y678053D01*
X476343Y678053D01*
X476343Y702166D01*
G54D17*
X528344Y681228D02*
X528344Y699088D01*
G36*
X524844Y681228D02*
X531844Y681228D01*
X531844Y677728D01*
X524844Y677728D01*
X524844Y681228D01*
G37*
G36*
X531844Y699088D02*
X524844Y699088D01*
X524844Y702588D01*
X531844Y702588D01*
X531844Y699088D01*
G37*
G54D18*
X377974Y600634D02*
X371574Y600634D01*
X365274Y594334D01*
X365274Y581534D01*
X371574Y575234D01*
X384374Y575234D01*
X390674Y581534D01*
X390674Y594334D01*
X384374Y600634D01*
X377974Y600634D01*
G54D11*
X356624Y574837D02*
X356624Y600237D01*
X310424Y600237D01*
X310424Y574837D01*
X356624Y574837D01*
G54D11*
X305427Y574837D02*
X305427Y600237D01*
X259227Y600237D01*
X259227Y574837D01*
X305427Y574837D01*
G54D20*
X410236Y546596D02*
X410236Y549696D01*
G54D20*
G75*
G01X422936Y533896D02*
G03X422936Y533896I-12700J0D01*
G01*
G54D19*
X140855Y549216D02*
X153299Y549216D01*
X153299Y544549D01*
X152521Y542683D01*
X150966Y541749D01*
X149410Y541749D01*
X147855Y542683D01*
X147077Y544549D01*
X146299Y542683D01*
X144744Y541749D01*
X143188Y541749D01*
X141633Y542683D01*
X140855Y544549D01*
X140855Y549216D01*
G54D19*
X147077Y549216D02*
X147077Y544549D01*
G54D19*
X153299Y537393D02*
X153299Y529926D01*
X140855Y537393D01*
X140855Y529926D01*
G54D26*
X186759Y527350D02*
X197425Y527350D01*
G54D26*
X192092Y531795D02*
X192092Y522906D01*
G54D27*
G75*
G01X161307Y350482D02*
G03X247909Y350482I43301J25000D01*
G01*
G54D14*
X79093Y407050D02*
X87626Y407050D01*
G54D14*
X83359Y410605D02*
X83359Y403494D01*
G54D14*
X92604Y409716D02*
X97937Y415050D01*
X97937Y400827D01*
G54D14*
X111448Y400827D02*
X102915Y400827D01*
X102915Y401716D01*
X103981Y403494D01*
X110381Y408827D01*
X111448Y410605D01*
X111448Y412383D01*
X110381Y414161D01*
X108248Y415050D01*
X106115Y415050D01*
X103981Y414161D01*
X102915Y412383D01*
G54D14*
X116426Y415050D02*
X121759Y400827D01*
X127092Y415050D01*
G54D19*
X386274Y433371D02*
X386274Y445816D01*
G54D19*
X386274Y437260D02*
X393741Y445816D01*
G54D19*
X389074Y439593D02*
X393741Y433371D01*
G54D19*
X431915Y456787D02*
X436581Y469231D01*
X441248Y456787D01*
G54D19*
X433781Y461454D02*
X439381Y461454D01*
G54D19*
X335474Y457184D02*
X340141Y469628D01*
X344807Y457184D01*
G54D19*
X337341Y461850D02*
X342941Y461850D01*
G54D19*
X364446Y569641D02*
X364446Y557196D01*
X370979Y557196D01*
G54D19*
X375335Y557196D02*
X375335Y569641D01*
X380002Y561863D01*
X384668Y569641D01*
X384668Y557196D01*
G54D20*
X592858Y869092D02*
X588858Y865092D01*
X580858Y865092D01*
X578858Y867092D01*
X546859Y867092D01*
X544859Y865092D01*
X536858Y865092D01*
X532858Y869092D01*
X532858Y885092D01*
X536858Y889092D01*
X544858Y889092D01*
X546858Y887092D01*
X578858Y887091D01*
X580858Y889092D01*
X588859Y889092D01*
X592858Y885091D01*
X592858Y869092D01*
G54D20*
X225689Y570011D02*
X225689Y573111D01*
G54D20*
G75*
G01X238389Y557311D02*
G03X238389Y557311I-12700J0D01*
G01*
G54D11*
G75*
G01X318618Y523147D02*
G03X242518Y523147I-38050J0D01*
G01*
G54D11*
X242468Y523096D02*
X242468Y484996D01*
X318668Y484996D01*
X318668Y523096D01*
G54D11*
G75*
G01X315418Y523046D02*
G03X315418Y523046I-34850J0D01*
G01*
G54D11*
X245643Y484996D02*
X245643Y481821D01*
X264694Y481821D01*
X264693Y484996D01*
G54D11*
X296443Y484996D02*
X296443Y481822D01*
X315493Y481821D01*
X315493Y484996D01*
G54D20*
X216164Y500161D02*
X216164Y503261D01*
G54D20*
G75*
G01X228864Y487461D02*
G03X228864Y487461I-12700J0D01*
G01*
G54D18*
X411708Y601031D02*
X405308Y601031D01*
X399008Y594731D01*
X399008Y581931D01*
X405308Y575631D01*
X418108Y575631D01*
X424408Y581931D01*
X424408Y594731D01*
X418108Y601031D01*
X411708Y601031D01*
G54D15*
X231710Y451754D02*
X236044Y456087D01*
X236044Y444531D01*
G54D15*
X247021Y453920D02*
X247021Y446698D01*
X246154Y445254D01*
X244421Y444531D01*
X242688Y444531D01*
X240954Y445254D01*
X240088Y446698D01*
X240088Y453920D01*
X240954Y455365D01*
X242688Y456087D01*
X244421Y456087D01*
X246154Y455365D01*
X247021Y453920D01*
G54D15*
X251064Y444531D02*
X251064Y456087D01*
G54D15*
X251064Y448142D02*
X257998Y456087D01*
G54D15*
X253664Y450309D02*
X257998Y444531D01*
G54D15*
X354226Y400236D02*
X358559Y395902D01*
X347004Y395902D01*
G54D15*
X347004Y391858D02*
X358559Y391858D01*
G54D15*
X350615Y391858D02*
X358559Y384925D01*
G54D15*
X352781Y389258D02*
X347004Y384925D01*
G54D15*
X173370Y377538D02*
X177703Y381871D01*
X177703Y370316D01*
G54D15*
X188680Y379704D02*
X188680Y372482D01*
X187814Y371038D01*
X186080Y370316D01*
X184347Y370316D01*
X182614Y371038D01*
X181747Y372482D01*
X181747Y379704D01*
X182614Y381149D01*
X184347Y381871D01*
X186080Y381871D01*
X187814Y381149D01*
X188680Y379704D01*
G54D15*
X199657Y379704D02*
X199657Y372482D01*
X198791Y371038D01*
X197057Y370316D01*
X195324Y370316D01*
X193591Y371038D01*
X192724Y372482D01*
X192724Y379704D01*
X193591Y381149D01*
X195324Y381871D01*
X197057Y381871D01*
X198791Y381149D01*
X199657Y379704D01*
G54D15*
X210634Y379704D02*
X210634Y372482D01*
X209768Y371038D01*
X208034Y370316D01*
X206301Y370316D01*
X204568Y371038D01*
X203701Y372482D01*
X203701Y379704D01*
X204568Y381149D01*
X206301Y381871D01*
X208034Y381871D01*
X209768Y381149D01*
X210634Y379704D01*
G54D15*
X214678Y381871D02*
X214678Y372482D01*
X215545Y371038D01*
X217278Y370316D01*
X219011Y370316D01*
X220745Y371038D01*
X221611Y372482D01*
X221611Y381871D01*
G54D15*
X225655Y370316D02*
X225655Y381871D01*
X231722Y381871D01*
G54D15*
X225655Y376093D02*
X231722Y376093D01*
G54D15*
X399589Y374760D02*
X403922Y379093D01*
X403922Y367538D01*
G54D15*
X407966Y379093D02*
X407966Y369704D01*
X408832Y368260D01*
X410566Y367538D01*
X412299Y367538D01*
X414032Y368260D01*
X414899Y369704D01*
X414899Y379093D01*
G54D15*
X418943Y367538D02*
X418943Y379093D01*
X425009Y379093D01*
G54D15*
X418943Y373315D02*
X425009Y373315D01*
G54D15*
X267310Y391108D02*
X271644Y386774D01*
X260088Y386774D01*
G54D15*
X260088Y382730D02*
X271644Y382730D01*
X260088Y375797D01*
X271644Y375797D01*
G54D15*
X271644Y364820D02*
X271644Y371754D01*
X266588Y371754D01*
X266588Y370887D01*
X267310Y369154D01*
X267310Y367420D01*
X266588Y365687D01*
X265144Y364820D01*
X262255Y364820D01*
X260810Y365687D01*
X260088Y367420D01*
X260088Y369154D01*
X260810Y370887D01*
X262255Y371754D01*
G54D15*
X265866Y356443D02*
X265866Y358176D01*
X266588Y359910D01*
X268032Y360776D01*
X269477Y360776D01*
X270921Y359910D01*
X271644Y358176D01*
X271644Y356443D01*
X270921Y354710D01*
X269477Y353843D01*
X268032Y353843D01*
X266588Y354710D01*
X265866Y356443D01*
X265144Y354710D01*
X263699Y353843D01*
X262255Y353843D01*
X260810Y354710D01*
X260088Y356443D01*
X260088Y358176D01*
X260810Y359910D01*
X262255Y360776D01*
X263699Y360776D01*
X265144Y359910D01*
X265866Y358176D01*
G54D15*
X260088Y342866D02*
X260088Y349800D01*
X260810Y349800D01*
X262255Y348933D01*
X266588Y343733D01*
X268032Y342866D01*
X269477Y342866D01*
X270921Y343733D01*
X271644Y345466D01*
X271644Y347200D01*
X270921Y348933D01*
X269477Y349800D01*
G54D15*
X260088Y331889D02*
X260088Y338822D01*
X260810Y338822D01*
X262255Y337956D01*
X266588Y332756D01*
X268032Y331889D01*
X269477Y331889D01*
X270921Y332756D01*
X271644Y334489D01*
X271644Y336222D01*
X270921Y337956D01*
X269477Y338822D01*
G54D17*
G75*
G01X311770Y423668D02*
G03X284770Y423668I-13500J-23382D01*
G01*
G54D15*
X498410Y339041D02*
X502744Y343374D01*
X502744Y331819D01*
G54D15*
X513721Y341208D02*
X513721Y333985D01*
X512854Y332541D01*
X511121Y331819D01*
X509388Y331819D01*
X507654Y332541D01*
X506788Y333985D01*
X506788Y341208D01*
X507654Y342652D01*
X509388Y343374D01*
X511121Y343374D01*
X512854Y342652D01*
X513721Y341208D01*
G54D15*
X524698Y341208D02*
X524698Y333985D01*
X523831Y332541D01*
X522098Y331819D01*
X520364Y331819D01*
X518631Y332541D01*
X517764Y333985D01*
X517764Y341208D01*
X518631Y342652D01*
X520364Y343374D01*
X522098Y343374D01*
X523831Y342652D01*
X524698Y341208D01*
G54D15*
X528742Y331819D02*
X528742Y343374D01*
X535675Y331819D01*
X535675Y343374D01*
G54D15*
X612638Y373734D02*
X616971Y369400D01*
X605415Y369400D01*
G54D15*
X616971Y365357D02*
X607582Y365357D01*
X606138Y364490D01*
X605415Y362757D01*
X605415Y361023D01*
X606138Y359290D01*
X607582Y358423D01*
X616971Y358423D01*
G54D15*
X605415Y354380D02*
X616971Y354380D01*
X616971Y348313D01*
G54D15*
X611193Y354380D02*
X611193Y348313D01*
G54D15*
X707337Y374740D02*
X711670Y370407D01*
X700115Y370407D01*
G54D15*
X709504Y359430D02*
X702282Y359430D01*
X700837Y360297D01*
X700115Y362030D01*
X700115Y363764D01*
X700837Y365497D01*
X702282Y366364D01*
X709504Y366364D01*
X710948Y365497D01*
X711670Y363764D01*
X711670Y362030D01*
X710948Y360297D01*
X709504Y359430D01*
G54D15*
X709504Y348453D02*
X702281Y348453D01*
X700837Y349320D01*
X700115Y351053D01*
X700115Y352786D01*
X700837Y354520D01*
X702281Y355386D01*
X709504Y355387D01*
X710948Y354520D01*
X711670Y352786D01*
X711670Y351053D01*
X710948Y349320D01*
X709504Y348453D01*
G54D15*
X700115Y344410D02*
X711670Y344410D01*
X700115Y337476D01*
X711670Y337476D01*
G54D15*
X847450Y534486D02*
X847450Y527264D01*
X846583Y525819D01*
X844850Y525097D01*
X843117Y525097D01*
X841383Y525819D01*
X840517Y527264D01*
X840517Y534486D01*
X841383Y535930D01*
X843117Y536652D01*
X844850Y536652D01*
X846583Y535930D01*
X847450Y534486D01*
G54D15*
X853227Y525097D02*
X853227Y523652D01*
X852360Y522208D01*
X851494Y522208D01*
G54D15*
X857271Y534486D02*
X858137Y535930D01*
X859871Y536652D01*
X861604Y536652D01*
X863337Y535930D01*
X864204Y534486D01*
X864204Y533041D01*
X863337Y531597D01*
X861604Y530875D01*
X863337Y530152D01*
X864204Y528708D01*
X864204Y527264D01*
X863337Y525819D01*
X861604Y525097D01*
X859871Y525097D01*
X858137Y525819D01*
X857271Y527264D01*
G54D15*
X868248Y534486D02*
X869114Y535930D01*
X870848Y536652D01*
X872581Y536652D01*
X874314Y535930D01*
X875181Y534486D01*
X875181Y533041D01*
X874314Y531597D01*
X872581Y530875D01*
X874314Y530152D01*
X875181Y528708D01*
X875181Y527264D01*
X874314Y525819D01*
X872581Y525097D01*
X870848Y525097D01*
X869114Y525819D01*
X868248Y527264D01*
G54D15*
X883442Y530152D02*
X890375Y530152D01*
G54D15*
X905569Y525097D02*
X898636Y525097D01*
X898636Y525819D01*
X899502Y527264D01*
X904702Y531597D01*
X905569Y533041D01*
X905569Y534486D01*
X904702Y535930D01*
X902969Y536652D01*
X901236Y536652D01*
X899502Y535930D01*
X898636Y534486D01*
G54D15*
X909613Y536652D02*
X909613Y525097D01*
X913946Y532319D01*
X918279Y525097D01*
X918279Y536652D01*
G54D15*
X846656Y469795D02*
X846656Y462573D01*
X845790Y461128D01*
X844056Y460406D01*
X842323Y460406D01*
X840590Y461128D01*
X839723Y462573D01*
X839723Y469795D01*
X840590Y471240D01*
X842323Y471962D01*
X844056Y471962D01*
X845790Y471240D01*
X846656Y469795D01*
G54D15*
X852433Y460406D02*
X852433Y458962D01*
X851567Y457517D01*
X850700Y457517D01*
G54D15*
X856477Y469795D02*
X857344Y471240D01*
X859077Y471962D01*
X860810Y471962D01*
X862544Y471240D01*
X863410Y469795D01*
X863410Y468351D01*
X862544Y466906D01*
X860810Y466184D01*
X862544Y465462D01*
X863410Y464017D01*
X863410Y462573D01*
X862544Y461128D01*
X860810Y460406D01*
X859077Y460406D01*
X857344Y461128D01*
X856477Y462573D01*
G54D15*
X867454Y469795D02*
X868321Y471240D01*
X870054Y471962D01*
X871787Y471962D01*
X873521Y471240D01*
X874387Y469795D01*
X874387Y468351D01*
X873521Y466906D01*
X871787Y466184D01*
X873521Y465462D01*
X874387Y464017D01*
X874387Y462573D01*
X873521Y461128D01*
X871787Y460406D01*
X870054Y460406D01*
X868321Y461128D01*
X867454Y462573D01*
G54D15*
X882648Y465462D02*
X889581Y465462D01*
G54D15*
X904775Y460406D02*
X897842Y460406D01*
X897842Y461128D01*
X898709Y462573D01*
X903909Y466906D01*
X904775Y468351D01*
X904775Y469795D01*
X903909Y471240D01*
X902175Y471962D01*
X900442Y471962D01*
X898709Y471240D01*
X897842Y469795D01*
G54D15*
X908819Y471962D02*
X908819Y460406D01*
X913152Y467628D01*
X917486Y460406D01*
X917486Y471962D01*
G54D15*
X845863Y406295D02*
X845863Y399073D01*
X844996Y397628D01*
X843263Y396906D01*
X841529Y396906D01*
X839796Y397628D01*
X838929Y399073D01*
X838929Y406295D01*
X839796Y407740D01*
X841529Y408462D01*
X843263Y408462D01*
X844996Y407740D01*
X845863Y406295D01*
G54D15*
X851640Y396906D02*
X851640Y395462D01*
X850773Y394017D01*
X849906Y394017D01*
G54D15*
X855683Y406295D02*
X856550Y407740D01*
X858283Y408462D01*
X860017Y408462D01*
X861750Y407740D01*
X862617Y406295D01*
X862617Y404851D01*
X861750Y403406D01*
X860017Y402684D01*
X861750Y401962D01*
X862617Y400517D01*
X862617Y399073D01*
X861750Y397628D01*
X860017Y396906D01*
X858283Y396906D01*
X856550Y397628D01*
X855683Y399073D01*
G54D15*
X866660Y406295D02*
X867527Y407740D01*
X869260Y408462D01*
X870994Y408462D01*
X872727Y407740D01*
X873594Y406295D01*
X873594Y404851D01*
X872727Y403406D01*
X870994Y402684D01*
X872727Y401962D01*
X873594Y400517D01*
X873594Y399073D01*
X872727Y397628D01*
X870994Y396906D01*
X869260Y396906D01*
X867527Y397628D01*
X866660Y399073D01*
G54D15*
X881854Y401962D02*
X888788Y401962D01*
G54D15*
X903982Y396906D02*
X897048Y396906D01*
X897048Y397628D01*
X897915Y399073D01*
X903115Y403406D01*
X903982Y404851D01*
X903982Y406295D01*
X903115Y407740D01*
X901382Y408462D01*
X899648Y408462D01*
X897915Y407740D01*
X897048Y406295D01*
G54D15*
X908025Y408462D02*
X908025Y396906D01*
X912359Y404128D01*
X916692Y396906D01*
X916692Y408462D01*
G54D15*
X918094Y661707D02*
X911161Y661707D01*
X911161Y662429D01*
X912028Y663874D01*
X917228Y668207D01*
X918094Y669652D01*
X918094Y671096D01*
X917228Y672541D01*
X915494Y673263D01*
X913761Y673263D01*
X912028Y672541D01*
X911161Y671096D01*
G54D15*
X922138Y673263D02*
X930804Y661707D01*
G54D15*
X922138Y661707D02*
X930805Y673263D01*
G54D15*
X934849Y668930D02*
X939182Y673263D01*
X939182Y661707D01*
G54D15*
X943226Y673263D02*
X943226Y663874D01*
X944093Y662430D01*
X945826Y661707D01*
X947559Y661707D01*
X949293Y662430D01*
X950159Y663874D01*
X950160Y673263D01*
G54D15*
X954203Y661707D02*
X954203Y673263D01*
X960270Y673263D01*
G54D15*
X954203Y667485D02*
X960270Y667485D01*
G54D15*
X478964Y470771D02*
X485897Y470771D01*
X485030Y469327D01*
X483297Y467160D01*
X481564Y464271D01*
X480697Y462104D01*
X480697Y459216D01*
G54D15*
X494274Y464993D02*
X492541Y464993D01*
X490807Y465716D01*
X489941Y467160D01*
X489941Y468604D01*
X490807Y470049D01*
X492541Y470771D01*
X494274Y470771D01*
X496007Y470049D01*
X496874Y468604D01*
X496874Y467160D01*
X496007Y465716D01*
X494274Y464993D01*
X496007Y464271D01*
X496874Y462827D01*
X496874Y461382D01*
X496007Y459938D01*
X494274Y459216D01*
X492541Y459216D01*
X490807Y459938D01*
X489941Y461382D01*
X489941Y462827D01*
X490807Y464271D01*
X492541Y464993D01*
G54D15*
X507851Y468604D02*
X507851Y461382D01*
X506984Y459938D01*
X505251Y459216D01*
X503518Y459216D01*
X501784Y459938D01*
X500918Y461382D01*
X500918Y468604D01*
X501784Y470049D01*
X503518Y470771D01*
X505251Y470771D01*
X506984Y470049D01*
X507851Y468604D01*
G54D15*
X511895Y461382D02*
X512761Y459938D01*
X514495Y459216D01*
X516228Y459216D01*
X517961Y459938D01*
X518828Y461382D01*
X518828Y464993D01*
X518828Y465716D01*
X516228Y464271D01*
X514495Y464271D01*
X512761Y464993D01*
X511895Y466438D01*
X511895Y468604D01*
X512761Y470049D01*
X514495Y470771D01*
X516228Y470771D01*
X517961Y470049D01*
X518828Y468604D01*
X518828Y464993D01*
G54D15*
X612710Y471565D02*
X619644Y471565D01*
X618777Y470120D01*
X617044Y467954D01*
X615310Y465065D01*
X614444Y462898D01*
X614444Y460009D01*
G54D15*
X628021Y465787D02*
X626288Y465787D01*
X624554Y466509D01*
X623688Y467954D01*
X623688Y469398D01*
X624554Y470843D01*
X626288Y471565D01*
X628021Y471565D01*
X629754Y470843D01*
X630621Y469398D01*
X630621Y467954D01*
X629754Y466509D01*
X628021Y465787D01*
X629754Y465065D01*
X630621Y463620D01*
X630621Y462176D01*
X629754Y460732D01*
X628021Y460009D01*
X626288Y460009D01*
X624554Y460732D01*
X623688Y462176D01*
X623688Y463620D01*
X624554Y465065D01*
X626288Y465787D01*
G54D15*
X641598Y469398D02*
X641598Y462176D01*
X640731Y460732D01*
X638998Y460009D01*
X637264Y460009D01*
X635531Y460732D01*
X634664Y462176D01*
X634664Y469398D01*
X635531Y470843D01*
X637264Y471565D01*
X638998Y471565D01*
X640731Y470843D01*
X641598Y469398D01*
G54D15*
X652575Y471565D02*
X645642Y471565D01*
X645642Y466509D01*
X646508Y466509D01*
X648242Y467232D01*
X649975Y467232D01*
X651708Y466509D01*
X652575Y465065D01*
X652575Y462176D01*
X651708Y460732D01*
X649975Y460009D01*
X648242Y460009D01*
X646508Y460732D01*
X645642Y462176D01*
G54D15*
X195007Y512882D02*
X199340Y508549D01*
X187784Y508549D01*
G54D15*
X197173Y497572D02*
X189951Y497572D01*
X188507Y498438D01*
X187784Y500172D01*
X187784Y501905D01*
X188507Y503638D01*
X189951Y504505D01*
X197173Y504505D01*
X198618Y503638D01*
X199340Y501905D01*
X199340Y500172D01*
X198618Y498438D01*
X197173Y497572D01*
G54D15*
X187784Y493528D02*
X199340Y493528D01*
G54D15*
X191396Y493528D02*
X199340Y486595D01*
G54D15*
X193562Y490928D02*
X187784Y486595D01*
G54D15*
X278331Y481487D02*
X271398Y481487D01*
X271398Y476431D01*
X272265Y476431D01*
X273998Y477154D01*
X275731Y477154D01*
X277465Y476431D01*
X278331Y474987D01*
X278331Y472098D01*
X277465Y470654D01*
X275731Y469931D01*
X273998Y469931D01*
X272265Y470654D01*
X271398Y472098D01*
G54D15*
X282375Y469931D02*
X282375Y481487D01*
G54D15*
X282375Y473542D02*
X289308Y481487D01*
G54D15*
X284975Y475709D02*
X289308Y469931D01*
G54D15*
X300953Y559625D02*
X294020Y559625D01*
X294020Y560347D01*
X294887Y561792D01*
X300087Y566125D01*
X300953Y567569D01*
X300953Y569014D01*
X300087Y570458D01*
X298353Y571181D01*
X296620Y571181D01*
X294887Y570458D01*
X294020Y569014D01*
G54D15*
X304997Y571181D02*
X313664Y559625D01*
G54D15*
X304997Y559625D02*
X313664Y571181D01*
G54D15*
X322908Y559625D02*
X322908Y571181D01*
X317708Y563958D01*
X317708Y562514D01*
X324641Y562514D01*
G54D15*
X330418Y559625D02*
X330418Y558181D01*
X329552Y556736D01*
X328685Y556736D01*
G54D15*
X334462Y571181D02*
X341395Y571181D01*
X340529Y569736D01*
X338795Y567569D01*
X337062Y564681D01*
X336195Y562514D01*
X336195Y559625D01*
G54D15*
X345439Y559625D02*
X345439Y571181D01*
X352372Y559625D01*
X352372Y571181D01*
G54D15*
X198202Y561126D02*
X209757Y561126D01*
X202535Y566326D01*
X201090Y566326D01*
X201090Y559392D01*
G54D15*
X209757Y555349D02*
X209757Y548415D01*
X208313Y549282D01*
X206146Y551015D01*
X203257Y552749D01*
X201090Y553615D01*
X198202Y553615D01*
G54D15*
X140430Y594628D02*
X144763Y598961D01*
X144763Y587406D01*
G54D15*
X148807Y587406D02*
X148807Y598961D01*
G54D15*
X148807Y591017D02*
X155740Y598961D01*
G54D15*
X151407Y593183D02*
X155740Y587406D01*
G54D15*
X392326Y555414D02*
X396659Y551080D01*
X385104Y551080D01*
G54D15*
X385104Y547037D02*
X396659Y547037D01*
G54D15*
X388715Y547037D02*
X396659Y540103D01*
G54D15*
X390881Y544437D02*
X385104Y540103D01*
G54D15*
X442260Y564873D02*
X446593Y560539D01*
X435038Y560539D01*
G54D15*
X444427Y549562D02*
X437204Y549562D01*
X435760Y550429D01*
X435038Y552162D01*
X435038Y553896D01*
X435760Y555629D01*
X437204Y556496D01*
X444427Y556496D01*
X445871Y555629D01*
X446593Y553896D01*
X446593Y552162D01*
X445871Y550429D01*
X444427Y549562D01*
G54D15*
X435038Y545519D02*
X446593Y545519D01*
G54D15*
X438649Y545519D02*
X446593Y538585D01*
G54D15*
X440816Y542919D02*
X435038Y538585D01*
G54D15*
X519446Y544622D02*
X523779Y548955D01*
X523779Y537400D01*
G54D15*
X534756Y546789D02*
X534756Y539566D01*
X533889Y538122D01*
X532156Y537400D01*
X530423Y537400D01*
X528689Y538122D01*
X527823Y539566D01*
X527823Y546789D01*
X528689Y548233D01*
X530423Y548955D01*
X532156Y548955D01*
X533889Y548233D01*
X534756Y546789D01*
G54D15*
X538800Y537400D02*
X538800Y548955D01*
G54D15*
X538800Y541011D02*
X545733Y548955D01*
G54D15*
X541400Y543178D02*
X545733Y537400D01*
G54D15*
X472495Y551445D02*
X476828Y547112D01*
X465272Y547112D01*
G54D15*
X465272Y543068D02*
X476828Y543068D01*
G54D15*
X468884Y543068D02*
X476828Y536135D01*
G54D15*
X471050Y540468D02*
X465272Y536135D01*
G54D15*
X488133Y683847D02*
X488133Y695402D01*
X482933Y688180D01*
X482933Y686736D01*
X489866Y686736D01*
G54D15*
X493910Y691069D02*
X498243Y695402D01*
X498243Y683847D01*
G54D15*
X507487Y683847D02*
X507487Y695402D01*
X502287Y688180D01*
X502287Y686736D01*
X509220Y686736D01*
G54D15*
X517597Y689624D02*
X515864Y689624D01*
X514131Y690347D01*
X513264Y691791D01*
X513264Y693236D01*
X514131Y694680D01*
X515864Y695402D01*
X517597Y695402D01*
X519331Y694680D01*
X520197Y693236D01*
X520197Y691791D01*
X519331Y690347D01*
X517597Y689624D01*
X519331Y688902D01*
X520197Y687458D01*
X520197Y686013D01*
X519331Y684569D01*
X517597Y683847D01*
X515864Y683847D01*
X514131Y684569D01*
X513264Y686013D01*
X513264Y687458D01*
X514131Y688902D01*
X515864Y689624D01*
G54D15*
X486810Y724838D02*
X491144Y729171D01*
X491144Y717616D01*
G54D15*
X502121Y727005D02*
X502121Y719782D01*
X501254Y718338D01*
X499521Y717616D01*
X497788Y717616D01*
X496054Y718338D01*
X495188Y719782D01*
X495188Y727005D01*
X496054Y728449D01*
X497788Y729171D01*
X499521Y729171D01*
X501254Y728449D01*
X502121Y727005D01*
G54D15*
X513098Y727005D02*
X513098Y719782D01*
X512231Y718338D01*
X510498Y717616D01*
X508764Y717616D01*
X507031Y718338D01*
X506164Y719782D01*
X506164Y727005D01*
X507031Y728449D01*
X508764Y729171D01*
X510498Y729171D01*
X512231Y728449D01*
X513098Y727005D01*
G54D15*
X517142Y717616D02*
X517142Y729171D01*
G54D15*
X517142Y721227D02*
X524075Y729171D01*
G54D15*
X519742Y723393D02*
X524075Y717616D01*
G54D15*
X705092Y897875D02*
X709425Y902209D01*
X709425Y890653D01*
G54D15*
X720402Y900042D02*
X720402Y892820D01*
X719535Y891375D01*
X717802Y890653D01*
X716069Y890653D01*
X714335Y891375D01*
X713469Y892820D01*
X713469Y900042D01*
X714335Y901486D01*
X716069Y902209D01*
X717802Y902209D01*
X719535Y901486D01*
X720402Y900042D01*
G54D15*
X731379Y900042D02*
X731379Y892820D01*
X730512Y891375D01*
X728779Y890653D01*
X727046Y890653D01*
X725312Y891375D01*
X724446Y892820D01*
X724446Y900042D01*
X725312Y901486D01*
X727046Y902209D01*
X728779Y902209D01*
X730512Y901486D01*
X731379Y900042D01*
G54D15*
X735423Y890653D02*
X735423Y902209D01*
G54D15*
X735423Y894264D02*
X742356Y902209D01*
G54D15*
X738023Y896431D02*
X742356Y890653D01*
G54D15*
X775616Y858518D02*
X768682Y858518D01*
X768682Y853462D01*
X769549Y853462D01*
X771282Y854185D01*
X773016Y854185D01*
X774749Y853462D01*
X775616Y852018D01*
X775616Y849129D01*
X774749Y847685D01*
X773016Y846962D01*
X771282Y846962D01*
X769549Y847685D01*
X768682Y849129D01*
G54D15*
X779659Y846962D02*
X779659Y858518D01*
G54D15*
X779659Y850574D02*
X786593Y858518D01*
G54D15*
X782259Y852740D02*
X786593Y846962D01*
G54D15*
X701023Y762516D02*
X705356Y758183D01*
X693800Y758183D01*
G54D15*
X703189Y747206D02*
X695967Y747206D01*
X694523Y748073D01*
X693800Y749806D01*
X693800Y751539D01*
X694523Y753273D01*
X695967Y754139D01*
X703189Y754139D01*
X704634Y753273D01*
X705356Y751539D01*
X705356Y749806D01*
X704634Y748073D01*
X703189Y747206D01*
G54D15*
X693800Y743162D02*
X705356Y743162D01*
G54D15*
X697412Y743162D02*
X705356Y736229D01*
G54D15*
X699578Y740562D02*
X693800Y736229D01*
G54D15*
X676092Y752660D02*
X680425Y748327D01*
X668869Y748327D01*
G54D15*
X668869Y744284D02*
X680425Y744284D01*
G54D15*
X672480Y744284D02*
X680425Y737350D01*
G54D15*
X674647Y741684D02*
X668869Y737350D01*
G54D15*
X746933Y785144D02*
X751267Y780810D01*
X739711Y780810D01*
G54D15*
X749100Y769834D02*
X741878Y769834D01*
X740433Y770700D01*
X739711Y772433D01*
X739711Y774167D01*
X740433Y775900D01*
X741878Y776767D01*
X749100Y776767D01*
X750544Y775900D01*
X751267Y774167D01*
X751267Y772433D01*
X750544Y770700D01*
X749100Y769834D01*
G54D15*
X749100Y758856D02*
X741878Y758856D01*
X740433Y759723D01*
X739711Y761456D01*
X739711Y763190D01*
X740433Y764923D01*
X741878Y765790D01*
X749100Y765790D01*
X750544Y764923D01*
X751267Y763190D01*
X751267Y761456D01*
X750544Y759723D01*
X749100Y758856D01*
G54D15*
X739711Y754813D02*
X751267Y754813D01*
X739711Y747880D01*
X751267Y747880D01*
G54D15*
X751923Y636732D02*
X756256Y641065D01*
X756256Y629510D01*
G54D15*
X767233Y638899D02*
X767233Y631676D01*
X766366Y630232D01*
X764633Y629510D01*
X762900Y629510D01*
X761166Y630232D01*
X760300Y631676D01*
X760300Y638899D01*
X761166Y640343D01*
X762900Y641065D01*
X764633Y641065D01*
X766367Y640343D01*
X767233Y638899D01*
G54D15*
X778210Y638898D02*
X778210Y631676D01*
X777343Y630232D01*
X775610Y629510D01*
X773877Y629510D01*
X772144Y630232D01*
X771277Y631676D01*
X771277Y638899D01*
X772144Y640343D01*
X773877Y641065D01*
X775610Y641065D01*
X777344Y640343D01*
X778210Y638898D01*
G54D15*
X782254Y629510D02*
X782254Y641065D01*
X789187Y629510D01*
X789187Y641065D01*
G54D15*
X887824Y806576D02*
X892157Y802242D01*
X880602Y802242D01*
G54D15*
X889991Y791265D02*
X882769Y791265D01*
X881324Y792132D01*
X880602Y793865D01*
X880602Y795599D01*
X881324Y797332D01*
X882769Y798198D01*
X889991Y798199D01*
X891435Y797332D01*
X892157Y795598D01*
X892158Y793865D01*
X891435Y792132D01*
X889991Y791265D01*
G54D15*
X889991Y780288D02*
X882769Y780288D01*
X881324Y781155D01*
X880602Y782888D01*
X880602Y784621D01*
X881324Y786355D01*
X882768Y787221D01*
X889991Y787221D01*
X891436Y786355D01*
X892158Y784621D01*
X892158Y782888D01*
X891435Y781155D01*
X889991Y780288D01*
G54D15*
X880602Y776245D02*
X892158Y776245D01*
X880602Y769311D01*
X892158Y769311D01*
G54D15*
X821070Y824022D02*
X825404Y828355D01*
X825404Y816800D01*
G54D15*
X836381Y826189D02*
X836381Y818966D01*
X835514Y817522D01*
X833781Y816800D01*
X832047Y816800D01*
X830314Y817522D01*
X829448Y818966D01*
X829447Y826189D01*
X830314Y827633D01*
X832047Y828355D01*
X833781Y828355D01*
X835514Y827633D01*
X836381Y826189D01*
G54D15*
X840424Y816800D02*
X840424Y828355D01*
G54D15*
X840424Y820411D02*
X847358Y828355D01*
G54D15*
X843024Y822577D02*
X847358Y816800D01*
G54D15*
X725629Y692666D02*
X729962Y688333D01*
X718407Y688333D01*
G54D15*
X727796Y677356D02*
X720574Y677356D01*
X719129Y678222D01*
X718407Y679956D01*
X718407Y681689D01*
X719129Y683422D01*
X720574Y684289D01*
X727796Y684289D01*
X729240Y683422D01*
X729962Y681689D01*
X729962Y679956D01*
X729240Y678223D01*
X727796Y677356D01*
G54D15*
X718407Y673312D02*
X729962Y673312D01*
G54D15*
X722018Y673312D02*
X729963Y666379D01*
G54D15*
X724185Y670712D02*
X718407Y666379D01*
G54D15*
X616589Y829613D02*
X620922Y833946D01*
X620922Y822391D01*
G54D15*
X631899Y833946D02*
X624966Y833946D01*
X624966Y828891D01*
X625832Y828891D01*
X627566Y829613D01*
X629299Y829613D01*
X631032Y828891D01*
X631899Y827446D01*
X631899Y824557D01*
X631032Y823113D01*
X629299Y822391D01*
X627566Y822391D01*
X625832Y823113D01*
X624966Y824557D01*
G54D15*
X635943Y822391D02*
X635943Y833946D01*
G54D15*
X635943Y826002D02*
X642876Y833946D01*
G54D15*
X638543Y828168D02*
X642876Y822391D01*
G54D15*
X553847Y881068D02*
X554713Y882512D01*
X556447Y883235D01*
X558180Y883235D01*
X559913Y882512D01*
X560780Y881068D01*
X560780Y879624D01*
X559913Y878179D01*
X558180Y877457D01*
X559913Y876735D01*
X560780Y875290D01*
X560780Y873846D01*
X559913Y872401D01*
X558180Y871679D01*
X556447Y871679D01*
X554713Y872401D01*
X553847Y873846D01*
G54D15*
X564824Y881068D02*
X565690Y882512D01*
X567424Y883235D01*
X569157Y883235D01*
X570890Y882512D01*
X571757Y881068D01*
X571757Y879624D01*
X570890Y878179D01*
X569157Y877457D01*
X570890Y876735D01*
X571757Y875290D01*
X571757Y873846D01*
X570890Y872401D01*
X569157Y871679D01*
X567424Y871679D01*
X565690Y872401D01*
X564824Y873846D01*
G54D15*
X182625Y478354D02*
X194181Y478354D01*
X194181Y472287D01*
G54D15*
X188403Y478354D02*
X188403Y472287D01*
G54D15*
X184792Y468243D02*
X183347Y467376D01*
X182625Y465643D01*
X182625Y463910D01*
X183347Y462176D01*
X184792Y461310D01*
X186236Y461310D01*
X187681Y462176D01*
X188403Y463910D01*
X188403Y465643D01*
X189125Y467376D01*
X190570Y468243D01*
X192014Y468243D01*
X193458Y467376D01*
X194181Y465643D01*
X194181Y463910D01*
X193458Y462176D01*
X192014Y461310D01*
G54D15*
X156478Y408714D02*
X156478Y415648D01*
X151422Y415648D01*
X151422Y414781D01*
X152144Y413048D01*
X152144Y411314D01*
X151422Y409581D01*
X149978Y408714D01*
X147089Y408714D01*
X145644Y409581D01*
X144922Y411314D01*
X144922Y413048D01*
X145644Y414781D01*
X147089Y415648D01*
G54D15*
X154311Y397737D02*
X147089Y397737D01*
X145644Y398604D01*
X144922Y400337D01*
X144922Y402071D01*
X145644Y403804D01*
X147089Y404671D01*
X154311Y404671D01*
X155755Y403804D01*
X156478Y402071D01*
X156478Y400337D01*
X155755Y398604D01*
X154311Y397737D01*
G54D15*
X154311Y386760D02*
X147089Y386760D01*
X145644Y387627D01*
X144922Y389360D01*
X144922Y391094D01*
X145644Y392827D01*
X147089Y393694D01*
X154311Y393694D01*
X155755Y392827D01*
X156478Y391094D01*
X156478Y389360D01*
X155755Y387627D01*
X154311Y386760D01*
G54D15*
X144922Y382717D02*
X156478Y382717D01*
X149255Y378383D01*
X156478Y374050D01*
X144922Y374050D01*
G54D15*
X144922Y370006D02*
X156478Y365672D01*
X144922Y361339D01*
G54D15*
X149255Y368272D02*
X149255Y363072D01*
G54D15*
X982328Y853401D02*
X993884Y853401D01*
X993884Y847334D01*
G54D15*
X988106Y853401D02*
X988106Y847334D01*
G54D15*
X984495Y843290D02*
X983050Y842423D01*
X982328Y840690D01*
X982328Y838956D01*
X983050Y837223D01*
X984495Y836356D01*
X985939Y836356D01*
X987384Y837223D01*
X988106Y838956D01*
X988106Y840690D01*
X988828Y842423D01*
X990273Y843290D01*
X991717Y843290D01*
X993162Y842423D01*
X993884Y840690D01*
X993884Y838956D01*
X993162Y837223D01*
X991717Y836356D01*
G54D15*
X993884Y821162D02*
X993884Y828096D01*
X988828Y828096D01*
X988828Y827229D01*
X989550Y825496D01*
X989550Y823762D01*
X988828Y822029D01*
X987384Y821162D01*
X984495Y821162D01*
X983050Y822029D01*
X982328Y823762D01*
X982328Y825496D01*
X983050Y827229D01*
X984495Y828096D01*
G54D15*
X982328Y817119D02*
X993884Y812785D01*
X982328Y808452D01*
G54D15*
X986662Y815385D02*
X986662Y810185D01*
G54D15*
X130297Y876774D02*
X123364Y876774D01*
X123364Y871719D01*
X124230Y871719D01*
X125964Y872441D01*
X127697Y872441D01*
X129430Y871719D01*
X130297Y870274D01*
X130297Y867385D01*
X129430Y865941D01*
X127697Y865219D01*
X125964Y865219D01*
X124230Y865941D01*
X123364Y867385D01*
G54D15*
X134341Y865219D02*
X134341Y876774D01*
G54D15*
X134341Y868830D02*
X141274Y876774D01*
G54D15*
X136941Y870996D02*
X141274Y865219D01*
G54D15*
X441657Y346399D02*
X448591Y346399D01*
G54D15*
X445124Y349288D02*
X445124Y343510D01*
G54D15*
X452634Y343510D02*
X453501Y342066D01*
X455234Y341344D01*
X456968Y341344D01*
X458701Y342066D01*
X459568Y343510D01*
X459568Y347122D01*
X459568Y347844D01*
X456968Y346399D01*
X455234Y346399D01*
X453501Y347122D01*
X452634Y348566D01*
X452634Y350733D01*
X453501Y352177D01*
X455234Y352899D01*
X456968Y352899D01*
X458701Y352177D01*
X459568Y350733D01*
X459568Y347122D01*
G54D15*
X463611Y352899D02*
X467945Y341344D01*
X472278Y352899D01*
G54D15*
X719073Y378149D02*
X726006Y378149D01*
G54D15*
X722540Y381038D02*
X722540Y375260D01*
G54D15*
X736983Y384649D02*
X730050Y384649D01*
X730050Y379594D01*
X730917Y379594D01*
X732650Y380316D01*
X734383Y380316D01*
X736117Y379594D01*
X736983Y378149D01*
X736983Y375260D01*
X736117Y373816D01*
X734383Y373094D01*
X732650Y373094D01*
X730917Y373816D01*
X730050Y375260D01*
G54D15*
X741027Y384649D02*
X745360Y373094D01*
X749694Y384649D01*
G54D15*
X396593Y599662D02*
X396593Y611217D01*
X402659Y611217D01*
G54D15*
X396593Y605440D02*
X402659Y605440D01*
G54D15*
X406704Y599662D02*
X406704Y611217D01*
X413637Y599662D01*
X413637Y611217D01*
G54D15*
X572229Y589866D02*
X576563Y594199D01*
X576563Y582644D01*
G54D15*
X587540Y592033D02*
X587540Y584810D01*
X586673Y583366D01*
X584940Y582644D01*
X583206Y582644D01*
X581473Y583366D01*
X580606Y584811D01*
X580606Y592033D01*
X581473Y593477D01*
X583206Y594199D01*
X584940Y594199D01*
X586673Y593477D01*
X587540Y592033D01*
G54D15*
X598516Y592033D02*
X598516Y584810D01*
X597650Y583366D01*
X595917Y582644D01*
X594183Y582644D01*
X592450Y583366D01*
X591583Y584810D01*
X591583Y592033D01*
X592450Y593477D01*
X594183Y594199D01*
X595917Y594199D01*
X597650Y593477D01*
X598516Y592033D01*
G54D15*
X602560Y582644D02*
X602560Y594199D01*
X609494Y582644D01*
X609494Y594199D01*
G54D15*
X128418Y627315D02*
X131885Y627315D01*
X131885Y623704D01*
X131018Y622260D01*
X129285Y621538D01*
X127551Y621538D01*
X125818Y622260D01*
X124951Y623704D01*
X124951Y630926D01*
X125818Y632371D01*
X127551Y633093D01*
X129285Y633093D01*
X131018Y632371D01*
X131885Y630926D01*
G54D15*
X135928Y621538D02*
X135928Y633093D01*
X142862Y621538D01*
X142862Y633093D01*
G54D15*
X146905Y621538D02*
X146905Y633093D01*
X151239Y633093D01*
X152972Y632371D01*
X153839Y630926D01*
X153839Y623704D01*
X152972Y622260D01*
X151239Y621538D01*
X146905Y621538D01*
G54D15*
X338470Y519938D02*
X338470Y531493D01*
X342803Y531493D01*
X344537Y530771D01*
X345403Y529326D01*
X345403Y527882D01*
X344537Y526438D01*
X342803Y525715D01*
X344537Y524993D01*
X345403Y523549D01*
X345403Y522104D01*
X344537Y520660D01*
X342803Y519938D01*
X338470Y519938D01*
G54D15*
X338470Y525715D02*
X342803Y525715D01*
G54D15*
X356380Y522104D02*
X355514Y520660D01*
X353780Y519938D01*
X352047Y519938D01*
X350314Y520660D01*
X349447Y522104D01*
X349447Y529326D01*
X350314Y530771D01*
X352047Y531493D01*
X353780Y531493D01*
X355514Y530771D01*
X356380Y529326D01*
G54D15*
X360424Y529326D02*
X361291Y530771D01*
X363024Y531493D01*
X364757Y531493D01*
X366491Y530771D01*
X367357Y529326D01*
X367357Y527882D01*
X366491Y526438D01*
X364757Y525715D01*
X366491Y524993D01*
X367357Y523549D01*
X367357Y522104D01*
X366491Y520660D01*
X364757Y519938D01*
X363024Y519938D01*
X361291Y520660D01*
X360424Y522104D01*
G54D15*
X371401Y529326D02*
X372268Y530771D01*
X374001Y531493D01*
X375734Y531493D01*
X377468Y530771D01*
X378334Y529326D01*
X378334Y527882D01*
X377468Y526438D01*
X375734Y525715D01*
X377468Y524993D01*
X378334Y523549D01*
X378334Y522104D01*
X377468Y520660D01*
X375734Y519938D01*
X374001Y519938D01*
X372268Y520660D01*
X371401Y522104D01*
G54D15*
X382378Y531493D02*
X389311Y531493D01*
X388445Y530049D01*
X386711Y527882D01*
X384978Y524993D01*
X384111Y522826D01*
X384111Y519938D01*
G54D15*
X75409Y622669D02*
X86965Y622669D01*
X86965Y618336D01*
X86243Y616602D01*
X84798Y615736D01*
X83354Y615736D01*
X81909Y616602D01*
X81187Y618336D01*
X80465Y616602D01*
X79020Y615736D01*
X77576Y615736D01*
X76132Y616602D01*
X75409Y618336D01*
X75409Y622669D01*
G54D15*
X81187Y622669D02*
X81187Y618336D01*
G54D15*
X77576Y604759D02*
X76132Y605625D01*
X75409Y607359D01*
X75409Y609092D01*
X76132Y610825D01*
X77576Y611692D01*
X84798Y611692D01*
X86242Y610825D01*
X86965Y609092D01*
X86965Y607359D01*
X86242Y605625D01*
X84798Y604759D01*
G54D15*
X84798Y600715D02*
X86243Y599848D01*
X86965Y598115D01*
X86965Y596382D01*
X86243Y594648D01*
X84798Y593782D01*
X83354Y593782D01*
X81909Y594648D01*
X81187Y596382D01*
X80465Y594648D01*
X79020Y593782D01*
X77576Y593782D01*
X76132Y594648D01*
X75409Y596382D01*
X75409Y598115D01*
X76132Y599848D01*
X77576Y600715D01*
G54D15*
X84798Y589738D02*
X86242Y588871D01*
X86965Y587138D01*
X86965Y585405D01*
X86242Y583671D01*
X84798Y582805D01*
X83354Y582805D01*
X81909Y583671D01*
X81187Y585405D01*
X80465Y583671D01*
X79020Y582805D01*
X77576Y582805D01*
X76132Y583671D01*
X75409Y585405D01*
X75409Y587138D01*
X76132Y588871D01*
X77576Y589738D01*
G54D15*
X86965Y578761D02*
X86965Y571828D01*
X85520Y572694D01*
X83354Y574428D01*
X80465Y576161D01*
X78298Y577028D01*
X75409Y577028D01*
G54D15*
X998600Y730370D02*
X1010156Y730370D01*
G54D15*
X1004378Y722859D02*
X1002934Y720259D01*
X1001489Y719392D01*
X998600Y719392D01*
G54D15*
X998600Y726326D02*
X1010156Y726326D01*
X1010156Y721992D01*
X1009434Y720259D01*
X1007989Y719392D01*
X1006545Y719392D01*
X1005100Y720259D01*
X1004378Y721992D01*
X1004378Y726326D01*
G54D15*
X998600Y715348D02*
X1010156Y715348D01*
X1010156Y709282D01*
G54D15*
X1004378Y715348D02*
X1004378Y709282D01*
G54D15*
X998600Y705238D02*
X1010156Y705238D01*
X1010156Y700904D01*
X1009434Y699171D01*
X1007989Y698304D01*
X1006545Y698304D01*
X1005100Y699171D01*
X1004378Y700904D01*
X1004378Y705238D01*
G54D15*
X998600Y687327D02*
X998600Y694260D01*
X999322Y694260D01*
X1000767Y693394D01*
X1005100Y688194D01*
X1006545Y687327D01*
X1007989Y687327D01*
X1009434Y688194D01*
X1010156Y689927D01*
X1010156Y691660D01*
X1009434Y693394D01*
X1007989Y694260D01*
G54D15*
X1007989Y676350D02*
X1009434Y677217D01*
X1010156Y678950D01*
X1010156Y680684D01*
X1009434Y682417D01*
X1007989Y683284D01*
X1004378Y683284D01*
X1003656Y683284D01*
X1005100Y680684D01*
X1005100Y678950D01*
X1004378Y677217D01*
X1002934Y676350D01*
X1000767Y676350D01*
X999322Y677217D01*
X998600Y678950D01*
X998600Y680684D01*
X999322Y682417D01*
X1000767Y683284D01*
X1004378Y683284D01*
G54D15*
X1007989Y665373D02*
X1000767Y665373D01*
X999322Y666240D01*
X998600Y667973D01*
X998600Y669706D01*
X999322Y671440D01*
X1000767Y672306D01*
X1007989Y672306D01*
X1009434Y671440D01*
X1010156Y669706D01*
X1010156Y667973D01*
X1009434Y666240D01*
X1007989Y665373D01*
G54D15*
X998600Y661330D02*
X1010156Y661330D01*
X998600Y654396D01*
X1010156Y654396D01*
G54D28*
X785530Y914780D02*
X785530Y935225D01*
X793197Y935225D01*
X796264Y933947D01*
X797797Y931392D01*
X797797Y928836D01*
X796264Y926280D01*
X793197Y925003D01*
X796264Y923725D01*
X797797Y921169D01*
X797797Y918614D01*
X796264Y916058D01*
X793197Y914780D01*
X785530Y914780D01*
G54D28*
X785530Y925003D02*
X793197Y925003D01*
G54D28*
X804953Y923725D02*
X817220Y923725D01*
G54D28*
X811087Y928836D02*
X811087Y918614D01*
G54D28*
X729174Y511952D02*
X729174Y532397D01*
X736841Y532397D01*
X739907Y531119D01*
X741441Y528564D01*
X741441Y526008D01*
X739907Y523452D01*
X736841Y522175D01*
X739907Y520897D01*
X741441Y518341D01*
X741441Y515786D01*
X739907Y513230D01*
X736841Y511952D01*
X729174Y511952D01*
G54D28*
X729174Y522175D02*
X736841Y522175D01*
G54D28*
X748597Y520897D02*
X760864Y520897D01*
G54D20*
X433586Y670882D02*
X437586Y674882D01*
X445586Y674882D01*
X447586Y672882D01*
X479586Y672882D01*
X481586Y674882D01*
X489586Y674882D01*
X493586Y670882D01*
X493586Y654882D01*
X489586Y650882D01*
X481586Y650882D01*
X479586Y652882D01*
X447586Y652882D01*
X445586Y650882D01*
X437586Y650882D01*
X433586Y654882D01*
X433586Y670882D01*
G54D15*
X454755Y664082D02*
X459088Y668415D01*
X459088Y656860D01*
G54D15*
X463132Y656860D02*
X463132Y668415D01*
G54D15*
X463132Y660471D02*
X470065Y668415D01*
G54D15*
X465732Y662637D02*
X470065Y656860D01*
G54D20*
X1021262Y811738D02*
X1025262Y807738D01*
X1025262Y799738D01*
X1023262Y797738D01*
X1023262Y765738D01*
X1025262Y763738D01*
X1025262Y755737D01*
X1021262Y751738D01*
X1005263Y751738D01*
X1001262Y755738D01*
X1001262Y763738D01*
X1003263Y765738D01*
X1003263Y797738D01*
X1001262Y799738D01*
X1001262Y807738D01*
X1005263Y811738D01*
X1021262Y811738D01*
G54D15*
X1014510Y807087D02*
X1018844Y802754D01*
X1007288Y802754D01*
G54D15*
X1016677Y791777D02*
X1009455Y791777D01*
X1008010Y792643D01*
X1007288Y794377D01*
X1007288Y796110D01*
X1008010Y797843D01*
X1009455Y798710D01*
X1016677Y798710D01*
X1018122Y797843D01*
X1018844Y796110D01*
X1018844Y794377D01*
X1018122Y792643D01*
X1016677Y791777D01*
G54D15*
X1016677Y780800D02*
X1009455Y780800D01*
X1008010Y781666D01*
X1007288Y783400D01*
X1007288Y785133D01*
X1008010Y786866D01*
X1009455Y787733D01*
X1016677Y787733D01*
X1018122Y786866D01*
X1018844Y785133D01*
X1018844Y783400D01*
X1018122Y781666D01*
X1016677Y780800D01*
G54D15*
X1007288Y776756D02*
X1018844Y776756D01*
G54D15*
X1010899Y776756D02*
X1018844Y769823D01*
G54D15*
X1013066Y774156D02*
X1007288Y769823D01*
G54D15*
X1012344Y765779D02*
X1012344Y758846D01*
G54D15*
X1015233Y762312D02*
X1009455Y762312D01*
G54D15*
X1014510Y764913D02*
X1010177Y759712D01*
G54D15*
X1010177Y764912D02*
X1014510Y759712D01*
G54D29*
X258917Y530144D02*
X264917Y514144D01*
X270917Y530144D01*
G54D29*
X276517Y514144D02*
X276517Y530144D01*
X284917Y530144D01*
G54D29*
X276517Y522144D02*
X284917Y522144D01*
G54D29*
X290517Y514144D02*
X290517Y530144D01*
X296517Y530144D01*
X298917Y529144D01*
X300117Y527144D01*
X300117Y525144D01*
X298917Y523144D01*
X296517Y522144D01*
X298917Y521144D01*
X300117Y519144D01*
X300117Y517144D01*
X298917Y515144D01*
X296517Y514144D01*
X290517Y514144D01*
G54D29*
X290517Y522144D02*
X296517Y522144D01*
G54D19*
X73353Y858574D02*
X71797Y859507D01*
X71020Y861374D01*
X71020Y863240D01*
X71797Y865107D01*
X73353Y866040D01*
X81131Y866040D01*
X82686Y865107D01*
X83464Y863240D01*
X83464Y861374D01*
X82686Y859507D01*
X81131Y858574D01*
G54D19*
X81131Y846751D02*
X73353Y846751D01*
X71797Y847684D01*
X71020Y849551D01*
X71020Y851417D01*
X71797Y853284D01*
X73353Y854217D01*
X81131Y854217D01*
X82686Y853284D01*
X83464Y851417D01*
X83464Y849551D01*
X82686Y847684D01*
X81131Y846751D01*
G54D19*
X71020Y842394D02*
X83464Y842394D01*
X71020Y834928D01*
X83464Y834928D01*
G54D19*
X71020Y826838D02*
X83464Y826838D01*
G54D19*
X83464Y830571D02*
X83464Y823105D01*
G54D19*
X77242Y815015D02*
X75686Y812215D01*
X74131Y811282D01*
X71020Y811282D01*
G54D19*
X71020Y818748D02*
X83464Y818748D01*
X83464Y814082D01*
X82686Y812215D01*
X81131Y811282D01*
X79575Y811282D01*
X78020Y812215D01*
X77242Y814082D01*
X77242Y818748D01*
G54D19*
X71020Y806925D02*
X83464Y802259D01*
X71020Y797592D01*
G54D19*
X75686Y805059D02*
X75686Y799459D01*
G54D19*
X73353Y793236D02*
X71797Y792303D01*
X71020Y790436D01*
X71020Y788570D01*
X71797Y786703D01*
X73353Y785770D01*
X74908Y785770D01*
X76464Y786703D01*
X77242Y788570D01*
X77242Y790436D01*
X78020Y792303D01*
X79575Y793236D01*
X81131Y793236D01*
X82686Y792303D01*
X83464Y790436D01*
X83464Y788570D01*
X82686Y786703D01*
X81131Y785770D01*
G54D19*
X71020Y777680D02*
X83464Y777680D01*
G54D19*
X83464Y781413D02*
X83464Y773947D01*
G54D29*
X702624Y826087D02*
X702624Y842087D01*
X708624Y842087D01*
X711024Y841087D01*
X712224Y839087D01*
X712224Y837087D01*
X711024Y835087D01*
X708624Y834087D01*
X702624Y834087D01*
G54D29*
X717824Y842087D02*
X717824Y826087D01*
X723824Y836087D01*
X729824Y826087D01*
X729824Y842087D01*
G54D29*
X735424Y826087D02*
X735424Y842087D01*
X741424Y832087D01*
X747424Y842087D01*
X747424Y826087D01*
G54D15*
X716469Y918402D02*
X719069Y916957D01*
X719935Y915513D01*
X719935Y912624D01*
G54D15*
X713002Y912624D02*
X713002Y924180D01*
X717335Y924180D01*
X719069Y923457D01*
X719935Y922013D01*
X719935Y920569D01*
X719069Y919124D01*
X717335Y918402D01*
X713002Y918402D01*
G54D15*
X723979Y919846D02*
X728312Y924180D01*
X728312Y912624D01*
G54D15*
X496305Y744174D02*
X498905Y742730D01*
X499772Y741285D01*
X499772Y738396D01*
G54D15*
X492838Y738396D02*
X492838Y749952D01*
X497172Y749952D01*
X498905Y749230D01*
X499772Y747785D01*
X499772Y746341D01*
X498905Y744896D01*
X497172Y744174D01*
X492838Y744174D01*
G54D15*
X510749Y738396D02*
X503816Y738396D01*
X503816Y739118D01*
X504682Y740563D01*
X509882Y744896D01*
X510749Y746341D01*
X510749Y747785D01*
X509882Y749230D01*
X508149Y749952D01*
X506416Y749952D01*
X504682Y749230D01*
X503816Y747785D01*
G54D15*
X815393Y844187D02*
X817993Y842743D01*
X818859Y841298D01*
X818859Y838410D01*
G54D15*
X811926Y838410D02*
X811926Y849965D01*
X816259Y849965D01*
X817993Y849243D01*
X818859Y847798D01*
X818859Y846354D01*
X817993Y844910D01*
X816259Y844187D01*
X811926Y844187D01*
G54D15*
X822903Y847798D02*
X823770Y849243D01*
X825503Y849965D01*
X827236Y849965D01*
X828970Y849243D01*
X829836Y847798D01*
X829836Y846354D01*
X828970Y844910D01*
X827236Y844187D01*
X828970Y843465D01*
X829836Y842021D01*
X829836Y840576D01*
X828970Y839132D01*
X827236Y838410D01*
X825503Y838410D01*
X823770Y839132D01*
X822903Y840576D01*
G54D15*
X617352Y849346D02*
X619952Y847902D01*
X620819Y846457D01*
X620819Y843568D01*
G54D15*
X613886Y843568D02*
X613886Y855124D01*
X618219Y855124D01*
X619952Y854402D01*
X620819Y852957D01*
X620819Y851513D01*
X619952Y850068D01*
X618219Y849346D01*
X613886Y849346D01*
G54D15*
X630063Y843568D02*
X630063Y855124D01*
X624863Y847902D01*
X624863Y846457D01*
X631796Y846457D01*
G54D15*
X642020Y771319D02*
X644620Y769874D01*
X645487Y768430D01*
X645487Y765541D01*
G54D15*
X638553Y765541D02*
X638553Y777096D01*
X642887Y777096D01*
X644620Y776374D01*
X645487Y774930D01*
X645487Y773485D01*
X644620Y772041D01*
X642887Y771319D01*
X638553Y771319D01*
G54D15*
X656464Y777096D02*
X649530Y777096D01*
X649530Y772041D01*
X650397Y772041D01*
X652130Y772763D01*
X653864Y772763D01*
X655597Y772041D01*
X656464Y770596D01*
X656464Y767708D01*
X655597Y766263D01*
X653864Y765541D01*
X652130Y765541D01*
X650397Y766263D01*
X649530Y767708D01*
G54D15*
X720328Y766873D02*
X722928Y765429D01*
X723795Y763984D01*
X723795Y761095D01*
G54D15*
X716862Y761095D02*
X716862Y772651D01*
X721195Y772651D01*
X722928Y771929D01*
X723795Y770484D01*
X723795Y769040D01*
X722928Y767595D01*
X721195Y766873D01*
X716862Y766873D01*
G54D15*
X734772Y770484D02*
X733906Y771929D01*
X732172Y772651D01*
X730439Y772651D01*
X728706Y771929D01*
X727839Y770484D01*
X727839Y766873D01*
X727839Y766151D01*
X730439Y767595D01*
X732172Y767595D01*
X733906Y766873D01*
X734772Y765429D01*
X734772Y763262D01*
X733906Y761818D01*
X732172Y761095D01*
X730439Y761095D01*
X728706Y761818D01*
X727839Y763262D01*
X727839Y766873D01*
G54D15*
X721655Y606234D02*
X724255Y604790D01*
X725122Y603345D01*
X725122Y600456D01*
G54D15*
X718189Y600456D02*
X718189Y612012D01*
X722522Y612012D01*
X724255Y611290D01*
X725122Y609845D01*
X725122Y608401D01*
X724255Y606956D01*
X722522Y606234D01*
X718189Y606234D01*
G54D15*
X729166Y612012D02*
X736099Y612012D01*
X735232Y610568D01*
X733499Y608401D01*
X731766Y605512D01*
X730899Y603345D01*
X730899Y600456D01*
G54D15*
X997055Y530733D02*
X999655Y529288D01*
X1000522Y527844D01*
X1000522Y524955D01*
G54D15*
X993588Y524955D02*
X993588Y536510D01*
X997922Y536510D01*
X999655Y535788D01*
X1000522Y534344D01*
X1000522Y532899D01*
X999655Y531455D01*
X997922Y530733D01*
X993588Y530733D01*
G54D15*
X1008899Y530733D02*
X1007166Y530733D01*
X1005432Y531455D01*
X1004566Y532899D01*
X1004566Y534344D01*
X1005432Y535788D01*
X1007166Y536510D01*
X1008899Y536510D01*
X1010632Y535788D01*
X1011499Y534344D01*
X1011499Y532899D01*
X1010632Y531455D01*
X1008899Y530733D01*
X1010632Y530010D01*
X1011499Y528566D01*
X1011499Y527122D01*
X1010632Y525677D01*
X1008899Y524955D01*
X1007166Y524955D01*
X1005432Y525677D01*
X1004566Y527122D01*
X1004566Y528566D01*
X1005432Y530010D01*
X1007166Y530733D01*
G54D15*
X998997Y468044D02*
X1001597Y466599D01*
X1002464Y465155D01*
X1002464Y462266D01*
G54D15*
X995531Y462266D02*
X995531Y473821D01*
X999864Y473821D01*
X1001597Y473099D01*
X1002464Y471655D01*
X1002464Y470210D01*
X1001597Y468766D01*
X999864Y468044D01*
X995531Y468044D01*
G54D15*
X1006508Y464432D02*
X1007374Y462988D01*
X1009108Y462266D01*
X1010841Y462266D01*
X1012574Y462988D01*
X1013441Y464432D01*
X1013441Y468044D01*
X1013441Y468766D01*
X1010841Y467321D01*
X1009108Y467321D01*
X1007374Y468044D01*
X1006508Y469488D01*
X1006508Y471655D01*
X1007374Y473099D01*
X1009108Y473821D01*
X1010841Y473821D01*
X1012574Y473099D01*
X1013441Y471655D01*
X1013441Y468044D01*
G54D15*
X998538Y404812D02*
X1001138Y403368D01*
X1002004Y401924D01*
X1002004Y399035D01*
G54D15*
X995071Y399035D02*
X995071Y410590D01*
X999404Y410590D01*
X1001138Y409868D01*
X1002004Y408424D01*
X1002004Y406979D01*
X1001138Y405535D01*
X999404Y404812D01*
X995071Y404812D01*
G54D15*
X1006048Y406257D02*
X1010381Y410590D01*
X1010381Y399035D01*
G54D15*
X1021358Y408424D02*
X1021358Y401201D01*
X1020492Y399757D01*
X1018758Y399035D01*
X1017025Y399035D01*
X1015292Y399757D01*
X1014425Y401201D01*
X1014425Y408424D01*
X1015292Y409868D01*
X1017025Y410590D01*
X1018758Y410590D01*
X1020492Y409868D01*
X1021358Y408424D01*
G54D15*
X236174Y469567D02*
X238774Y468122D01*
X239641Y466678D01*
X239641Y463789D01*
G54D15*
X232707Y463789D02*
X232707Y475345D01*
X237041Y475345D01*
X238774Y474622D01*
X239641Y473178D01*
X239641Y471733D01*
X238774Y470289D01*
X237041Y469567D01*
X232707Y469567D01*
G54D15*
X243684Y471011D02*
X248018Y475345D01*
X248018Y463789D01*
G54D15*
X258995Y463789D02*
X252061Y463789D01*
X252061Y464511D01*
X252928Y465956D01*
X258128Y470289D01*
X258995Y471733D01*
X258995Y473178D01*
X258128Y474622D01*
X256395Y475345D01*
X254661Y475345D01*
X252928Y474622D01*
X252061Y473178D01*
G54D15*
X374658Y379580D02*
X376103Y382180D01*
X377547Y383047D01*
X380436Y383047D01*
G54D15*
X380436Y376114D02*
X368881Y376114D01*
X368881Y380447D01*
X369603Y382180D01*
X371047Y383047D01*
X372492Y383047D01*
X373936Y382180D01*
X374658Y380447D01*
X374658Y376114D01*
G54D15*
X373214Y387091D02*
X368881Y391424D01*
X380436Y391424D01*
G54D15*
X373214Y395468D02*
X368881Y399801D01*
X380436Y399801D01*
G54D15*
X233764Y500571D02*
X235208Y503171D01*
X236653Y504037D01*
X239541Y504037D01*
G54D15*
X239541Y497104D02*
X227986Y497104D01*
X227986Y501437D01*
X228708Y503171D01*
X230153Y504037D01*
X231597Y504037D01*
X233041Y503171D01*
X233764Y501437D01*
X233764Y497104D01*
G54D15*
X232319Y508081D02*
X227986Y512414D01*
X239541Y512414D01*
G54D15*
X230153Y516458D02*
X228708Y517325D01*
X227986Y519058D01*
X227986Y520791D01*
X228708Y522525D01*
X230153Y523391D01*
X231597Y523391D01*
X233041Y522525D01*
X233764Y520791D01*
X234486Y522525D01*
X235930Y523391D01*
X237375Y523391D01*
X238819Y522525D01*
X239541Y520791D01*
X239541Y519058D01*
X238819Y517325D01*
X237375Y516458D01*
G54D15*
X246480Y563365D02*
X247925Y565965D01*
X249369Y566832D01*
X252258Y566832D01*
G54D15*
X252258Y559898D02*
X240703Y559898D01*
X240703Y564232D01*
X241425Y565965D01*
X242869Y566832D01*
X244314Y566832D01*
X245758Y565965D01*
X246480Y564232D01*
X246480Y559898D01*
G54D15*
X245036Y570875D02*
X240703Y575209D01*
X252258Y575209D01*
G54D15*
X252258Y584452D02*
X240703Y584452D01*
X247925Y579252D01*
X249369Y579252D01*
X249369Y586186D01*
G54D15*
X160325Y616125D02*
X162925Y614681D01*
X163792Y613236D01*
X163792Y610348D01*
G54D15*
X156858Y610348D02*
X156858Y621903D01*
X161192Y621903D01*
X162925Y621181D01*
X163792Y619736D01*
X163792Y618292D01*
X162925Y616848D01*
X161192Y616125D01*
X156858Y616125D01*
G54D15*
X167836Y617570D02*
X172169Y621903D01*
X172169Y610348D01*
G54D15*
X183146Y621903D02*
X176212Y621903D01*
X176212Y616848D01*
X177079Y616848D01*
X178812Y617570D01*
X180546Y617570D01*
X182279Y616848D01*
X183146Y615403D01*
X183146Y612514D01*
X182279Y611070D01*
X180546Y610348D01*
X178812Y610348D01*
X177079Y611070D01*
X176212Y612514D01*
G54D15*
X356806Y545008D02*
X359406Y543563D01*
X360272Y542119D01*
X360272Y539230D01*
G54D15*
X353339Y539230D02*
X353339Y550785D01*
X357672Y550785D01*
X359406Y550063D01*
X360272Y548619D01*
X360272Y547174D01*
X359406Y545730D01*
X357672Y545008D01*
X353339Y545008D01*
G54D15*
X364316Y546452D02*
X368649Y550785D01*
X368649Y539230D01*
G54D15*
X379626Y548619D02*
X378760Y550063D01*
X377026Y550785D01*
X375293Y550785D01*
X373560Y550063D01*
X372693Y548619D01*
X372693Y545008D01*
X372693Y544285D01*
X375293Y545730D01*
X377026Y545730D01*
X378760Y545008D01*
X379626Y543563D01*
X379626Y541396D01*
X378760Y539952D01*
X377026Y539230D01*
X375293Y539230D01*
X373560Y539952D01*
X372693Y541396D01*
X372693Y545008D01*
G54D15*
X443020Y475315D02*
X444464Y477915D01*
X445909Y478781D01*
X448798Y478781D01*
G54D15*
X448798Y471848D02*
X437242Y471848D01*
X437242Y476181D01*
X437964Y477915D01*
X439409Y478781D01*
X440853Y478781D01*
X442298Y477915D01*
X443020Y476181D01*
X443020Y471848D01*
G54D15*
X441575Y482825D02*
X437242Y487158D01*
X448798Y487158D01*
G54D15*
X437242Y491202D02*
X437242Y498135D01*
X438686Y497269D01*
X440853Y495535D01*
X443742Y493802D01*
X445909Y492935D01*
X448798Y492935D01*
G54D15*
X519078Y521483D02*
X521678Y520038D01*
X522544Y518594D01*
X522544Y515705D01*
G54D15*
X515611Y515705D02*
X515611Y527261D01*
X519944Y527261D01*
X521678Y526538D01*
X522544Y525094D01*
X522544Y523649D01*
X521678Y522205D01*
X519944Y521483D01*
X515611Y521483D01*
G54D15*
X526588Y522927D02*
X530921Y527261D01*
X530921Y515705D01*
G54D15*
X539298Y521483D02*
X537565Y521483D01*
X535832Y522205D01*
X534965Y523649D01*
X534965Y525094D01*
X535832Y526538D01*
X537565Y527261D01*
X539298Y527261D01*
X541032Y526538D01*
X541898Y525094D01*
X541898Y523649D01*
X541032Y522205D01*
X539298Y521483D01*
X541032Y520761D01*
X541898Y519316D01*
X541898Y517872D01*
X541032Y516427D01*
X539298Y515705D01*
X537565Y515705D01*
X535832Y516427D01*
X534965Y517872D01*
X534965Y519316D01*
X535832Y520761D01*
X537565Y521483D01*
G54D15*
X467513Y482364D02*
X470113Y480920D01*
X470979Y479476D01*
X470979Y476587D01*
G54D15*
X464046Y476587D02*
X464046Y488142D01*
X468379Y488142D01*
X470113Y487420D01*
X470979Y485976D01*
X470979Y484531D01*
X470113Y483087D01*
X468379Y482364D01*
X464046Y482364D01*
G54D15*
X475023Y483809D02*
X479356Y488142D01*
X479356Y476587D01*
G54D15*
X483400Y478753D02*
X484267Y477309D01*
X486000Y476587D01*
X487733Y476587D01*
X489467Y477309D01*
X490333Y478753D01*
X490333Y482364D01*
X490333Y483087D01*
X487733Y481642D01*
X486000Y481642D01*
X484267Y482364D01*
X483400Y483809D01*
X483400Y485976D01*
X484267Y487420D01*
X486000Y488142D01*
X487733Y488142D01*
X489467Y487420D01*
X490333Y485976D01*
X490333Y482364D01*
G54D15*
X589562Y901526D02*
X592162Y900082D01*
X593029Y898637D01*
X593029Y895748D01*
G54D15*
X586096Y895748D02*
X586096Y907304D01*
X590429Y907304D01*
X592162Y906582D01*
X593029Y905137D01*
X593029Y903693D01*
X592162Y902248D01*
X590429Y901526D01*
X586096Y901526D01*
G54D15*
X604006Y895748D02*
X597073Y895748D01*
X597073Y896470D01*
X597939Y897915D01*
X603139Y902248D01*
X604006Y903693D01*
X604006Y905137D01*
X603139Y906582D01*
X601406Y907304D01*
X599673Y907304D01*
X597939Y906582D01*
X597073Y905137D01*
G54D15*
X614983Y905137D02*
X614983Y897915D01*
X614116Y896470D01*
X612383Y895748D01*
X610650Y895748D01*
X608916Y896470D01*
X608050Y897915D01*
X608050Y905137D01*
X608916Y906582D01*
X610650Y907304D01*
X612383Y907304D01*
X614116Y906582D01*
X614983Y905137D01*
G54D15*
X311482Y432074D02*
X311482Y443629D01*
X315815Y443629D01*
X317548Y442907D01*
X318415Y441462D01*
X318415Y434240D01*
X317548Y432796D01*
X315815Y432074D01*
X311482Y432074D01*
G54D15*
X322458Y439296D02*
X326792Y443629D01*
X326792Y432074D01*
G54D15*
X151894Y332055D02*
X151027Y330610D01*
X149294Y329888D01*
X147561Y329888D01*
X145827Y330610D01*
X144961Y332055D01*
X144961Y339277D01*
X145827Y340722D01*
X147561Y341444D01*
X149294Y341444D01*
X151027Y340722D01*
X151894Y339277D01*
G54D15*
X155938Y337110D02*
X160271Y341444D01*
X160271Y329888D01*
G54D15*
X543742Y665166D02*
X543742Y676722D01*
X548076Y676722D01*
X549809Y675999D01*
X550676Y674555D01*
X550676Y667333D01*
X549809Y665888D01*
X548076Y665166D01*
X543742Y665166D01*
G54D15*
X561653Y665166D02*
X554719Y665166D01*
X554719Y665888D01*
X555586Y667333D01*
X560786Y671666D01*
X561653Y673110D01*
X561653Y674555D01*
X560786Y675999D01*
X559053Y676722D01*
X557319Y676722D01*
X555586Y675999D01*
X554719Y674555D01*
G54D15*
X411331Y419251D02*
X410464Y417807D01*
X408731Y417085D01*
X406997Y417085D01*
X405264Y417807D01*
X404397Y419251D01*
X404397Y426474D01*
X405264Y427918D01*
X406997Y428640D01*
X408731Y428640D01*
X410464Y427918D01*
X411331Y426474D01*
G54D15*
X422308Y417085D02*
X415374Y417085D01*
X415374Y417807D01*
X416241Y419251D01*
X421441Y423585D01*
X422308Y425029D01*
X422308Y426474D01*
X421441Y427918D01*
X419708Y428640D01*
X417974Y428640D01*
X416241Y427918D01*
X415374Y426474D01*
G54D15*
X493268Y379755D02*
X492401Y378311D01*
X490668Y377588D01*
X488935Y377588D01*
X487201Y378311D01*
X486335Y379755D01*
X486335Y386977D01*
X487201Y388422D01*
X488935Y389144D01*
X490668Y389144D01*
X492401Y388422D01*
X493268Y386977D01*
G54D15*
X497312Y386977D02*
X498178Y388422D01*
X499912Y389144D01*
X501645Y389144D01*
X503378Y388422D01*
X504245Y386977D01*
X504245Y385533D01*
X503378Y384088D01*
X501645Y383366D01*
X503378Y382644D01*
X504245Y381200D01*
X504245Y379755D01*
X503378Y378311D01*
X501645Y377588D01*
X499912Y377588D01*
X498178Y378311D01*
X497312Y379755D01*
G54D15*
X570821Y391936D02*
X569955Y390492D01*
X568221Y389770D01*
X566488Y389770D01*
X564755Y390492D01*
X563888Y391936D01*
X563888Y399158D01*
X564755Y400603D01*
X566488Y401325D01*
X568221Y401325D01*
X569955Y400603D01*
X570821Y399158D01*
G54D15*
X580065Y389770D02*
X580065Y401325D01*
X574865Y394103D01*
X574865Y392658D01*
X581798Y392658D01*
G54D15*
X725279Y346202D02*
X724412Y344757D01*
X722679Y344035D01*
X720946Y344035D01*
X719212Y344757D01*
X718346Y346202D01*
X718346Y353424D01*
X719212Y354868D01*
X720946Y355591D01*
X722679Y355591D01*
X724412Y354868D01*
X725279Y353424D01*
G54D15*
X736256Y355591D02*
X729322Y355591D01*
X729322Y350535D01*
X730189Y350535D01*
X731922Y351257D01*
X733656Y351257D01*
X735389Y350535D01*
X736256Y349091D01*
X736256Y346202D01*
X735389Y344757D01*
X733656Y344035D01*
X731922Y344035D01*
X730189Y344757D01*
X729322Y346202D01*
G54D15*
X767744Y758951D02*
X766878Y757506D01*
X765144Y756784D01*
X763411Y756784D01*
X761678Y757506D01*
X760811Y758951D01*
X760811Y766173D01*
X761678Y767618D01*
X763411Y768340D01*
X765144Y768340D01*
X766878Y767618D01*
X767744Y766173D01*
G54D15*
X778721Y766173D02*
X777855Y767618D01*
X776121Y768340D01*
X774388Y768340D01*
X772655Y767618D01*
X771788Y766173D01*
X771788Y762562D01*
X771788Y761840D01*
X774388Y763284D01*
X776121Y763284D01*
X777855Y762562D01*
X778721Y761118D01*
X778721Y758951D01*
X777855Y757506D01*
X776121Y756784D01*
X774388Y756784D01*
X772655Y757506D01*
X771788Y758951D01*
X771788Y762562D01*
G54D15*
X768538Y679973D02*
X767671Y678528D01*
X765938Y677806D01*
X764204Y677806D01*
X762471Y678528D01*
X761604Y679973D01*
X761604Y687195D01*
X762471Y688639D01*
X764204Y689362D01*
X765938Y689362D01*
X767671Y688639D01*
X768538Y687195D01*
G54D15*
X772582Y689362D02*
X779515Y689362D01*
X778648Y687917D01*
X776915Y685751D01*
X775182Y682862D01*
X774315Y680695D01*
X774315Y677806D01*
G54D15*
X833085Y786361D02*
X832218Y784916D01*
X830485Y784194D01*
X828752Y784194D01*
X827018Y784916D01*
X826152Y786361D01*
X826152Y793583D01*
X827018Y795027D01*
X828752Y795749D01*
X830485Y795749D01*
X832218Y795027D01*
X833085Y793583D01*
G54D15*
X841462Y789972D02*
X839729Y789972D01*
X837995Y790694D01*
X837129Y792138D01*
X837129Y793583D01*
X837995Y795027D01*
X839729Y795749D01*
X841462Y795749D01*
X843195Y795027D01*
X844062Y793583D01*
X844062Y792138D01*
X843195Y790694D01*
X841462Y789972D01*
X843195Y789249D01*
X844062Y787805D01*
X844062Y786361D01*
X843195Y784916D01*
X841462Y784194D01*
X839729Y784194D01*
X837995Y784916D01*
X837129Y786361D01*
X837129Y787805D01*
X837995Y789249D01*
X839729Y789972D01*
G54D15*
X905086Y613285D02*
X904220Y611841D01*
X902486Y611118D01*
X900753Y611118D01*
X899020Y611841D01*
X898153Y613285D01*
X898153Y620507D01*
X899020Y621952D01*
X900753Y622674D01*
X902486Y622674D01*
X904220Y621952D01*
X905086Y620507D01*
G54D15*
X909130Y613285D02*
X909997Y611841D01*
X911730Y611118D01*
X913463Y611118D01*
X915197Y611841D01*
X916063Y613285D01*
X916063Y616896D01*
X916063Y617618D01*
X913463Y616174D01*
X911730Y616174D01*
X909997Y616896D01*
X909130Y618341D01*
X909130Y620507D01*
X909997Y621952D01*
X911730Y622674D01*
X913463Y622674D01*
X915197Y621952D01*
X916063Y620507D01*
X916063Y616896D01*
G54D15*
X963427Y613682D02*
X962561Y612237D01*
X960827Y611515D01*
X959094Y611515D01*
X957361Y612237D01*
X956494Y613682D01*
X956494Y620904D01*
X957361Y622349D01*
X959094Y623071D01*
X960827Y623071D01*
X962561Y622349D01*
X963427Y620904D01*
G54D15*
X967471Y618737D02*
X971804Y623071D01*
X971804Y611515D01*
G54D15*
X982781Y620904D02*
X982781Y613682D01*
X981915Y612237D01*
X980181Y611515D01*
X978448Y611515D01*
X976715Y612237D01*
X975848Y613682D01*
X975848Y620904D01*
X976715Y622349D01*
X978448Y623071D01*
X980181Y623071D01*
X981915Y622349D01*
X982781Y620904D01*
G54D15*
X159250Y454953D02*
X159250Y466509D01*
X165316Y466509D01*
G54D15*
X159250Y460731D02*
X165316Y460731D01*
G54D15*
X169361Y462175D02*
X173694Y466509D01*
X173694Y454953D01*
G54D15*
X263560Y602403D02*
X262694Y600959D01*
X260960Y600237D01*
X259227Y600237D01*
X257494Y600959D01*
X256627Y602403D01*
X256627Y609626D01*
X257494Y611070D01*
X259227Y611792D01*
X260960Y611792D01*
X262694Y611070D01*
X263560Y609626D01*
G54D15*
X267604Y607459D02*
X271937Y611792D01*
X271937Y600237D01*
G54D15*
X275981Y607459D02*
X280314Y611792D01*
X280314Y600237D01*
G54D15*
X317004Y602166D02*
X316138Y600722D01*
X314404Y600000D01*
X312671Y600000D01*
X310938Y600722D01*
X310071Y602166D01*
X310071Y609388D01*
X310938Y610833D01*
X312671Y611555D01*
X314404Y611555D01*
X316138Y610833D01*
X317004Y609388D01*
G54D15*
X321048Y607222D02*
X325381Y611555D01*
X325381Y600000D01*
G54D15*
X336358Y600000D02*
X329425Y600000D01*
X329425Y600722D01*
X330292Y602166D01*
X335492Y606500D01*
X336358Y607944D01*
X336358Y609388D01*
X335492Y610833D01*
X333758Y611555D01*
X332025Y611555D01*
X330292Y610833D01*
X329425Y609388D01*
G54D15*
X524570Y584704D02*
X523703Y583259D01*
X521970Y582537D01*
X520237Y582537D01*
X518503Y583259D01*
X517637Y584704D01*
X517637Y591926D01*
X518503Y593370D01*
X520237Y594093D01*
X521970Y594093D01*
X523703Y593370D01*
X524570Y591926D01*
G54D15*
X528614Y589759D02*
X532947Y594093D01*
X532947Y582537D01*
G54D15*
X536990Y591926D02*
X537857Y593370D01*
X539590Y594093D01*
X541324Y594093D01*
X543057Y593370D01*
X543924Y591926D01*
X543924Y590482D01*
X543057Y589037D01*
X541324Y588315D01*
X543057Y587593D01*
X543924Y586148D01*
X543924Y584704D01*
X543057Y583259D01*
X541324Y582537D01*
X539590Y582537D01*
X537857Y583259D01*
X536990Y584704D01*
G54D15*
X302502Y467191D02*
X302502Y478746D01*
X306836Y478746D01*
X308569Y478024D01*
X309436Y476580D01*
X309436Y475135D01*
X308569Y473691D01*
X306836Y472968D01*
X302502Y472968D01*
G54D15*
X313479Y474413D02*
X317813Y478746D01*
X317813Y467191D01*
G54D15*
X764870Y826323D02*
X764870Y837879D01*
X769203Y837879D01*
X770936Y837156D01*
X771803Y835712D01*
X771803Y834267D01*
X770936Y832823D01*
X769203Y832101D01*
X764870Y832101D01*
G54D15*
X782780Y826323D02*
X775846Y826323D01*
X775846Y827045D01*
X776713Y828490D01*
X781913Y832823D01*
X782780Y834267D01*
X782780Y835712D01*
X781913Y837156D01*
X780180Y837879D01*
X778446Y837879D01*
X776713Y837156D01*
X775846Y835712D01*
G54D15*
X167922Y841534D02*
X167922Y853090D01*
X172255Y853090D01*
X173988Y852368D01*
X174855Y850923D01*
X174855Y849479D01*
X173988Y848034D01*
X172255Y847312D01*
X167922Y847312D01*
G54D15*
X178898Y850923D02*
X179765Y852368D01*
X181498Y853090D01*
X183232Y853090D01*
X184965Y852368D01*
X185832Y850923D01*
X185832Y849479D01*
X184965Y848034D01*
X183232Y847312D01*
X184965Y846590D01*
X185832Y845146D01*
X185832Y843701D01*
X184965Y842257D01*
X183232Y841534D01*
X181498Y841534D01*
X179765Y842257D01*
X178898Y843701D01*
G54D15*
X571376Y933901D02*
X571376Y922345D01*
X577443Y922345D01*
G54D15*
X588421Y924512D02*
X587554Y923067D01*
X585821Y922345D01*
X584087Y922345D01*
X582354Y923067D01*
X581487Y924512D01*
X581487Y931734D01*
X582354Y933178D01*
X584087Y933901D01*
X585821Y933901D01*
X587554Y933178D01*
X588421Y931734D01*
G54D15*
X592464Y922345D02*
X592464Y933901D01*
X596798Y933901D01*
X598531Y933178D01*
X599398Y931734D01*
X599398Y924512D01*
X598531Y923067D01*
X596798Y922345D01*
X592464Y922345D01*
G54D15*
X325166Y731012D02*
X325166Y742567D01*
G54D15*
X336143Y733178D02*
X335277Y731734D01*
X333543Y731012D01*
X331810Y731012D01*
X330077Y731734D01*
X329210Y733178D01*
X329210Y740401D01*
X330077Y741845D01*
X331810Y742567D01*
X333543Y742567D01*
X335277Y741845D01*
X336143Y740401D01*
G54D15*
X340187Y738234D02*
X344520Y742567D01*
X344520Y731012D01*
G54D15*
X815304Y642256D02*
X815304Y653812D01*
G54D15*
X826281Y644423D02*
X825415Y642978D01*
X823681Y642256D01*
X821948Y642256D01*
X820215Y642978D01*
X819348Y644423D01*
X819348Y651645D01*
X820215Y653089D01*
X821948Y653812D01*
X823681Y653812D01*
X825415Y653089D01*
X826281Y651645D01*
G54D15*
X837258Y642256D02*
X830325Y642256D01*
X830325Y642978D01*
X831192Y644423D01*
X836392Y648756D01*
X837258Y650201D01*
X837258Y651645D01*
X836392Y653089D01*
X834658Y653812D01*
X832925Y653812D01*
X831192Y653089D01*
X830325Y651645D01*
G54D15*
X532006Y456360D02*
X532006Y467915D01*
G54D15*
X542983Y458526D02*
X542117Y457082D01*
X540383Y456360D01*
X538650Y456360D01*
X536917Y457082D01*
X536050Y458526D01*
X536050Y465749D01*
X536917Y467193D01*
X538650Y467915D01*
X540383Y467915D01*
X542117Y467193D01*
X542983Y465749D01*
G54D15*
X547027Y465749D02*
X547894Y467193D01*
X549627Y467915D01*
X551360Y467915D01*
X553094Y467193D01*
X553960Y465749D01*
X553960Y464304D01*
X553094Y462860D01*
X551360Y462138D01*
X553094Y461415D01*
X553960Y459971D01*
X553960Y458526D01*
X553094Y457082D01*
X551360Y456360D01*
X549627Y456360D01*
X547894Y457082D01*
X547027Y458526D01*
G54D15*
X584197Y478188D02*
X584197Y489744D01*
G54D15*
X595174Y480355D02*
X594308Y478910D01*
X592574Y478188D01*
X590841Y478188D01*
X589108Y478910D01*
X588241Y480355D01*
X588241Y487577D01*
X589108Y489021D01*
X590841Y489744D01*
X592574Y489744D01*
X594308Y489021D01*
X595174Y487577D01*
G54D15*
X604418Y478188D02*
X604418Y489744D01*
X599218Y482521D01*
X599218Y481077D01*
X606151Y481077D01*
G54D15*
X1028963Y590532D02*
X1033296Y588365D01*
G54D15*
X1032430Y597754D02*
X1032430Y590532D01*
X1031563Y589088D01*
X1029830Y588365D01*
X1028096Y588365D01*
X1026363Y589088D01*
X1025496Y590532D01*
X1025496Y597754D01*
X1026363Y599199D01*
X1028096Y599921D01*
X1029830Y599921D01*
X1031563Y599199D01*
X1032430Y597754D01*
G54D15*
X1037340Y595588D02*
X1041674Y599921D01*
X1041674Y588365D01*
G54D15*
X78313Y529060D02*
X82646Y526893D01*
G54D15*
X81780Y536282D02*
X81780Y529060D01*
X80913Y527615D01*
X79180Y526893D01*
X77446Y526893D01*
X75713Y527615D01*
X74846Y529060D01*
X74846Y536282D01*
X75713Y537726D01*
X77446Y538449D01*
X79180Y538449D01*
X80913Y537726D01*
X81780Y536282D01*
G54D15*
X93624Y526893D02*
X86690Y526893D01*
X86690Y527615D01*
X87557Y529060D01*
X92757Y533393D01*
X93624Y534837D01*
X93624Y536282D01*
X92757Y537726D01*
X91024Y538449D01*
X89290Y538449D01*
X87557Y537726D01*
X86690Y536282D01*
G54D15*
X338044Y488718D02*
X342377Y486552D01*
G54D15*
X341511Y495940D02*
X341511Y488718D01*
X340644Y487274D01*
X338911Y486552D01*
X337177Y486552D01*
X335444Y487274D01*
X334577Y488718D01*
X334577Y495940D01*
X335444Y497385D01*
X337177Y498107D01*
X338911Y498107D01*
X340644Y497385D01*
X341511Y495940D01*
G54D15*
X346421Y495940D02*
X347288Y497385D01*
X349021Y498107D01*
X350755Y498107D01*
X352488Y497385D01*
X353355Y495940D01*
X353355Y494496D01*
X352488Y493052D01*
X350755Y492329D01*
X352488Y491607D01*
X353355Y490163D01*
X353355Y488718D01*
X352488Y487274D01*
X350755Y486552D01*
X349021Y486552D01*
X347288Y487274D01*
X346421Y488718D01*
G54D30*
X967379Y892974D02*
X967379Y904529D01*
X973446Y904529D01*
G54D30*
X967379Y898752D02*
X973446Y898752D01*
G54D30*
X983557Y892974D02*
X976624Y892974D01*
X976624Y893696D01*
X977491Y895141D01*
X982691Y899474D01*
X983557Y900918D01*
X983557Y902363D01*
X982691Y903807D01*
X980957Y904529D01*
X979224Y904529D01*
X977491Y903807D01*
X976624Y902363D01*
M02*
