%FSLAX34Y34*%
%MOMM*%
%LNSOLDERMASK_BOTTOM*%
G71*
G01*
%ADD10C,2.200*%
%ADD11C,2.200*%
%ADD12C,2.100*%
%ADD13C,1.550*%
%ADD14C,5.200*%
%ADD15C,2.350*%
%ADD16C,2.600*%
%ADD17C,2.000*%
%ADD18C,3.450*%
%ADD19C,3.800*%
%ADD20C,2.000*%
%ADD21C,3.300*%
%ADD22C,2.700*%
%ADD23C,2.500*%
%ADD24C,7.200*%
%ADD25C,3.500*%
%ADD26C,3.700*%
%ADD27C,2.300*%
%ADD28C,4.400*%
%ADD29C,3.000*%
%ADD30C,2.350*%
%ADD31C,2.400*%
%ADD32C,3.200*%
%LPD*%
X581174Y780418D02*
G54D10*
D03*
X555774Y780418D02*
G54D10*
D03*
X530374Y780418D02*
G54D10*
D03*
X504974Y780418D02*
G54D10*
D03*
X479574Y780418D02*
G54D10*
D03*
X454174Y780418D02*
G54D10*
D03*
X428774Y780418D02*
G54D10*
D03*
X403374Y780418D02*
G54D10*
D03*
X377974Y780418D02*
G54D10*
D03*
X352574Y780418D02*
G54D10*
D03*
X327174Y780418D02*
G54D10*
D03*
X301774Y780418D02*
G54D10*
D03*
X276374Y780418D02*
G54D10*
D03*
X250974Y780418D02*
G54D10*
D03*
X225574Y780418D02*
G54D10*
D03*
X200174Y628018D02*
G54D11*
D03*
X225574Y628018D02*
G54D10*
D03*
X250974Y628018D02*
G54D10*
D03*
X276374Y628018D02*
G54D10*
D03*
X301774Y628018D02*
G54D10*
D03*
X327174Y628018D02*
G54D10*
D03*
X352574Y628018D02*
G54D10*
D03*
X377974Y628018D02*
G54D10*
D03*
X403374Y628018D02*
G54D10*
D03*
X428774Y628018D02*
G54D10*
D03*
X454174Y628018D02*
G54D10*
D03*
X479574Y628018D02*
G54D10*
D03*
X504974Y628018D02*
G54D10*
D03*
X530374Y628018D02*
G54D10*
D03*
X555773Y628018D02*
G54D10*
D03*
X581174Y628018D02*
G54D10*
D03*
X606574Y780418D02*
G54D11*
D03*
G36*
X164510Y918151D02*
X185510Y918151D01*
X185510Y897151D01*
X164510Y897151D01*
X164510Y918151D01*
G37*
X200411Y907651D02*
G54D12*
D03*
X225811Y907651D02*
G54D12*
D03*
X251211Y907651D02*
G54D12*
D03*
X276611Y907651D02*
G54D12*
D03*
X302011Y907651D02*
G54D12*
D03*
X429011Y907651D02*
G54D12*
D03*
G54D13*
X454411Y914401D02*
X454411Y900901D01*
G54D13*
X479811Y914401D02*
X479811Y900901D01*
X505211Y907651D02*
G54D12*
D03*
X530611Y907651D02*
G54D12*
D03*
X556011Y907651D02*
G54D12*
D03*
X100012Y358051D02*
G54D14*
D03*
X100012Y908050D02*
G54D14*
D03*
X103585Y844947D02*
G54D15*
D03*
X103584Y794146D02*
G54D15*
D03*
X154384Y819547D02*
G54D15*
D03*
X479574Y853443D02*
G54D10*
D03*
X268833Y853443D02*
G54D10*
D03*
X454174Y833202D02*
G54D10*
D03*
X319236Y833202D02*
G54D10*
D03*
X100012Y358051D02*
G54D14*
D03*
X100012Y908050D02*
G54D14*
D03*
X1030013Y908050D02*
G54D14*
D03*
X1030013Y358051D02*
G54D14*
D03*
X100012Y358051D02*
G54D14*
D03*
X100012Y908050D02*
G54D14*
D03*
X1030013Y908050D02*
G54D14*
D03*
X1030013Y358051D02*
G54D14*
D03*
X472033Y878446D02*
G54D10*
D03*
X352574Y878446D02*
G54D10*
D03*
X138906Y751681D02*
G54D12*
D03*
X138906Y726281D02*
G54D12*
D03*
X138906Y700881D02*
G54D12*
D03*
X138906Y675481D02*
G54D12*
D03*
X138905Y650081D02*
G54D12*
D03*
X1041441Y723859D02*
G54D16*
D03*
X1041441Y685759D02*
G54D17*
D03*
X1041441Y647659D02*
G54D16*
D03*
X1041441Y685759D02*
G54D18*
D03*
X1041441Y630759D02*
G54D18*
D03*
X1041441Y740759D02*
G54D18*
D03*
X796026Y759428D02*
G54D10*
D03*
X796026Y734028D02*
G54D10*
D03*
X796026Y708628D02*
G54D10*
D03*
X796026Y683228D02*
G54D10*
D03*
X872226Y759428D02*
G54D10*
D03*
X872226Y734028D02*
G54D10*
D03*
X872226Y708628D02*
G54D10*
D03*
X872226Y683228D02*
G54D10*
D03*
X768642Y708628D02*
G54D12*
D03*
X768642Y657829D02*
G54D12*
D03*
X769039Y784828D02*
G54D12*
D03*
X769039Y734028D02*
G54D12*
D03*
X793248Y823722D02*
G54D12*
D03*
X875005Y823722D02*
G54D12*
D03*
X861510Y788797D02*
G54D12*
D03*
X810711Y788798D02*
G54D12*
D03*
X100012Y358051D02*
G54D14*
D03*
X100012Y908050D02*
G54D14*
D03*
X1030012Y908050D02*
G54D14*
D03*
X1030012Y358051D02*
G54D14*
D03*
X937828Y762916D02*
G54D19*
D03*
X937828Y712929D02*
G54D19*
D03*
X937828Y862941D02*
G54D19*
D03*
X937828Y912929D02*
G54D19*
D03*
G54D20*
X475457Y429688D02*
X475457Y411688D01*
G54D20*
X500956Y429688D02*
X500956Y411688D01*
G54D20*
X526456Y429688D02*
X526456Y411688D01*
X107550Y497681D02*
G54D21*
D03*
X107550Y446881D02*
G54D21*
D03*
X167081Y434578D02*
G54D12*
D03*
X167081Y485378D02*
G54D12*
D03*
X204607Y350282D02*
G54D22*
D03*
X204608Y401082D02*
G54D22*
D03*
G54D20*
X610197Y429688D02*
X610197Y411688D01*
G54D20*
X635696Y429688D02*
X635696Y411688D01*
G54D20*
X661197Y429688D02*
X661197Y411688D01*
X413938Y397269D02*
G54D23*
D03*
X413938Y347269D02*
G54D23*
D03*
X684108Y336360D02*
G54D12*
D03*
X684108Y387160D02*
G54D12*
D03*
X493515Y361554D02*
G54D12*
D03*
X544316Y361554D02*
G54D12*
D03*
X287554Y450689D02*
G54D10*
D03*
X205798Y450689D02*
G54D10*
D03*
X353250Y430006D02*
G54D10*
D03*
X353250Y348250D02*
G54D10*
D03*
X635591Y361554D02*
G54D23*
D03*
X585591Y361554D02*
G54D23*
D03*
X504974Y587934D02*
G54D12*
D03*
X555773Y587934D02*
G54D12*
D03*
X415221Y492286D02*
G54D10*
D03*
X389821Y492286D02*
G54D10*
D03*
X364421Y492286D02*
G54D10*
D03*
X441077Y592696D02*
G54D10*
D03*
X441077Y510940D02*
G54D10*
D03*
X575618Y543881D02*
G54D10*
D03*
X493861Y543880D02*
G54D10*
D03*
X470843Y583171D02*
G54D10*
D03*
X470843Y501414D02*
G54D10*
D03*
X364421Y462124D02*
G54D12*
D03*
X389821Y462124D02*
G54D12*
D03*
X415221Y462124D02*
G54D12*
D03*
X462651Y722915D02*
G54D12*
D03*
X544408Y722915D02*
G54D12*
D03*
X906502Y591309D02*
G54D10*
D03*
X906503Y641309D02*
G54D10*
D03*
X968019Y591309D02*
G54D10*
D03*
X968019Y641309D02*
G54D10*
D03*
X841957Y888865D02*
G54D24*
D03*
X792162Y530622D02*
G54D25*
D03*
X969162Y530622D02*
G54D25*
D03*
X792162Y467122D02*
G54D25*
D03*
X969162Y467122D02*
G54D25*
D03*
X792162Y403622D02*
G54D25*
D03*
X969162Y403622D02*
G54D25*
D03*
X746124Y467122D02*
G54D24*
D03*
X83259Y560817D02*
G54D10*
D03*
X108659Y560817D02*
G54D10*
D03*
X134059Y560817D02*
G54D10*
D03*
X749682Y857623D02*
G54D15*
D03*
X698882Y857624D02*
G54D15*
D03*
X724282Y806824D02*
G54D15*
D03*
X699722Y789575D02*
G54D10*
D03*
X699722Y707819D02*
G54D10*
D03*
X674322Y780844D02*
G54D10*
D03*
X674322Y699088D02*
G54D10*
D03*
X587667Y828087D02*
G54D12*
D03*
X669424Y828087D02*
G54D12*
D03*
X300186Y809390D02*
G54D10*
D03*
X543868Y809390D02*
G54D10*
D03*
X105966Y660003D02*
G54D12*
D03*
X105966Y620712D02*
G54D12*
D03*
X298270Y400286D02*
G54D26*
D03*
X298269Y343457D02*
G54D26*
D03*
X190416Y593757D02*
G54D10*
D03*
X108659Y593757D02*
G54D10*
D03*
X170476Y525699D02*
G54D12*
D03*
X170476Y551098D02*
G54D12*
D03*
X684212Y509191D02*
G54D12*
D03*
X723795Y728472D02*
G54D10*
D03*
X723795Y626872D02*
G54D10*
D03*
X568722Y509191D02*
G54D12*
D03*
X648494Y623094D02*
G54D12*
D03*
X648494Y738188D02*
G54D12*
D03*
X774199Y896746D02*
G54D10*
D03*
X672599Y896746D02*
G54D10*
D03*
X465533Y690166D02*
G54D12*
D03*
X547290Y690166D02*
G54D12*
D03*
X377974Y587934D02*
G54D12*
D03*
X346224Y587537D02*
G54D10*
D03*
X320824Y587537D02*
G54D10*
D03*
X295027Y587537D02*
G54D10*
D03*
X269627Y587537D02*
G54D10*
D03*
X410236Y533896D02*
G54D10*
D03*
X410236Y560486D02*
G54D10*
D03*
X603636Y877092D02*
G54D27*
D03*
X521880Y877092D02*
G54D27*
D03*
G54D28*
X1041441Y630759D02*
X1035447Y556816D01*
X1012825Y534194D01*
X1012825Y414734D01*
X1012428Y414338D01*
G54D29*
X1041441Y685759D02*
X961029Y685759D01*
X937828Y708960D01*
X937828Y758948D01*
X225689Y557311D02*
G54D10*
D03*
X225689Y583902D02*
G54D10*
D03*
X255168Y497697D02*
G54D15*
D03*
X305969Y497696D02*
G54D15*
D03*
X280568Y548496D02*
G54D15*
D03*
X216164Y487461D02*
G54D10*
D03*
X216164Y514052D02*
G54D10*
D03*
X411708Y588330D02*
G54D12*
D03*
X458391Y369491D02*
G54D30*
D03*
X715566Y395684D02*
G54D31*
D03*
X422808Y662882D02*
G54D12*
D03*
X504564Y662882D02*
G54D12*
D03*
X1013262Y822516D02*
G54D10*
D03*
X1013262Y740759D02*
G54D10*
D03*
G54D32*
X937828Y862941D02*
X937828Y912929D01*
G54D32*
X841957Y888865D02*
X930934Y888865D01*
X932259Y890191D01*
M02*
